<svg xmlns="http://www.w3.org/2000/svg" viewBox="0 0 260.73 208.58"><path fill="#8e95b2" d="M234.68,20.91H130.37c.74,0-25.8-20.91-26.07-20.91H26.07A26,26,0,0,0,.13,26.06h0L0,182.51a26.06,26.06,0,0,0,26.05,26.07H234.66a26.06,26.06,0,0,0,26.07-26.05V47A26.07,26.07,0,0,0,234.68,20.91ZM142.07,168.48c0,2.09-2.21,3.78-4.94,3.78h-56c-2.73,0-4.94-1.69-4.94-3.78V142.69c0-2.09,2.21-3.79,4.94-3.79h56c2.73,0,4.94,1.7,4.94,3.79Zm0-40.9c0,2.09-2.21,3.78-4.94,3.78h-56c-2.73,0-4.94-1.69-4.94-3.78V101.79c0-2.09,2.21-3.79,4.94-3.79h56c2.73,0,4.94,1.7,4.94,3.79Zm0-40.9c0,2.08-2.21,3.78-4.94,3.78h-56c-2.73,0-4.94-1.7-4.94-3.78V60.89c0-2.09,2.21-3.79,4.94-3.79h56c2.73,0,4.94,1.7,4.94,3.79Zm80.4,81.8c0,2.09-2.21,3.78-4.93,3.78H157c-2.73,0-4.94-1.69-4.94-3.78V60.89c0-2.09,2.21-3.79,4.94-3.79h60.57c2.72,0,4.93,1.7,4.93,3.79Z"/></svg>
