<svg xmlns="http://www.w3.org/2000/svg" viewBox="0 0 260.93 208.43"><defs><style>.cls-1{fill:#8e95b2;}</style></defs><path class="cls-1" d="M235,20.9H130.66L104.21,0H26.05A25.94,25.94,0,0,0,.13,26v.09L0,182.38a26,26,0,0,0,26,26.05H234.48a26,26,0,0,0,26-26v-.1L260.93,47A26,26,0,0,0,235,20.9Zm-.1,161.48H26.05L26.45,47h0v0H137.58v0h97.3Z"/><path class="cls-1" d="M152.13,60.93V168.52c0,2.09,2.21,3.78,4.94,3.78h60.57c2.73,0,4.94-1.69,4.94-3.78V60.93c0-2.09-2.21-3.79-4.94-3.79H157.07C154.34,57.14,152.13,58.84,152.13,60.93Z"/><path class="cls-1" d="M137.24,57.14H81.19c-2.73,0-4.94,1.7-4.94,3.79V86.72c0,2.09,2.21,3.78,4.94,3.78h56.05c2.72,0,4.93-1.69,4.93-3.78V60.93C142.17,58.84,140,57.14,137.24,57.14Z"/><path class="cls-1" d="M137.24,139H81.19c-2.73,0-4.94,1.69-4.94,3.78v25.79c0,2.09,2.21,3.78,4.94,3.78h56.05c2.72,0,4.93-1.69,4.93-3.78V142.73C142.17,140.64,140,139,137.24,139Z"/><path class="cls-1" d="M137.24,98.05H81.19c-2.73,0-4.94,1.69-4.94,3.78v25.79c0,2.09,2.21,3.78,4.94,3.78h56.05c2.72,0,4.93-1.69,4.93-3.78V101.83C142.17,99.74,140,98.05,137.24,98.05Z"/></svg>
