<svg xmlns="http://www.w3.org/2000/svg" xmlns:xlink="http://www.w3.org/1999/xlink" viewBox="0 0 14.02 28"><defs><style>.cls-1,.cls-20,.cls-21{fill:none;}.cls-2{fill:url(#Dégradé_sans_nom);}.cls-3,.cls-4{fill:#be202e;}.cls-21,.cls-4{opacity:0.35;isolation:isolate;}.cls-5{fill:url(#Dégradé_sans_nom_7);}.cls-6{fill:url(#Dégradé_sans_nom-2);}.cls-7{fill:url(#Dégradé_sans_nom_7-2);}.cls-8{fill:url(#Dégradé_sans_nom_3);}.cls-9{fill:url(#Dégradé_sans_nom_7-3);}.cls-10{fill:url(#Dégradé_sans_nom_7-4);}.cls-11{fill:url(#Dégradé_sans_nom_7-5);}.cls-12{fill:url(#Dégradé_sans_nom_3-2);}.cls-13{fill:url(#Dégradé_sans_nom_7-6);}.cls-14{fill:url(#Dégradé_sans_nom_7-7);}.cls-15{fill:url(#Dégradé_sans_nom_7-8);}.cls-16{fill:url(#Dégradé_sans_nom_7-9);}.cls-17{fill:url(#Dégradé_sans_nom_3-3);}.cls-18{fill:url(#Dégradé_sans_nom_7-10);}.cls-19{fill:url(#Dégradé_sans_nom_7-11);}.cls-20,.cls-21{stroke:#be202e;stroke-linecap:round;stroke-linejoin:round;stroke-width:0;}</style><linearGradient id="Dégradé_sans_nom" x1="-6122.8" y1="66.3" x2="-6118.85" y2="70.93" gradientTransform="matrix(0.42, -0.91, 0.91, 0.42, 2539.07, -5572.55)" gradientUnits="userSpaceOnUse"><stop offset="0" stop-color="#f69923"/><stop offset="0.31" stop-color="#f79a23"/><stop offset="0.84" stop-color="#e97826"/></linearGradient><linearGradient id="Dégradé_sans_nom_7" x1="-6150.21" y1="66.86" x2="-6121.99" y2="66.86" gradientTransform="matrix(0.42, -0.91, 0.91, 0.42, 2539.07, -5572.55)" gradientUnits="userSpaceOnUse"><stop offset="0.32" stop-color="#9e2064"/><stop offset="0.63" stop-color="#c92037"/><stop offset="0.75" stop-color="#cd2335"/><stop offset="1" stop-color="#e97826"/></linearGradient><linearGradient id="Dégradé_sans_nom-2" x1="-6123.16" y1="66.61" x2="-6119.21" y2="71.24" xlink:href="#Dégradé_sans_nom"/><linearGradient id="Dégradé_sans_nom_7-2" x1="-6150.21" y1="67.36" x2="-6121.99" y2="67.36" xlink:href="#Dégradé_sans_nom_7"/><linearGradient id="Dégradé_sans_nom_3" x1="-6146.8" y1="69.7" x2="-6129.99" y2="69.7" gradientTransform="matrix(0.42, -0.91, 0.91, 0.42, 2539.07, -5572.55)" gradientUnits="userSpaceOnUse"><stop offset="0" stop-color="#282662"/><stop offset="0.1" stop-color="#662e8d"/><stop offset="0.79" stop-color="#9f2064"/><stop offset="0.95" stop-color="#cd2032"/></linearGradient><linearGradient id="Dégradé_sans_nom_7-3" x1="-6148.62" y1="66.61" x2="-6120.41" y2="66.61" xlink:href="#Dégradé_sans_nom_7"/><linearGradient id="Dégradé_sans_nom_7-4" x1="-6150.21" y1="66.59" x2="-6121.99" y2="66.59" xlink:href="#Dégradé_sans_nom_7"/><linearGradient id="Dégradé_sans_nom_7-5" x1="-6148.62" y1="66.59" x2="-6120.41" y2="66.59" xlink:href="#Dégradé_sans_nom_7"/><linearGradient id="Dégradé_sans_nom_3-2" x1="-6146.57" y1="66.99" x2="-6131.74" y2="66.99" xlink:href="#Dégradé_sans_nom_3"/><linearGradient id="Dégradé_sans_nom_7-6" x1="-6148.62" y1="69.53" x2="-6120.41" y2="69.53" xlink:href="#Dégradé_sans_nom_7"/><linearGradient id="Dégradé_sans_nom_7-7" x1="-6148.62" y1="70.33" x2="-6120.41" y2="70.33" xlink:href="#Dégradé_sans_nom_7"/><linearGradient id="Dégradé_sans_nom_7-8" x1="-6148.62" y1="70.28" x2="-6120.41" y2="70.28" gradientTransform="translate(2886.02 -5402.01) rotate(-61.36)" xlink:href="#Dégradé_sans_nom_7"/><linearGradient id="Dégradé_sans_nom_7-9" x1="-6148.62" y1="70.28" x2="-6120.41" y2="70.28" gradientTransform="matrix(0.59, -0.81, 0.81, 0.59, 3577.76, -4973.27)" xlink:href="#Dégradé_sans_nom_7"/><linearGradient id="Dégradé_sans_nom_3-3" x1="-6146.8" y1="68.51" x2="-6129.99" y2="68.51" xlink:href="#Dégradé_sans_nom_3"/><linearGradient id="Dégradé_sans_nom_7-10" x1="-6148.62" y1="68.51" x2="-6120.41" y2="68.51" xlink:href="#Dégradé_sans_nom_7"/><linearGradient id="Dégradé_sans_nom_7-11" x1="-6150.37" y1="69.38" x2="-6122.16" y2="69.38" xlink:href="#Dégradé_sans_nom_7"/></defs><title>apache</title><g id="Calque_2" data-name="Calque 2"><g id="Calque_1-2" data-name="Calque 1"><polygon class="cls-1" points="8.93 12.87 8.93 12.87 8.93 12.87 8.93 12.87"/><path class="cls-2" d="M13.6.84S12.82-.4,11.92.13a10.26,10.26,0,0,0-2,2.06l.8,1.51h0a19.74,19.74,0,0,1,1.71-2.14,17.86,17.86,0,0,0-1.6,2.17,30.09,30.09,0,0,0,3.11-.39A3.29,3.29,0,0,0,13.6.84Z"/><path class="cls-3" d="M8.93,12.87l.15,0,.15,0-.3.05.14,0-.14,0h0Z"/><path class="cls-4" d="M8.93,12.87l.15,0,.15,0-.3.05.14,0-.14,0h0Z"/><path class="cls-3" d="M9.54,11.49h0l.2,0-.24,0h0Z"/><path class="cls-4" d="M9.54,11.49h0l.2,0-.24,0h0Z"/><path class="cls-5" d="M9.88,2.19h0l-.18.22c-.23.29-.47.6-.72.92s-.56.76-.85,1.18-.54.78-.81,1.2-.46.72-.69,1.09l0,0,1,2.05.68-1.3q.37-.68.74-1.33T9.84,5l0-.08q.39-.62.79-1.19l-.8-1.51Z"/><polygon class="cls-6" points="9.88 2.19 9.88 2.19 10.68 3.7 10.68 3.7 9.88 2.19"/><polygon class="cls-7" points="9.88 2.19 9.88 2.19 10.68 3.7 10.68 3.7 9.88 2.19"/><path class="cls-8" d="M3.66,19h0l-.08.21-.41,1.16v0l-.06.17-.36,1a2.11,2.11,0,0,1,.79.93A1.68,1.68,0,0,0,3,21.36a3.62,3.62,0,0,0,3.49-1.42,2.8,2.8,0,0,0,.16-.31,1.45,1.45,0,0,1-1.4.51,4.06,4.06,0,0,0,2-1.67c.11-.18.22-.37.33-.59a3.3,3.3,0,0,1-3.11,1h0Z"/><path class="cls-9" d="M6.6,6.85h0l-.05.08c-.24.4-.48.8-.72,1.22s-.48.84-.7,1.28-.38.73-.57,1.1l-.11.23q-.34.7-.62,1.35T3.28,13.5c-.11.29-.2.58-.29.85s-.14.46-.21.7q-.23.82-.4,1.63l1,2.07.43-1.12L4,17.31l.56-1.43.57-1.39.59-1.4q.31-.71.63-1.42T7,10.28l.24-.49.42-.84,0,0h0Z"/><polygon class="cls-10" points="6.6 6.85 7.64 8.9 7.64 8.9 6.6 6.85 6.6 6.85"/><polygon class="cls-11" points="6.6 6.85 7.64 8.9 7.64 8.9 6.6 6.85 6.6 6.85"/><path class="cls-12" d="M2.88,20.22,3.32,19l.1-.28h0l-1-2.07,0,.07a16.07,16.07,0,0,0-.27,2,.32.32,0,0,1,0,.07,4.15,4.15,0,0,0-1.2-1,5.83,5.83,0,0,1,1.17,2.69,2.64,2.64,0,0,1-1.33-.23,2.66,2.66,0,0,0,1.13.69,3.25,3.25,0,0,0-1.57.78,3.36,3.36,0,0,1,1.86-.34C1.43,23.39.72,25.63,0,28a.62.62,0,0,0,.42-.41c.13-.43,1-3.25,2.31-7l.11-.32Z"/><path class="cls-13" d="M10.59,8.75h0l-.12,0h0l-2.64.29,0,0-.09.18-.27.57-.3.65L7,10.81l-.47,1q-.3.67-.6,1.38l-.59,1.42L4.75,16.1l-.52,1.36,0,.07-.53,1.42v0l.84-.09h0a6,6,0,0,0,3.21-1.81,8,8,0,0,0,1.1-1.52,13.14,13.14,0,0,0,.71-1.47c.2-.47.38-1,.56-1.54a3.05,3.05,0,0,1-.79.27l-.16,0-.16,0h0a3.67,3.67,0,0,0,2-1.91,3.34,3.34,0,0,1-1.13.49l-.2,0h0a3.83,3.83,0,0,0,.84-.47l.15-.12.21-.2.12-.14a3.27,3.27,0,0,0,.26-.36l.07-.12.09-.18c.13-.26.24-.5.32-.71s.08-.2.11-.29l0-.1.08-.26a2.6,2.6,0,0,0,.06-.28l-.11.08A4,4,0,0,1,10.59,8.75Z"/><polygon class="cls-3" points="8.91 12.87 8.93 12.87 8.93 12.87 8.91 12.87"/><polygon class="cls-4" points="8.91 12.87 8.93 12.87 8.93 12.87 8.91 12.87"/><polygon class="cls-14" points="8.91 12.87 8.93 12.87 8.93 12.87 8.91 12.87"/><circle class="cls-3" cx="9.5" cy="11.5" transform="translate(-0.71 0.62) rotate(-3.61)"/><circle class="cls-4" cx="9.5" cy="11.5" transform="translate(-0.71 0.62) rotate(-3.61)"/><circle class="cls-15" cx="9.5" cy="11.5" transform="translate(-0.71 0.62) rotate(-3.61)"/><circle class="cls-3" cx="9.5" cy="11.5" transform="translate(-2.06 2.07) rotate(-11.23)"/><circle class="cls-4" cx="9.5" cy="11.5" transform="translate(-2.06 2.07) rotate(-11.23)"/><circle class="cls-16" cx="9.5" cy="11.5" transform="translate(-2.06 2.07) rotate(-11.23)"/><polygon class="cls-17" points="3.66 18.98 4.5 18.89 4.49 18.89 3.66 18.98 3.66 18.98"/><polygon class="cls-18" points="3.66 18.98 4.5 18.89 4.49 18.89 3.66 18.98 3.66 18.98"/><path class="cls-19" d="M10,5,10,5q-.36.6-.76,1.33T8.49,7.71Q8.17,8.34,7.82,9l2.65-.29a3.22,3.22,0,0,0,1.45-1.14l.27-.4c.27-.42.54-.89.78-1.35a14.07,14.07,0,0,0,.59-1.29,6.78,6.78,0,0,0,.23-.7c0-.18.09-.36.11-.52a30.14,30.14,0,0,1-3.11.38C10.55,4.09,10.29,4.5,10,5Z"/><path class="cls-20" d="M8.91,12.87h0"/><path class="cls-21" d="M8.91,12.87h0"/><path class="cls-20" d="M9.07,12.85l-.14,0"/><path class="cls-21" d="M9.07,12.85l-.14,0"/><path class="cls-20" d="M8.93,12.87h0"/><path class="cls-21" d="M8.93,12.87h0"/><line class="cls-20" x1="9.5" y1="11.5" x2="9.51" y2="11.5"/><line class="cls-21" x1="9.5" y1="11.5" x2="9.51" y2="11.5"/><line class="cls-20" x1="9.51" y1="11.5" x2="9.54" y2="11.49"/><line class="cls-21" x1="9.51" y1="11.5" x2="9.54" y2="11.49"/><line class="cls-20" x1="9.49" y1="11.5" x2="9.5" y2="11.5"/><line class="cls-21" x1="9.49" y1="11.5" x2="9.5" y2="11.5"/></g></g></svg>