<svg xmlns="http://www.w3.org/2000/svg" xmlns:xlink="http://www.w3.org/1999/xlink" viewBox="0 0 14.02 28"><defs><linearGradient id="Dégradé_sans_nom" x1="-6122.8" y1="66.3" x2="-6118.85" y2="70.93" gradientTransform="rotate(-65.2 -3090.047 -4759.667)" gradientUnits="userSpaceOnUse"><stop offset="0" stop-color="#f69923"/><stop offset=".31" stop-color="#f79a23"/><stop offset=".84" stop-color="#e97826"/></linearGradient><linearGradient id="Dégradé_sans_nom_7" x1="-6150.21" y1="66.86" x2="-6121.99" y2="66.86" gradientTransform="rotate(-65.2 -3090.047 -4759.667)" gradientUnits="userSpaceOnUse"><stop offset=".32" stop-color="#9e2064"/><stop offset=".63" stop-color="#c92037"/><stop offset=".75" stop-color="#cd2335"/><stop offset="1" stop-color="#e97826"/></linearGradient><linearGradient id="Dégradé_sans_nom-2" x1="-6123.16" y1="66.61" x2="-6119.21" y2="71.24" xlink:href="#Dégradé_sans_nom"/><linearGradient id="Dégradé_sans_nom_7-2" x1="-6150.21" y1="67.36" x2="-6121.99" y2="67.36" xlink:href="#Dégradé_sans_nom_7"/><linearGradient id="Dégradé_sans_nom_3" x1="-6146.8" y1="69.7" x2="-6129.99" y2="69.7" gradientTransform="rotate(-65.2 -3090.047 -4759.667)" gradientUnits="userSpaceOnUse"><stop offset="0" stop-color="#282662"/><stop offset=".1" stop-color="#662e8d"/><stop offset=".79" stop-color="#9f2064"/><stop offset=".95" stop-color="#cd2032"/></linearGradient><linearGradient id="Dégradé_sans_nom_7-3" x1="-6148.62" y1="66.61" x2="-6120.41" y2="66.61" xlink:href="#Dégradé_sans_nom_7"/><linearGradient id="Dégradé_sans_nom_7-4" x1="-6150.21" y1="66.59" x2="-6121.99" y2="66.59" xlink:href="#Dégradé_sans_nom_7"/><linearGradient id="Dégradé_sans_nom_7-5" x1="-6148.62" y1="66.59" x2="-6120.41" y2="66.59" xlink:href="#Dégradé_sans_nom_7"/><linearGradient id="Dégradé_sans_nom_3-2" x1="-6146.57" y1="66.99" x2="-6131.74" y2="66.99" xlink:href="#Dégradé_sans_nom_3"/><linearGradient id="Dégradé_sans_nom_7-6" x1="-6148.62" y1="69.53" x2="-6120.41" y2="69.53" xlink:href="#Dégradé_sans_nom_7"/><linearGradient id="Dégradé_sans_nom_7-7" x1="-6148.62" y1="70.33" x2="-6120.41" y2="70.33" xlink:href="#Dégradé_sans_nom_7"/><linearGradient id="Dégradé_sans_nom_7-8" x1="-6148.62" y1="70.28" x2="-6120.41" y2="70.28" gradientTransform="rotate(-61.36 -3109.62 -5133.244)" xlink:href="#Dégradé_sans_nom_7"/><linearGradient id="Dégradé_sans_nom_7-9" x1="-6148.62" y1="70.28" x2="-6120.41" y2="70.28" gradientTransform="rotate(-53.8 -3107.822 -5990.083)" xlink:href="#Dégradé_sans_nom_7"/><linearGradient id="Dégradé_sans_nom_3-3" x1="-6146.8" y1="68.51" x2="-6129.99" y2="68.51" xlink:href="#Dégradé_sans_nom_3"/><linearGradient id="Dégradé_sans_nom_7-10" x1="-6148.62" y1="68.51" x2="-6120.41" y2="68.51" xlink:href="#Dégradé_sans_nom_7"/><linearGradient id="Dégradé_sans_nom_7-11" x1="-6150.37" y1="69.38" x2="-6122.16" y2="69.38" xlink:href="#Dégradé_sans_nom_7"/><style>.cls-20,.cls-21{fill:none}.cls-3,.cls-4{fill:#be202e}.cls-21,.cls-4{opacity:.35;isolation:isolate}.cls-20,.cls-21{stroke:#be202e;stroke-linecap:round;stroke-linejoin:round;stroke-width:0}</style></defs><g id="Calque_2" data-name="Calque 2"><g id="Calque_1-2" data-name="Calque 1"><path d="M13.6.84S12.82-.4 11.92.13a10.26 10.26 0 00-2 2.06l.8 1.51a19.74 19.74 0 011.71-2.14 17.86 17.86 0 00-1.6 2.17 30.09 30.09 0 003.11-.39 3.29 3.29 0 00-.34-2.5z" fill="url(#Dégradé_sans_nom)"/><path class="cls-3" d="M8.93 12.87h.3l-.3.05h.14-.14z"/><path class="cls-4" d="M8.93 12.87h.3l-.3.05h.14-.14z"/><path class="cls-3" d="M9.54 11.49h.2-.24z"/><path class="cls-4" d="M9.54 11.49h.2-.24z"/><path d="M9.88 2.19l-.18.22c-.23.29-.47.6-.72.92s-.56.76-.85 1.18-.54.78-.81 1.2-.46.72-.69 1.09l1 2.05.68-1.3q.37-.68.74-1.33T9.84 5v-.08q.39-.62.79-1.19l-.8-1.51z" fill="url(#Dégradé_sans_nom_7)"/><path fill="url(#Dégradé_sans_nom-2)" d="M9.88 2.19l.8 1.51-.8-1.51z"/><path fill="url(#Dégradé_sans_nom_7-2)" d="M9.88 2.19l.8 1.51-.8-1.51z"/><path d="M3.66 19l-.08.21-.41 1.16-.06.17-.36 1a2.11 2.11 0 01.79.93A1.68 1.68 0 003 21.36a3.62 3.62 0 003.49-1.42 2.8 2.8 0 00.16-.31 1.45 1.45 0 01-1.4.51 4.06 4.06 0 002-1.67c.11-.18.22-.37.33-.59a3.3 3.3 0 01-3.11 1z" fill="url(#Dégradé_sans_nom_3)"/><path d="M6.6 6.85l-.05.08c-.24.4-.48.8-.72 1.22s-.48.84-.7 1.28-.38.73-.57 1.1l-.11.23q-.34.7-.62 1.35t-.55 1.39c-.11.29-.2.58-.29.85s-.14.46-.21.7q-.23.82-.4 1.63l1 2.07.43-1.12.19-.32.56-1.43.57-1.39.59-1.4q.31-.71.63-1.42T7 10.28l.24-.49.42-.84z" fill="url(#Dégradé_sans_nom_7-3)"/><path fill="url(#Dégradé_sans_nom_7-4)" d="M6.6 6.85L7.64 8.9 6.6 6.85z"/><path fill="url(#Dégradé_sans_nom_7-5)" d="M6.6 6.85L7.64 8.9 6.6 6.85z"/><path d="M2.88 20.22L3.32 19l.1-.28-1-2.07v.07a16.07 16.07 0 00-.27 2 .32.32 0 010 .07 4.15 4.15 0 00-1.2-1 5.83 5.83 0 011.17 2.69 2.64 2.64 0 01-1.33-.23 2.66 2.66 0 001.13.69 3.25 3.25 0 00-1.57.78 3.36 3.36 0 011.86-.34C1.43 23.39.72 25.63 0 28a.62.62 0 00.42-.41c.13-.43 1-3.25 2.31-7l.11-.32z" fill="url(#Dégradé_sans_nom_3-2)"/><path d="M10.59 8.75h-.12l-2.64.29-.09.18-.27.57-.3.65-.17.37-.47 1q-.3.67-.6 1.38l-.59 1.42-.59 1.49-.52 1.36v.07l-.53 1.42.84-.09a6 6 0 003.21-1.81 8 8 0 001.1-1.52 13.14 13.14 0 00.71-1.47c.2-.47.38-1 .56-1.54a3.05 3.05 0 01-.79.27h-.32a3.67 3.67 0 002-1.91 3.34 3.34 0 01-1.13.49h-.2a3.83 3.83 0 00.84-.47l.15-.12.21-.2.12-.14a3.27 3.27 0 00.26-.36l.07-.12.09-.18c.13-.26.24-.5.32-.71s.08-.2.11-.29v-.1l.08-.26a2.6 2.6 0 00.06-.28l-.11.08a4 4 0 01-1.29.53z" fill="url(#Dégradé_sans_nom_7-6)"/><path class="cls-3" d="M8.91 12.87h.02-.02z"/><path class="cls-4" d="M8.91 12.87h.02-.02z"/><path fill="url(#Dégradé_sans_nom_7-7)" d="M8.91 12.87h.02-.02z"/><circle class="cls-3" cx="9.5" cy="11.5" transform="rotate(-3.61 9.482 11.575)"/><circle class="cls-4" cx="9.5" cy="11.5" transform="rotate(-3.61 9.482 11.575)"/><circle cx="9.5" cy="11.5" transform="rotate(-3.61 9.482 11.575)" fill="url(#Dégradé_sans_nom_7-8)"/><circle class="cls-3" cx="9.5" cy="11.5" transform="rotate(-11.23 9.497 11.512)"/><circle class="cls-4" cx="9.5" cy="11.5" transform="rotate(-11.23 9.497 11.512)"/><circle cx="9.5" cy="11.5" transform="rotate(-11.23 9.497 11.512)" fill="url(#Dégradé_sans_nom_7-9)"/><path fill="url(#Dégradé_sans_nom_3-3)" d="M3.66 18.98l.84-.09h-.01l-.83.09z"/><path fill="url(#Dégradé_sans_nom_7-10)" d="M3.66 18.98l.84-.09h-.01l-.83.09z"/><path d="M10 5q-.36.6-.76 1.33t-.75 1.38q-.32.63-.67 1.29l2.65-.29a3.22 3.22 0 001.45-1.14l.27-.4c.27-.42.54-.89.78-1.35a14.07 14.07 0 00.59-1.29 6.78 6.78 0 00.23-.7c0-.18.09-.36.11-.52a30.14 30.14 0 01-3.11.38c-.24.4-.5.81-.79 1.31z" fill="url(#Dégradé_sans_nom_7-11)"/><path class="cls-20" d="M9.07 12.85h-.14"/><path class="cls-21" d="M9.07 12.85h-.14"/><path class="cls-20" d="M9.5 11.5h.01"/><path class="cls-21" d="M9.5 11.5h.01"/><path class="cls-20" d="M9.51 11.5l.03-.01"/><path class="cls-21" d="M9.51 11.5l.03-.01"/><path class="cls-20" d="M9.49 11.5h.01"/><path class="cls-21" d="M9.49 11.5h.01"/></g></g></svg>