<svg xmlns="http://www.w3.org/2000/svg" viewBox="0 0 512 242.89"><g data-name="Calque 2"><path d="M512 121.44C512 54.41 455.65 0 385.7 0a130.81 130.81 0 00-19.43 1.46C312.35 9.23 275.92 48.09 256 77.72 235.6 48.09 199.65 9.23 145.73 1.46A130.81 130.81 0 00126.3 0C56.83 0 0 54.41 0 121.44c0 67 56.35 121.44 125.81 121.44a130.81 130.81 0 0019.43-1.46c53.92-7.77 90.35-46.63 110.27-76.27 20.4 29.63 56.35 68.49 110.27 76.27a130.81 130.81 0 0019.43 1.46C455.65 243.37 512 189 512 121.44zm-372.58 77.73a119.1 119.1 0 01-13.12 1c-45.66 0-83.07-35.46-83.07-78.69s37.4-78.69 83.07-78.69a119.11 119.11 0 0113.12 1c51 7.29 82.09 57.32 92.78 77.72-10.69 20.4-41.78 70.44-92.78 77.72zm140.38-77.73c10.69-19.92 41.78-70.44 92.78-77.72a119.11 119.11 0 0113.12-1c45.66 0 83.07 35.46 83.07 78.69s-37.4 78.69-83.07 78.69a119.1 119.1 0 01-13.12-1c-51-7.29-82.09-57.32-92.78-77.72zM91.32 134.07h75.78v-24.29H91.32zm303.12 0h25.26v-24.29h-25.26V84h-24.77v25.75h-25.26v24.29h25.26v25.75h24.77z" fill="#96ae60" data-name="Calque 1"/></g></svg>