<svg xmlns="http://www.w3.org/2000/svg" viewBox="0 0 512 242.89"><defs><style>.cls-1{fill:#96ae60;}</style></defs><title>arduino_1</title><g id="Calque_2" data-name="Calque 2"><g id="Calque_1-2" data-name="Calque 1"><path class="cls-1" d="M512,121.44C512,54.41,455.65,0,385.7,0h0a130.81,130.81,0,0,0-19.43,1.46h0C312.35,9.23,275.92,48.09,256,77.72h0C235.6,48.09,199.65,9.23,145.73,1.46h0A130.81,130.81,0,0,0,126.3,0h0C56.83,0,0,54.41,0,121.44H0c0,67,56.35,121.44,125.81,121.44h0a130.81,130.81,0,0,0,19.43-1.46h0c53.92-7.77,90.35-46.63,110.27-76.27h0c20.4,29.63,56.35,68.49,110.27,76.27h0a130.81,130.81,0,0,0,19.43,1.46h0C455.65,243.37,512,189,512,121.44ZM139.42,199.17a119.1,119.1,0,0,1-13.12,1h0c-45.66,0-83.07-35.46-83.07-78.69h0c0-43.23,37.4-78.69,83.07-78.69h0a119.11,119.11,0,0,1,13.12,1h0c51,7.29,82.09,57.32,92.78,77.72h0c-10.69,20.4-41.78,70.44-92.78,77.72ZM279.8,121.44c10.69-19.92,41.78-70.44,92.78-77.72h0a119.11,119.11,0,0,1,13.12-1h0c45.66,0,83.07,35.46,83.07,78.69h0c0,43.23-37.4,78.69-83.07,78.69h0a119.1,119.1,0,0,1-13.12-1h0c-51-7.29-82.09-57.32-92.78-77.72ZM91.32,134.07H167.1V109.78H91.32Zm303.12,0H419.7V109.78H394.44V84H369.67v25.75H344.41v24.29h25.26v25.75h24.77Z"/></g></g></svg>