<svg xmlns="http://www.w3.org/2000/svg" viewBox="0 0 512 504.37"><defs><style>.cls-1{fill:#019639;}</style></defs><title>brunch</title><g id="Calque_2" data-name="Calque 2"><g id="Calque_1-2" data-name="Calque 1"><path class="cls-1" d="M116.85,294.39c0-32.47,14.38-124.77,17.49-124.77,8.41,16.06-9.59,123.06,11,126.87,15.28-.64,7.88-113,16.71-126.87,9.16,14,1.34,125.06,17.22,126,19.13,1.17,5.21-122.66,11.75-126,10,8.57,16.88,98.68,16.2,124.77-1.43,55.13-32,53.46-34.92,77.74a316.7,316.7,0,0,0-2.16,54l71.19,71.19c2.2-110-4.6-106.73-5.71-114.5v-269c0-22.94,21.48-33.79,41.24,16.57S291.1,359.89,291.1,372.62c-3.7,13.1-16.5,9.53-22.79,29.84-2.15,7-4.86,59.33-4.68,101.91l98.12-98.12c-2-52.56.12-43.29-24.07-66.28-46.13-45.87-15.5-159.19,30.53-162.18C411.2,179.5,446,292.52,398.75,340c-25,20.37-22.41,23.21-23.82,53.11L512,256,256,0,0,256,153.82,409.82c.15-16.14.38-40.72-7.59-50.79C137.77,348.32,117.82,333.72,116.85,294.39Z"/></g></g></svg>