<svg xmlns="http://www.w3.org/2000/svg" viewBox="0 0 28 21.85"><defs><style>.cls-1{fill:#e64a19;}.cls-2{fill:#fff;}</style></defs><title>cakephp</title><g id="Calque_2" data-name="Calque 2"><g id="Calque_1-2" data-name="Calque 1"><path class="cls-1" d="M14,8.74l10.95,2.72C26.85,10.72,28,9.77,28,8.74V4.37C28,2,21.73,0,14,0S0,2,0,4.37V8.74c0,2.41,6.27,4.37,14,4.37Z"/><path class="cls-2" d="M24.95,11.46,14,8.74v4.37l10.95,2.72c1.9-.75,3.05-1.69,3.05-2.72V8.74C28,9.77,26.85,10.72,24.95,11.46Z"/><path class="cls-2" d="M0,8.74v4.37c0,2.41,6.27,4.37,14,4.37V13.11C6.27,13.11,0,11.15,0,8.74Z"/><path class="cls-1" d="M24.95,15.83,14,13.11v4.37L24.95,20.2c1.9-.75,3.05-1.69,3.05-2.72V13.11C28,14.14,26.85,15.08,24.95,15.83Z"/><path class="cls-1" d="M0,13.11v4.37c0,2.41,6.27,4.37,14,4.37V17.48C6.27,17.48,0,15.52,0,13.11Z"/></g></g></svg>