<svg xmlns="http://www.w3.org/2000/svg" viewBox="0 0 28 21.85"><defs><style>.cls-1{fill:#e64a19}</style></defs><g id="Calque_2" data-name="Calque 2"><g id="Calque_1-2" data-name="Calque 1"><path class="cls-1" d="M14 8.74l10.95 2.72c1.9-.74 3.05-1.69 3.05-2.72V4.37C28 2 21.73 0 14 0S0 2 0 4.37v4.37c0 2.41 6.27 4.37 14 4.37z"/><path d="M24.95 11.46L14 8.74v4.37l10.95 2.72c1.9-.75 3.05-1.69 3.05-2.72V8.74c0 1.03-1.15 1.98-3.05 2.72zM0 8.74v4.37c0 2.41 6.27 4.37 14 4.37v-4.37c-7.73 0-14-1.96-14-4.37z" fill="#fff"/><path class="cls-1" d="M24.95 15.83L14 13.11v4.37l10.95 2.72c1.9-.75 3.05-1.69 3.05-2.72v-4.37c0 1.03-1.15 1.97-3.05 2.72zM0 13.11v4.37c0 2.41 6.27 4.37 14 4.37v-4.37c-7.73 0-14-1.96-14-4.37z"/></g></g></svg>