<svg xmlns="http://www.w3.org/2000/svg" viewBox="0 0 512 512"><defs><style>.cls-1{fill:#fbc02d;}</style></defs><title>codekit</title><g id="Calque_2" data-name="Calque 2"><g id="Calque_1-2" data-name="Calque 1"><path class="cls-1" d="M127.71,34.45c-170.28,98.17-170.28,344.92,0,443.09S512,452.34,512,256,298-63.72,127.71,34.45Zm1,233.51,102.6,102.56c26.14,29.14-14,65.83-40.43,40.43L56,276a28.45,28.45,0,0,1,0-40.23L190.9,100.83c27.82-25.53,66.34,13,40.41,40.43L128.73,243.83A17.07,17.07,0,0,0,128.73,268Zm190,142.88c-28.09,26.32-65.92-14.68-40.43-40.43l102.6-102.56a17.07,17.07,0,0,0,0-24.13L278.33,141.15C252,114.83,292.44,74.4,318.76,100.72L453.71,235.67a28.45,28.45,0,0,1,0,40.23Z"/></g></g></svg>