<svg xmlns="http://www.w3.org/2000/svg" viewBox="0 0 512 512"><g data-name="Calque 2"><path d="M127.71 34.45c-170.28 98.17-170.28 344.92 0 443.09S512 452.34 512 256 298-63.72 127.71 34.45zm1 233.51l102.6 102.56c26.14 29.14-14 65.83-40.43 40.43L56 276a28.45 28.45 0 010-40.23l134.9-134.94c27.82-25.53 66.34 13 40.41 40.43L128.73 243.83a17.07 17.07 0 000 24.17zm190 142.88c-28.09 26.32-65.92-14.68-40.43-40.43l102.6-102.56a17.07 17.07 0 000-24.13L278.33 141.15c-26.33-26.32 14.11-66.75 40.43-40.43l134.95 134.95a28.45 28.45 0 010 40.23z" fill="#fbc02d" data-name="Calque 1"/></g></svg>