<svg xmlns="http://www.w3.org/2000/svg" viewBox="0 0 28.01 17.95"><defs><style>.cls-1{fill:#765f89;}</style></defs><title>cpp</title><g id="Calque_2" data-name="Calque 2"><g id="Calque_1-2" data-name="Calque 1"><path class="cls-1" d="M12.75,17a10.24,10.24,0,0,1-4.67.92,7.63,7.63,0,0,1-5.91-2.35A8.88,8.88,0,0,1,0,9.34,9.48,9.48,0,0,1,2.43,2.59,8.22,8.22,0,0,1,8.72,0a11.15,11.15,0,0,1,4,.64V4.41A6.84,6.84,0,0,0,9,3.37,4.81,4.81,0,0,0,5.3,4.9,5.9,5.9,0,0,0,3.89,9.06a5.8,5.8,0,0,0,1.33,4,4.57,4.57,0,0,0,3.59,1.49,7.32,7.32,0,0,0,3.94-1.11Z"/><polygon class="cls-1" points="15.12 7.8 15.12 5.46 17.47 5.46 17.47 7.8 19.81 7.8 19.81 10.14 17.47 10.14 17.47 12.49 15.12 12.49 15.12 10.14 12.78 10.14 12.78 7.8 15.12 7.8"/><polygon class="cls-1" points="23.32 7.8 23.32 5.46 25.67 5.46 25.67 7.8 28.01 7.8 28.01 10.14 25.67 10.14 25.67 12.49 23.32 12.49 23.32 10.14 20.98 10.14 20.98 7.8 23.32 7.8"/></g></g></svg>