<svg xmlns="http://www.w3.org/2000/svg" viewBox="0 0 28.01 17.95"><g data-name="Calque 2"><path d="M12.75 17a10.24 10.24 0 01-4.67.92 7.63 7.63 0 01-5.91-2.35A8.88 8.88 0 010 9.34a9.48 9.48 0 012.43-6.75A8.22 8.22 0 018.72 0a11.15 11.15 0 014 .64v3.77A6.84 6.84 0 009 3.37 4.81 4.81 0 005.3 4.9a5.9 5.9 0 00-1.41 4.16 5.8 5.8 0 001.33 4 4.57 4.57 0 003.59 1.49 7.32 7.32 0 003.94-1.11zm2.37-9.2V5.46h2.35V7.8h2.34v2.34h-2.34v2.35h-2.35v-2.35h-2.34V7.8h2.34zm8.2 0V5.46h2.35V7.8h2.34v2.34h-2.34v2.35h-2.35v-2.35h-2.34V7.8h2.34z" fill="#765f89" data-name="Calque 1"/></g></svg>