<svg xmlns="http://www.w3.org/2000/svg" viewBox="0 0 512 510.41"><defs><style>.cls-1{fill:#96ae60;}</style></defs><title>crystal</title><g id="Calque_2" data-name="Calque 2"><g id="Calque_1-2" data-name="Calque 1"><path class="cls-1" d="M510.92,325,325.51,509.89c-.52.52-1.55.52-3.09.52L69.53,442.94c-.51,0-1.54-.52-2.06-2.06L0,188.5a7.65,7.65,0,0,1,.51-3.09L185.93.51C186.45,0,187.48,0,189,0L441.91,68c.52,0,1.55.51,2.06,2.06l67.47,252.37c1,1,.52,2.06-.52,2.58ZM263.19,124.12l-248.25,67q-.77,0,0,1.54L196.75,374.44c.51.52.51,0,1.54,0l67-247.74c-1-2.57-2.06-2.57-2.06-2.57Z"/></g></g></svg>