<svg xmlns="http://www.w3.org/2000/svg" viewBox="0 0 20 14"><defs><style>.cls-1{fill:#0277bd;}</style></defs><title>csharp</title><g id="Calque_2" data-name="Calque 2"><g id="mdi-language-csharp"><path class="cls-1" d="M9.5,11l.41,2.44a5,5,0,0,1-1.24.39,9.1,9.1,0,0,1-2,.2,6.46,6.46,0,0,1-5-2A7,7,0,0,1,0,7.21,7.3,7.3,0,0,1,2,1.89,6.9,6.9,0,0,1,6.94,0,9,9,0,0,1,8.88.19a4.48,4.48,0,0,1,1.2.4L9.5,3.08,8.44,2.74a5.75,5.75,0,0,0-1.39-.15,3.87,3.87,0,0,0-2.87,1.1A4.58,4.58,0,0,0,3,7a4.57,4.57,0,0,0,1.08,3.2,3.92,3.92,0,0,0,3,1.18l1.33-.12A5.36,5.36,0,0,0,9.5,11m2.39,3,.61-4H11l.34-2h1.5l.32-2h-1.5L12,4h1.5l.61-4h2L15.5,4h1l.61-4h2L18.5,4H20l-.34,2h-1.5l-.32,2h1.5L19,10H17.5l-.61,4h-2l.61-4h-1l-.61,4h-2m2.95-6h1l.32-2h-1Z"/></g></g></svg>