<svg xmlns="http://www.w3.org/2000/svg" viewBox="0 0 25.89 13.92"><defs><style>.cls-1{fill:#96ae60;}</style></defs><title>cuda</title><g id="Calque_2" data-name="Calque 2"><g id="cuda"><path class="cls-1" d="M16,5.28l-2.38,2A10.84,10.84,0,0,0,12.1,5.11a3,3,0,0,0-1.65-.6A4.2,4.2,0,0,0,7.26,6s1,3.66,4.39,3.83,6.87-4.5,6.87-4.5S15,.87,10.45,1.38A10.24,10.24,0,0,0,2.86,5.5s1.95,6.26,7.59,6.94S20.89,9,22.71,7.36a8.74,8.74,0,0,0,1.74,1,4.31,4.31,0,0,1,1.44.91s-2,2.08-8.66,3.82a20.44,20.44,0,0,1-6.78.77c-.77-.14-6.93-.3-10.45-8.66C0,5.21,5.08.36,10.45,0s9.25,3.06,11,5.19c0,0-3.81,4.56-7.74,5.5A6.64,6.64,0,0,1,7,9.07,8.68,8.68,0,0,1,5,5.69a9.14,9.14,0,0,1,5.46-2.64A6.15,6.15,0,0,1,16,5.28Z"/></g></g></svg>