<svg xmlns="http://www.w3.org/2000/svg" viewBox="0 0 128 128"><path fill="#232a68" d="M64 9.586C33.947 9.586 9.586 33.947 9.586 64S33.947 118.414 64 118.414 118.414 94.053 118.414 64 94.05 9.586 64 9.586zm0 105.973c-28.476.0-51.562-23.086-51.562-51.562S35.524 12.438 64 12.438 115.562 35.524 115.562 64 92.476 115.562 64 115.562z"></path><path fill="#fdc52f" d="M64 0C28.653.0.0 28.653.0 64s28.653 64 64 64 64-28.653 64-64S99.347.0 64 0zm0 121.843C32.054 121.843 6.157 95.946 6.157 64S32.054 6.157 64 6.157 121.843 32.054 121.843 64 95.946 121.843 64 121.843z"></path></svg>
