<svg xmlns="http://www.w3.org/2000/svg" viewBox="0 0 19.93 21.18"><defs><style>.cls-1{fill:#fbc02d;}</style></defs><title>database</title><g id="Calque_2" data-name="Calque 2"><g id="Calque_1-2" data-name="Calque 1"><path class="cls-1" d="M2.53,13.26A21.16,21.16,0,0,0,10,14.45a21.16,21.16,0,0,0,7.44-1.19c1.86-.73,2.52-1.53,2.52-2V7.7a10.36,10.36,0,0,1-2.08,1.08A22.29,22.29,0,0,1,10,10.08a22.36,22.36,0,0,1-7.88-1.3A10.28,10.28,0,0,1,0,7.7v3.55C0,11.72.66,12.53,2.53,13.26Z"/><path class="cls-1" d="M10,21.18c5.5,0,10-1.74,10-3.89V14.45a10.5,10.5,0,0,1-1.53.76l-.16.06A23.49,23.49,0,0,1,10,16.63a23.42,23.42,0,0,1-8.27-1.35l-.16-.06A10.5,10.5,0,0,1,0,14.45v2.84C0,19.44,4.46,21.18,10,21.18Z"/><ellipse class="cls-1" cx="9.96" cy="3.89" rx="9.96" ry="3.89"/></g></g></svg>