<svg xmlns="http://www.w3.org/2000/svg" viewBox="0 0 19.93 21.18"><defs><style>.cls-1{fill:#fbc02d}</style></defs><g id="Calque_2" data-name="Calque 2"><g id="Calque_1-2" data-name="Calque 1"><path class="cls-1" d="M2.53 13.26A21.16 21.16 0 0010 14.45a21.16 21.16 0 007.44-1.19c1.86-.73 2.52-1.53 2.52-2V7.7a10.36 10.36 0 01-2.08 1.08 22.29 22.29 0 01-7.88 1.3 22.36 22.36 0 01-7.88-1.3A10.28 10.28 0 010 7.7v3.55c0 .47.66 1.28 2.53 2.01z"/><path class="cls-1" d="M10 21.18c5.5 0 10-1.74 10-3.89v-2.84a10.5 10.5 0 01-1.53.76l-.16.06A23.49 23.49 0 0110 16.63a23.42 23.42 0 01-8.27-1.35l-.16-.06A10.5 10.5 0 010 14.45v2.84c0 2.15 4.46 3.89 10 3.89z"/><ellipse class="cls-1" cx="9.96" cy="3.89" rx="9.96" ry="3.89"/></g></g></svg>