<svg xmlns="http://www.w3.org/2000/svg" viewBox="0 0 460 322.05"><defs><style>.cls-1{fill:#42a5f5}</style></defs><g id="Calque_2" data-name="Calque 2"><g id="Calque_1-2" data-name="Calque 1"><g id="_97-docker" data-name="97-docker"><path class="cls-1" d="M204 52.25h47.51v43.19H204zm0 51.89h47.51v42.69H204zm-56.13-51.89h47.51v43.19h-47.51zm112.33 51.82h47.51v42.69H260.2zM204 0h47.51v43.63H204zM91.74 52.25h47.5v43.19h-47.5zm56.13 51.82h47.51v42.69h-47.51z"/><path class="cls-1" d="M450.44 124.12c-10.35-7-34.21-9.49-52.54-6-2.37-17.25-12-32.27-29.54-45.78l-10.06-6.72-6.68 10.06c-13.23 20-16.82 52.9-2.66 74.6-6.25 3.38-18.55 8-34.79 7.69H1.76c-6.25 36.51 4.17 83.95 31.62 116.5C60 306 100 322.05 152.25 322.05c113.12 0 196.85-52.1 236-146.76 15.38.29 48.58.07 65.62-32.48 1.08-1.8 4.74-9.49 6.11-12.29z"/><path class="cls-1" d="M83.19 104.07H35.68v42.69h47.51v-42.69zm8.55 0h47.5v42.69h-47.5z"/></g></g></g></svg>