<svg xmlns="http://www.w3.org/2000/svg" viewBox="0 0 460 322.05"><defs><style>.cls-1{fill:#42a5f5;}</style></defs><title>docker</title><g id="Calque_2" data-name="Calque 2"><g id="Calque_1-2" data-name="Calque 1"><g id="_97-docker" data-name="97-docker"><rect class="cls-1" x="204" y="52.25" width="47.51" height="43.19"/><rect class="cls-1" x="204" y="104.14" width="47.51" height="42.69"/><rect class="cls-1" x="147.87" y="52.25" width="47.51" height="43.19"/><rect class="cls-1" x="260.2" y="104.07" width="47.51" height="42.69"/><rect class="cls-1" x="204" width="47.51" height="43.63"/><rect class="cls-1" x="91.74" y="52.25" width="47.5" height="43.19"/><rect class="cls-1" x="147.87" y="104.07" width="47.51" height="42.69"/><path class="cls-1" d="M450.44,124.12c-10.35-7-34.21-9.49-52.54-6-2.37-17.25-12-32.27-29.54-45.78L358.3,65.62l-6.68,10.06c-13.23,20-16.82,52.9-2.66,74.6-6.25,3.38-18.55,8-34.79,7.69H1.76c-6.25,36.51,4.17,83.95,31.62,116.5C60,306,100,322.05,152.25,322.05c113.12,0,196.85-52.1,236-146.76,15.38.29,48.58.07,65.62-32.48,1.08-1.8,4.74-9.49,6.11-12.29Z"/><polygon class="cls-1" points="83.19 104.07 83.11 104.07 35.68 104.07 35.68 146.76 83.19 146.76 83.19 104.07"/><rect class="cls-1" x="91.74" y="104.07" width="47.5" height="42.69"/></g></g></g></svg>