<svg xmlns="http://www.w3.org/2000/svg" viewBox="0 0 28 15.75"><defs><style>.cls-1{fill:#96ae60;}</style></defs><title>ejs</title><g id="Calque_2" data-name="Calque 2"><g id="Calque_1-2" data-name="Calque 1"><path class="cls-1" d="M0,9.54V6.2L11.86,0V3.07L3.1,7.81l8.76,4.84v3.1ZM27.81.66,17.47,15.1H13.91L24.28.66ZM24.95,13.37a.79.79,0,0,0,.62-.28,1.06,1.06,0,0,0,.25-.73,1.14,1.14,0,0,0-.25-.75.77.77,0,0,0-1.22,0,1.14,1.14,0,0,0-.25.75,1.09,1.09,0,0,0,.24.73A.76.76,0,0,0,24.95,13.37Zm2.19,1a3.24,3.24,0,0,1-4.35,0,2.86,2.86,0,0,1-.05-4l.05-.05a3.22,3.22,0,0,1,4.35,0A2.77,2.77,0,0,1,28,12.36a2.74,2.74,0,0,1-.87,2.05ZM16.82,4.93a.79.79,0,0,0,.62-.28,1.06,1.06,0,0,0,.25-.73,1.14,1.14,0,0,0-.25-.75.77.77,0,0,0-1.22,0,1.14,1.14,0,0,0-.25.75,1.09,1.09,0,0,0,.24.73A.76.76,0,0,0,16.82,4.93ZM19,6a3.24,3.24,0,0,1-4.35,0,2.86,2.86,0,0,1-.05-4l.05-.05a3.22,3.22,0,0,1,4.35,0,2.77,2.77,0,0,1,.87,2.06A2.74,2.74,0,0,1,19,6Z"/></g></g></svg>