<svg viewBox="0 0 146.45 219.67" xmlns="http://www.w3.org/2000/svg"><path d="m36.61 219.67a36.62 36.62 0 0 0 36.61-36.61v-36.61h-36.61a36.61 36.61 0 0 0 0 73.22z" fill="#0acf83"/><path d="m0 109.84a36.63 36.63 0 0 1 36.61-36.62h36.61v73.23h-36.61a36.62 36.62 0 0 1 -36.61-36.61z" fill="#a259ff"/><path d="m0 36.61a36.62 36.62 0 0 1 36.61-36.61h36.61v73.22h-36.61a36.62 36.62 0 0 1 -36.61-36.61z" fill="#f24e1e"/><path d="m73.22 0h36.62a36.61 36.61 0 0 1 0 73.22h-36.62z" fill="#ff7262"/><path d="m146.45 109.84a36.62 36.62 0 1 1 -36.61-36.62 36.62 36.62 0 0 1 36.61 36.62z" fill="#1abcfe"/></svg>
