<svg xmlns="http://www.w3.org/2000/svg" viewBox="0 0 260.73 208.59"><defs><style>.cls-1{fill:#0277bd;}</style></defs><title>folder-root</title><g id="Calque_2" data-name="Calque 2"><g id="root"><path class="cls-1" d="M234.66,20.91H130.37c.74,0-25.8-20.91-26.07-20.91H26.07A26,26,0,0,0,.13,26.07L0,182.51a26.06,26.06,0,0,0,26.07,26.07H234.66a26.06,26.06,0,0,0,26.07-26.07V47A26.07,26.07,0,0,0,234.66,20.91ZM117.2,149c-7.86,0-13.22-5.81-13.22-13.34s5.36-13.45,13.22-13.45,13.22,5.93,13.22,13.45S125.06,149,117.2,149Zm56.65,16.87h-14l37.5-99.17h14Z"/></g></g></svg>