<svg xmlns="http://www.w3.org/2000/svg" viewBox="0 0 260.93 208.43"><defs><style>.cls-1{fill:#96ae60;}</style></defs><title>folder-git-node-outline</title><g id="Calque_2" data-name="Calque 2"><g id="node"><path class="cls-1" d="M234.88,20.9H130.66L104.21,0H26.05A25.94,25.94,0,0,0,.13,26.05L0,182.38a26,26,0,0,0,26.05,26.05H234.48a26,26,0,0,0,26.05-26.05l.4-135.43A26,26,0,0,0,234.88,20.9ZM26.45,46.95h103L85.88,72.09a12,12,0,0,0-6,10.45v66a12.07,12.07,0,0,0,6,10.43l15,8.62a24.45,24.45,0,0,0,13.17,3.58c10.75,0,16.93-6.49,16.93-17.83V88.17a1.67,1.67,0,0,0-1.67-1.67h-7.24a1.67,1.67,0,0,0-1.67,1.67V153.3c0,5-5.2,10-13.7,5.78L91,150a1.76,1.76,0,0,1-.9-1.53v-66A1.84,1.84,0,0,1,91,81l57.13-33a1.8,1.8,0,0,1,1.77,0L207.1,81a1.84,1.84,0,0,1,.89,1.58v66a1.8,1.8,0,0,1-.87,1.55l-55.94,32.29H147l-13.47-8a1.47,1.47,0,0,0-1.42-.11,38,38,0,0,1-8.63,3.9c-.94.33-2.33.89.52,2.48l2.91,1.72H26.05Zm208,135.43H171.64l40.58-23.43a12.1,12.1,0,0,0,6-10.43v-66a12.06,12.06,0,0,0-6-10.42L168.67,46.95h66.2Z"/><path class="cls-1" d="M168.5,147.52c18.11,0,28.5-7.13,28.5-19.59s-8.35-15.63-25.91-18c-17.75-2.35-19.56-3.56-19.56-7.72,0-3.43,1.53-8,14.68-8,11.7,0,16.05,2.53,17.83,10.45a1.67,1.67,0,0,0,1.6,1.29h7.55a1.67,1.67,0,0,0,1.54-1.79c-1.15-13.64-10.21-20-28.53-20-16.3,0-26,6.88-26,18.41,0,12.5,9.67,16,25.32,17.52,18.71,1.83,20.17,4.57,20.17,8.25,0,6.39-5.13,9.11-17.17,9.11-15.12,0-18.46-3.79-19.57-11.32a1.67,1.67,0,0,0-1.64-1.4h-7.39a1.67,1.67,0,0,0-1.67,1.67C138.21,136.07,143.46,147.55,168.5,147.52Z"/></g></g></svg>