<svg xmlns="http://www.w3.org/2000/svg" viewBox="0 0 260.73 208.59"><defs><style>.cls-1{fill:#82c5a9;}</style></defs><title>folder-build</title><g id="Calque_2" data-name="Calque 2"><g id="build"><circle class="cls-1" cx="169.74" cy="114.5" r="22.75"/><path class="cls-1" d="M234.66,20.91H130.37c.74,0-25.8-20.91-26.07-20.91H26.07A26,26,0,0,0,.13,26.07L0,182.51a26.06,26.06,0,0,0,26.07,26.07H234.66a26.06,26.06,0,0,0,26.07-26.07V47A26.07,26.07,0,0,0,234.66,20.91Zm-10.52,84.68c.1.63.19,1.27.27,1.91l0,.26c0,.08,0,.16,0,.24s0,.31,0,.46,0,.25,0,.38v.09l0,.16c0,.25.05.5.07.75s0,.28,0,.41,0,.1,0,.15c0,.47.05.94.08,1.41,0,.24,0,.47,0,.71s0,.77,0,1.15c0,0,0,.07,0,.11,0,.19,0,.39,0,.58s0,.1,0,.15,0,.09,0,.13q0,1.32-.07,2.64s0,.08,0,.12q-.07,1.34-.2,2.67v.13q-.13,1.28-.32,2.56c0,.08,0,.16,0,.25s-.06.4-.09.6l13.17,9.78a6.54,6.54,0,0,1,2.4,8.93l-10.9,18.88a6.54,6.54,0,0,1-8.93,2.39l-15.05-6.51-.44.35-.26.21c-.65.52-1.31,1-2,1.51l-.17.13c-.6.43-1.2.85-1.81,1.25l-.34.22-.16.1q-1.08.7-2.2,1.34l-.14.08-.08,0-.16.1-.49.28-1,.52-1.29.67-.61.3-.17.08h0l-.15.07c-.52.25-1.05.48-1.59.72l-.35.15q-.9.38-1.81.73l-.27.11-.27.11-1.89,16.3a6.54,6.54,0,0,1-6.54,6.54h-21.8a6.54,6.54,0,0,1-6.54-6.54l-1.88-16.3a55.34,55.34,0,0,1-5.24-2.29l-.11-.06q-1.68-.85-3.3-1.8l-.45-.26c-.86-.52-1.7-1.06-2.53-1.63l-.28-.19-.06,0-.71-.49-.29-.21-.06,0-.6-.45-.46-.34-.78-.6-.49-.39h0l-.06,0-.32-.24-15.05,6.51a6.54,6.54,0,0,1-8.93-2.39l-10.9-18.88a6.54,6.54,0,0,1,2.39-8.93l13.17-9.78s0-.08,0-.12q-.18-1.07-.31-2.14v0c-.06-.48-.11-1-.15-1.45,0-.21,0-.43-.06-.65s0-.33,0-.5,0-.1,0-.15c0-.34,0-.68-.06-1s0-.81-.06-1.21,0-.63,0-.94c0-.09,0-.19,0-.28s0-.17,0-.26,0-.23,0-.35,0-.21,0-.32q0-1.14.06-2.29c0-.15,0-.3,0-.45s0-.11,0-.17v-.16c0-.67.1-1.34.16-2l0-.44c.08-.75.18-1.5.29-2.25l.08-.54c0-.16,0-.32.07-.47l-13.17-9.78a6.54,6.54,0,0,1-2.39-8.94l10.9-18.87a6.54,6.54,0,0,1,8.93-2.39L134.67,72l.42-.33.33-.26q.94-.75,1.92-1.45l.24-.18q.87-.62,1.76-1.21l.07,0,.24-.16.24-.15q1-.67,2.11-1.29l.19-.11.11-.06,0,0,.59-.34.95-.51,1.32-.68.58-.29.21-.1.17-.08,1.6-.72.32-.14c.59-.25,1.19-.5,1.79-.73l.31-.12.26-.1,1.89-16.32A6.54,6.54,0,0,1,158.84,40h21.79a6.54,6.54,0,0,1,6.54,6.54l1.89,16.32.59.24.13.05q2.33.91,4.55,2l.07,0c1.14.57,2.26,1.18,3.35,1.83l.39.23c.51.31,1,.63,1.51.95l.1.07.91.61.27.18.16.11.62.43.24.18.44.33.25.19.54.4.65.5.59.46.12.09.26.2,15.07-6.53a6.54,6.54,0,0,1,8.93,2.39L239.7,86.7a6.54,6.54,0,0,1-2.39,8.93l-13.19,9.79C224.13,105.48,224.14,105.53,224.14,105.59Z"/></g></g></svg>