<svg xmlns="http://www.w3.org/2000/svg" viewBox="0 0 260.93 208.43"><defs><style>.cls-1{fill:#0277bd}</style></defs><g id="Calque_2" data-name="Calque 2"><g id="root"><path class="cls-1" d="M234.88 20.9H130.66L104.21 0H26.05A25.94 25.94 0 00.13 26.05L0 182.38a26 26 0 0026.05 26.05h208.43a26 26 0 0026.05-26.05l.4-135.43a26 26 0 00-26.05-26.05zm-.4 161.48H26.05l.4-135.43h208.43z"/><path class="cls-1" d="M117.3 148.9c7.86 0 13.22-5.81 13.22-13.34s-5.36-13.45-13.22-13.45-13.22 5.93-13.22 13.45 5.35 13.34 13.22 13.34zm94.15-82.3h-14.02l-37.5 99.17h14.02l37.5-99.17z"/></g></g></svg>