<svg xmlns="http://www.w3.org/2000/svg" viewBox="0 0 260.93 208.43"><defs><style>.cls-1{fill:#82c5a9;}</style></defs><title>folder-build-outline</title><g id="Calque_2" data-name="Calque 2"><g id="build"><path class="cls-1" d="M234.88,20.9H130.66L104.21,0H26.05A25.94,25.94,0,0,0,.13,26.05L0,182.38a26,26,0,0,0,26.05,26.05H234.48a26,26,0,0,0,26.05-26.05l.4-135.43A26,26,0,0,0,234.88,20.9ZM225,114.28c0-.19,0-.39,0-.58,0,0,0-.07,0-.11,0-.38,0-.77,0-1.15s0-.47,0-.71c0-.47,0-.94-.08-1.41,0,0,0-.1,0-.15s0-.28,0-.41-.05-.5-.07-.75l0-.16v-.09c0-.12,0-.25,0-.38s0-.31,0-.46,0-.16,0-.24l0-.26c-.08-.64-.17-1.28-.27-1.91,0-.06,0-.11,0-.17l10.51-7.8-.1,33.71-10.41-7.73c0-.2.06-.4.09-.6s0-.17,0-.25q.19-1.28.32-2.56V120q.13-1.33.2-2.67s0-.08,0-.12q.06-1.32.07-2.64s0-.09,0-.13S225,114.33,225,114.28Zm9.83-36.34L228.9,67.74A6.54,6.54,0,0,0,220,65.35L204.9,71.88l-.26-.2-.12-.09-.59-.46-.65-.5-.54-.4-.25-.19-.44-.33-.24-.18-.62-.43L201,69l-.27-.18-.91-.61-.1-.07c-.5-.32-1-.64-1.51-.95l-.39-.23c-1.1-.65-2.21-1.26-3.35-1.83l-.07,0q-2.22-1.11-4.55-2l-.13-.05-.59-.24-1.83-15.84h47.55Zm-64.94,59.24a22.75,22.75,0,1,1,22.75-22.75A22.75,22.75,0,0,1,169.84,137.17ZM26.45,46.95H152.34l-1.83,15.84-.26.1-.31.12c-.6.23-1.2.47-1.79.73l-.32.14-1.6.72-.17.08-.21.1-.58.29-1.32.68-.95.51-.59.34,0,0-.11.06-.19.11q-1.07.62-2.11,1.29l-.24.15-.24.16-.07,0q-.89.59-1.76,1.21l-.24.18q-1,.7-1.92,1.45l-.33.26-.42.33-15.05-6.52a6.54,6.54,0,0,0-8.93,2.39L99.88,86.63a6.54,6.54,0,0,0,2.39,8.94l13.17,9.78c0,.16,0,.32-.07.47l-.08.54c-.11.75-.21,1.5-.29,2.25l0,.44c-.07.67-.12,1.34-.16,2v.16c0,.06,0,.11,0,.17s0,.3,0,.45q-.05,1.15-.06,2.29c0,.11,0,.21,0,.32s0,.23,0,.35,0,.17,0,.26,0,.18,0,.28c0,.31,0,.63,0,.94s0,.81.06,1.21,0,.68.06,1c0,0,0,.1,0,.15s0,.34,0,.5,0,.43.06.65c0,.49.09,1,.15,1.45v0q.13,1.08.31,2.14s0,.08,0,.13l-13.17,9.78a6.54,6.54,0,0,0-2.39,8.93l10.9,18.88a6.54,6.54,0,0,0,8.93,2.39L134.77,157l.32.24.06,0h0l.49.39.78.6.46.34.6.45.06,0,.29.21.71.49.06,0,.28.19c.83.56,1.67,1.11,2.53,1.63l.45.26q1.62,1,3.3,1.8l.11.06a55.34,55.34,0,0,0,5.24,2.29l1.88,16.29H26.05ZM187.27,182.38l1.88-16.29.27-.11.27-.11q.91-.35,1.81-.73l.35-.15c.53-.23,1.06-.47,1.59-.72l.15-.07h0l.17-.08.61-.3,1.29-.67,1-.52.49-.28.16-.1.08,0,.14-.08q1.11-.65,2.2-1.34l.16-.1.34-.22c.61-.4,1.21-.82,1.81-1.25l.17-.13c.67-.49,1.33-1,2-1.51l.26-.21.44-.35L220,163.51a6.54,6.54,0,0,0,8.93-2.39l5.69-9.85-.09,31.11Z"/></g></g></svg>