<svg xmlns="http://www.w3.org/2000/svg" viewBox="0 0 260.93 208.43"><defs><style>.cls-1{fill:#e64a19;}</style></defs><title>folder-git-outline</title><g id="Calque_2" data-name="Calque 2"><g id="git"><path class="cls-1" d="M234.88,20.9H130.66L104.21,0H26.05A25.94,25.94,0,0,0,.13,26.05L0,182.38a26,26,0,0,0,26.05,26.05H234.48a26,26,0,0,0,26.05-26.05l.4-135.43A26,26,0,0,0,234.88,20.9Zm-.18,86.45L174.31,46.95h60.57ZM26.45,46.95H160.64L148,59.6,164.43,76a10.93,10.93,0,0,1,13.84,13.84l15.83,15.83a10.93,10.93,0,1,1-6.54,6.18L172.71,97.19v38.92a10.93,10.93,0,1,1-8.94-.26V96.52a11,11,0,0,1-6-14.3L141.6,66l-42.8,42.8a9.19,9.19,0,0,0,0,13l0,0,60.57,60.57H26.05ZM176.08,182.38l58.57-58.57-.17,58.57Z"/></g></g></svg>