<svg xmlns="http://www.w3.org/2000/svg" viewBox="0 0 260.73 208.59"><defs><style>.cls-1{fill:#96ae60;}</style></defs><title>folder-git-node</title><g id="Calque_2" data-name="Calque 2"><g id="node"><path class="cls-1" d="M234.66,20.91H130.37c.74,0-25.8-20.91-26.07-20.91H26.07A26,26,0,0,0,.13,26.07L0,182.51a26.06,26.06,0,0,0,26.07,26.07H234.66a26.06,26.06,0,0,0,26.07-26.07V47A26.07,26.07,0,0,0,234.66,20.91ZM218.13,148.59a12.1,12.1,0,0,1-6,10.43L155,192a12,12,0,0,1-12,0l-19.08-11.29c-2.85-1.59-1.46-2.16-.52-2.48a38,38,0,0,0,8.63-3.9,1.47,1.47,0,0,1,1.42.11l14.66,8.71a1.89,1.89,0,0,0,1.77,0l57.16-33a1.8,1.8,0,0,0,.87-1.55v-66A1.84,1.84,0,0,0,207,81l-57.16-33a1.8,1.8,0,0,0-1.77,0l-57.13,33a1.84,1.84,0,0,0-.9,1.57v66a1.76,1.76,0,0,0,.9,1.53l15.68,9c8.5,4.25,13.7-.76,13.7-5.78V88.25A1.67,1.67,0,0,1,122,86.58h7.24a1.67,1.67,0,0,1,1.67,1.67v65.14c0,11.34-6.17,17.83-16.93,17.83a24.45,24.45,0,0,1-13.17-3.58l-15-8.62a12.07,12.07,0,0,1-6-10.43v-66a12,12,0,0,1,6-10.45l57.17-33a12.51,12.51,0,0,1,12,0l57.16,33a12.06,12.06,0,0,1,6,10.42Zm-52.73-28.4c-15.64-1.55-25.32-5-25.32-17.52,0-11.53,9.72-18.41,26-18.41,18.31,0,27.38,6.36,28.53,20a1.67,1.67,0,0,1-1.54,1.79h-7.55a1.67,1.67,0,0,1-1.6-1.29c-1.78-7.92-6.13-10.45-17.83-10.45-13.15,0-14.68,4.58-14.68,8,0,4.16,1.81,5.37,19.56,7.72,17.57,2.32,25.91,5.61,25.91,18s-10.39,19.59-28.5,19.59c-25,0-30.29-11.45-30.29-21.08a1.67,1.67,0,0,1,1.67-1.67h7.39a1.67,1.67,0,0,1,1.64,1.4c1.11,7.53,4.46,11.32,19.57,11.32,12,0,17.17-2.72,17.17-9.11C185.57,124.76,184.11,122,165.4,120.19Z"/></g></g></svg>