<svg xmlns="http://www.w3.org/2000/svg" viewBox="0 0 260.93 208.43"><defs><style>.cls-1{fill:#42a5f5;}</style></defs><title>folder-git-vsc-outline</title><g id="Calque_2" data-name="Calque 2"><g id="vsc"><path class="cls-1" d="M234.88,20.9H130.66L104.21,0H26.05A25.94,25.94,0,0,0,.13,26.05L0,182.38a26,26,0,0,0,26.05,26.05H234.48a26,26,0,0,0,26.05-26.05l.4-135.43A26,26,0,0,0,234.88,20.9ZM190.6,146l-42-31.81,42-32.08ZM26.45,46.95H181.91L126.45,97.43,101,78.19c-2.94-2.55-5.71.38-5.71.38l-9.71,8.68c-4.17,3.34-.69,5.84-.69,5.84L108,114,84.93,135s-2.37,1.76,0,4.92l10.72,9.75s2.55,2.73,6.31-.38l24.47-18.56,56.83,51.61H26.05Zm208,135.43H194.35l28.09-13.84c4.22-2.88,3.63-6.45,3.63-6.45V65c0-4.27-4.37-5.74-4.37-5.74L196.16,46.95h38.72Z"/></g></g></svg>