<svg xmlns="http://www.w3.org/2000/svg" viewBox="0 0 260.93 208.43"><defs><style>.cls-1{fill:none;}.cls-2{fill:#99425b;}</style></defs><title>folder-jest-outline</title><g id="Calque_2" data-name="Calque 2"><g id="jest"><path class="cls-1" d="M210,99.88a13.43,13.43,0,0,1,1.42-.08,13.28,13.28,0,0,1,10.19,21.81,23.67,23.67,0,0,1,4.23,18,22.62,22.62,0,0,1-11.11,15.75c-8,4.64-18,4.29-27.12,6.53-25.11,6.2-48.92,30.82-70.87,15.62-9.42-6.56-11.24-18.12-9.42-29,1.52-9.1,6.36-16.94,9.65-24.44a13.28,13.28,0,1,1,10.65,2.06c-.38.93-.78,1.86-1.17,2.78-3.44,8.12.39,17.41,8.51,21.57a53.49,53.49,0,0,0,18.64-11.56,58,58,0,0,0,10.47-13.16,13.29,13.29,0,0,1,4-25.95l.83,0L151,46.95H26.45l-.4,135.43H234.48l.4-135.43h-6.94Z"/><path class="cls-1" d="M181.33,112.16a146.59,146.59,0,0,1,16.83,0A13.27,13.27,0,0,1,204,102L189.49,72.36,175,101.72A13.28,13.28,0,0,1,181.33,112.16Z"/><path class="cls-2" d="M234.88,20.9H130.66L104.21,0H26.05A25.94,25.94,0,0,0,.13,26.05L0,182.38a26,26,0,0,0,26.05,26.05H234.48a26,26,0,0,0,26.05-26.05l.4-135.43A26,26,0,0,0,234.88,20.9Zm-.4,161.48H26.05l.4-135.43H151l17.94,52.88-.83,0a13.29,13.29,0,0,0-4,25.95,58,58,0,0,1-10.47,13.16A53.49,53.49,0,0,1,135,150.47c-8.12-4.16-12-13.45-8.51-21.57.39-.92.79-1.86,1.17-2.78A13.29,13.29,0,1,0,117,124.06c-3.29,7.49-8.13,15.33-9.65,24.44-1.82,10.88,0,22.44,9.42,29,22,15.2,45.77-9.42,70.87-15.62,9.09-2.24,19.1-1.88,27.12-6.53a22.62,22.62,0,0,0,11.11-15.75,23.67,23.67,0,0,0-4.23-18A13.28,13.28,0,0,0,211.41,99.8a13.43,13.43,0,0,0-1.42.08l17.95-52.93h6.94ZM204,102a13.27,13.27,0,0,0-5.87,10.12,146.59,146.59,0,0,0-16.83,0A13.28,13.28,0,0,0,175,101.72l14.52-29.37Z"/></g></g></svg>