<svg xmlns="http://www.w3.org/2000/svg" viewBox="0 0 260.73 208.59"><defs><style>.cls-1{fill:#42a5f5}</style></defs><g id="Calque_2" data-name="Calque 2"><g id="vsc"><path class="cls-1" d="M190.5 146.08v-63.9l-42.01 32.09 42.01 31.81zm-7.84-99.83a8.53 8.53 0 011.38-.69 6 6 0 00-1.38.69z"/><path class="cls-1" d="M234.66 20.91H130.37c.74 0-25.8-20.91-26.07-20.91H26.07A26 26 0 00.13 26.07L0 182.51a26.06 26.06 0 0026.07 26.07h208.59a26.06 26.06 0 0026.07-26.07V47a26.07 26.07 0 00-26.07-26.09zm-12.32 147.7l-33 16.26a5.82 5.82 0 01-5.44-1.69l-.22-.24-57.36-52.09-24.47 18.56c-3.76 3.11-6.31.38-6.31.38L84.83 140c-2.37-3.15 0-4.92 0-4.92l23.08-21-23.08-21s-3.47-2.5.69-5.84l9.71-8.68s2.78-2.92 5.71-.38l25.4 19.23 56.32-51.26s4.09-4.56 10.34-.69l28.6 13.78s4.4 1.57 4.4 5.84v97.08s.56 3.57-3.66 6.45z"/></g></g></svg>