<svg xmlns="http://www.w3.org/2000/svg" viewBox="0 0 260.73 208.59"><defs><style>.cls-1{fill:#e64a19;}</style></defs><title>folder-git</title><g id="Calque_2" data-name="Calque 2"><g id="git"><path class="cls-1" d="M234.66,20.91H130.37c.74,0-25.8-20.91-26.07-20.91H26.07A26,26,0,0,0,.13,26.07L0,182.51a26.06,26.06,0,0,0,26.07,26.07H234.66a26.06,26.06,0,0,0,26.07-26.07V47A26.07,26.07,0,0,0,234.66,20.91Zm1.64,101.23L174.14,184.3l0,0a9.19,9.19,0,0,1-13,0L98.7,121.88l0,0a9.19,9.19,0,0,1,0-13l42.8-42.8L157.69,82.3a11,11,0,0,0,6,14.3v39.33a10.93,10.93,0,1,0,8.94.26V97.27L187.47,112A10.93,10.93,0,1,0,194,105.8L178.17,90a10.93,10.93,0,0,0-13.84-13.84L147.89,59.68l13-13,0,0a9.19,9.19,0,0,1,13,0l62.41,62.41,0,0A9.19,9.19,0,0,1,236.3,122.14Z"/></g></g></svg>