<svg xmlns="http://www.w3.org/2000/svg" viewBox="0 0 260.93 208.43"><defs><style>.cls-1{fill:#0277bd;}</style></defs><title>folder-root-outline</title><g id="Calque_2" data-name="Calque 2"><g id="root"><path class="cls-1" d="M234.88,20.9H130.66L104.21,0H26.05A25.94,25.94,0,0,0,.13,26.05L0,182.38a26,26,0,0,0,26.05,26.05H234.48a26,26,0,0,0,26.05-26.05l.4-135.43A26,26,0,0,0,234.88,20.9Zm-.4,161.48H26.05l.4-135.43H234.88Z"/><path class="cls-1" d="M117.3,148.9c7.86,0,13.22-5.81,13.22-13.34s-5.36-13.45-13.22-13.45-13.22,5.93-13.22,13.45S109.43,148.9,117.3,148.9Z"/><polygon class="cls-1" points="211.45 66.6 197.43 66.6 159.93 165.77 173.95 165.77 211.45 66.6"/></g></g></svg>