<svg xmlns="http://www.w3.org/2000/svg" viewBox="0 0 260.73 208.59"><defs><style>.cls-1{fill:#42a5f5;}</style></defs><title>folder-git-vsc</title><g id="Calque_2" data-name="Calque 2"><g id="vsc"><polygon class="cls-1" points="190.5 146.08 190.5 82.18 148.49 114.27 190.5 146.08"/><path class="cls-1" d="M182.66,46.25a8.53,8.53,0,0,1,1.38-.69A6,6,0,0,0,182.66,46.25Z"/><path class="cls-1" d="M234.66,20.91H130.37c.74,0-25.8-20.91-26.07-20.91H26.07A26,26,0,0,0,.13,26.07L0,182.51a26.06,26.06,0,0,0,26.07,26.07H234.66a26.06,26.06,0,0,0,26.07-26.07V47A26.07,26.07,0,0,0,234.66,20.91Zm-12.32,147.7-33,16.26a5.82,5.82,0,0,1-5.44-1.69l-.22-.24-57.36-52.09-24.47,18.56c-3.76,3.11-6.31.38-6.31.38L84.83,140c-2.37-3.15,0-4.92,0-4.92l23.08-21-23.08-21s-3.47-2.5.69-5.84l9.71-8.68s2.78-2.92,5.71-.38l25.4,19.23,56.32-51.26s4.09-4.56,10.34-.69l28.6,13.78S226,60.81,226,65.08v97.08S226.56,165.73,222.34,168.61Z"/></g></g></svg>