<svg xmlns="http://www.w3.org/2000/svg" viewBox="0 0 28 28"><defs><style>.cls-1{fill:#e64a19;}</style></defs><title>git</title><g id="Calque_2" data-name="Calque 2"><g id="Calque_1-2" data-name="Calque 1"><path class="cls-1" d="M27.47,12.75,15.25.53a1.8,1.8,0,0,0-2.55,0h0L10.16,3.07l3.22,3.22A2.14,2.14,0,0,1,16.09,9l3.1,3.1a2.14,2.14,0,1,1-1.28,1.21L15,10.43v7.62A2.14,2.14,0,1,1,13.25,18V10.3a2.15,2.15,0,0,1-1.17-2.8h0L8.91,4.32.53,12.7a1.8,1.8,0,0,0,0,2.55h0L12.75,27.47a1.8,1.8,0,0,0,2.55,0h0L27.47,15.3a1.8,1.8,0,0,0,0-2.55h0"/></g></g></svg>