<?xml version="1.0" encoding="UTF-8" standalone="no"?>
<svg
   viewBox="0 0 244.18216 235.38167"
   version="1.1"
   id="svg7"
   xml:space="preserve"
   width="244.18216"
   height="235.38167"
   xmlns="http://www.w3.org/2000/svg"
   xmlns:svg="http://www.w3.org/2000/svg"><defs
     id="defs7" /><path
     id="path8"
     style="fill:#fca227;fill-opacity:1;stroke-width:0.671209"
     d="m 168.62275,202.68101 c -0.0618,0 -3.49866,-2.56249 -7.63632,-5.69479 -4.13765,-3.1323 -13.26714,-10.03436 -20.28834,-15.33818 -7.02123,-5.30382 -14.07253,-10.63275 -15.66986,-11.84186 l -2.90377,-2.19848 -6.75404,5.10487 c -3.71438,2.80753 -7.87769,5.95319 -9.25141,6.99001 -1.37372,1.03682 -3.40468,2.57217 -4.51362,3.41241 -1.10895,0.84025 -4.954914,3.75004 -8.546118,6.46695 -3.591204,2.71691 -7.453624,5.641 -8.584142,6.4971 -1.130511,0.8561 -3.58072,2.71082 -5.444393,4.12164 l -3.388822,2.56423 10.773432,8.2446 c 14.959863,11.44837 29.348033,22.21434 29.930423,22.61398 1.17985,0.80965 2.84303,1.46884 4.26061,1.68982 0.36632,0.0568 1.21487,0.0841 1.88646,0.059 1.80907,-0.0676 3.37265,-0.52561 4.89905,-1.43287 0.65649,-0.39021 3.78767,-2.74788 29.84652,-22.48551 7.87597,-5.96546 11.52762,-8.77292 11.38434,-8.77292 z" /><path
     id="path9"
     style="fill:#fc6d27;fill-opacity:1;stroke-width:0.671209"
     d="m 4.2445573,92.562228 c -1.590474,4.017194 -2.897415,8.896862 -3.56842091,13.320622 -0.81239945,5.35592 -0.89638585,11.39845 -0.23203905,16.76318 1.93963636,15.66295 9.67198966,29.87622 21.73171066,39.95006 0.628784,0.52525 12.915595,9.7784 27.304582,20.56234 l 26.161432,19.60665 3.388821,-2.56423 c 1.863673,-1.41081 4.313882,-3.26554 5.444393,-4.12164 1.130518,-0.85609 4.992938,-3.78019 8.584142,-6.49709 3.591204,-2.71691 7.437172,-5.6267 8.546122,-6.46695 1.10893,-0.84024 3.1399,-2.3756 4.51362,-3.41242 1.37371,-1.03682 5.53703,-4.18247 9.25141,-6.99001 l 6.75404,-5.10486 2.90377,2.19847 c 1.59733,1.20912 8.64863,6.53804 15.66985,11.84186 7.02121,5.30383 16.1507,12.20588 20.28835,15.33818 4.13766,3.1323 7.5745,5.69479 7.63631,5.69479 0.14329,0 52.03159,-38.89895 53.22218,-39.89893 6.67681,-5.60786 11.76256,-11.9683 15.58595,-19.48997 3.85103,-7.57608 5.99724,-15.26991 6.65703,-23.86595 0.12572,-1.63804 0.12586,-6.86011 0,-8.65887 -0.39098,-5.58786 -1.49793,-12.026683 -3.68509,-16.992598 l -0.68825,-1.562663 -0.26875,0.09177 -2.1893,0.488989 c -11.76858,2.62857 -22.73389,7.175321 -33.10425,13.449092 -2.23638,1.35295 -5.62228,3.60003 -7.5747,5.0262 -0.79128,0.57801 -17.84356,13.46517 -37.89317,28.63782 -20.04961,15.17265 -36.49502,27.58644 -36.54551,27.58644 -0.0505,0 -2.32284,-1.68613 -5.0498,-3.74671 -2.72695,-2.06057 -8.17125,-6.17616 -12.09881,-9.14522 -3.92755,-2.96907 -11.586329,-8.75855 -17.020137,-12.86572 -5.433815,-4.10718 -11.178682,-8.45017 -12.766085,-9.65125 C 57.69768,118.83782 48.28785,111.74455 46.952868,110.78845 37.107482,103.73724 25.927058,98.229872 14.316629,94.710883 12.325085,94.107271 8.0164096,92.949268 6.9896984,92.74183 6.1738657,92.577008 4.4874102,92.196359 4.4569319,92.170249 c -0.054918,-0.04705 0.065604,-0.310146 -0.2123746,0.391979 z" /><path
     style="fill:#e24329;fill-opacity:1;stroke-width:0.671209"
     d="m 117.0894,163.74598 c -2.72696,-2.06058 -8.17156,-6.17573 -12.09912,-9.14479 -3.92756,-2.96907 -11.586866,-8.75872 -17.020674,-12.8659 C 82.535792,137.62812 76.79116,133.285 75.203757,132.08392 57.697479,118.83814 48.287357,111.74512 46.952374,110.78901 37.106988,103.73781 25.92663,98.229818 14.316201,94.710829 12.324657,94.107218 8.0164244,92.949543 6.9897132,92.742106 6.1738805,92.577283 4.4872652,92.196762 4.4567869,92.170651 4.4016471,92.123398 37.729299,5.3236451 38.041982,4.7001387 38.975189,2.839258 40.586619,1.3532746 42.516864,0.57361805 c 1.165101,-0.47061165 2.121999,-0.61776757 3.658459,-0.56263444 1.172226,0.04208482 1.543499,0.10251379 2.392097,0.38950273 2.291252,0.77486406 3.959002,2.19947886 4.968474,4.24415006 0.3231,0.654429 3.935374,11.5812526 11.788401,35.6589106 l 11.322555,34.715345 45.47839,0.002 45.47838,0.002 0.72071,-2.192398 c 0.39638,-1.205821 5.5241,-16.903653 11.39492,-34.884074 6.82613,-20.906228 10.81315,-32.956904 11.05959,-33.4273949 1.02879,-1.9641126 2.79954,-3.4271743 5.03445,-4.15964477 0.85684,-0.28082053 1.09659,-0.30983019 2.60867,-0.31561601 1.44811,-0.0053697 1.77311,0.02751957 2.49375,0.25383791 1.57961,0.49601021 2.71022,1.17390467 3.78404,2.26884837 0.93886,0.9573189 1.53361,1.975503 2.25115,3.8538687 0.33819,0.8852847 7.86162,20.5374657 16.71875,43.6715117 8.85712,23.134046 16.0773,42.088458 16.04485,42.120918 -0.0325,0.03249 -0.15341,0.07342 -0.26879,0.09102 -0.11537,0.01759 -1.10067,0.237722 -2.18953,0.489144 -11.74942,2.712974 -22.73365,7.175616 -33.10402,13.449387 -2.23638,1.35295 -5.62229,3.59939 -7.57471,5.02556 -0.79128,0.57801 -17.84292,13.4649 -37.89253,28.63755 -20.04961,15.17265 -36.49514,27.58664 -36.54563,27.58664 -0.0505,0 -2.32294,-1.68593 -5.04989,-3.74651 z"
     id="path10" /></svg>
