<svg viewBox="0 0 19 19" xmlns="http://www.w3.org/2000/svg" fill-rule="evenodd" clip-rule="evenodd" stroke-linejoin="round" stroke-miterlimit="1.414"><path fill="none" d="M.116.502h18v18h-18z"/><path d="M3.798 3.318c3.474-1.751 6.968-1.76 10.48.002a2.021 2.021 0 012.838 1.844c0 .805-.472 1.5-1.154 1.824v8.848c-4.68 1.555-9.294 1.534-13.842 0V6.988a2.019 2.019 0 011.678-3.67z" fill="#92e3e4"/><path d="M10.616 10.168c0-.37-.3-.67-.67-.67h-1.66c-.37 0-.67.3-.67.67v2.16c0 .37.3.67.67.67h1.66c.37 0 .67-.3.67-.67v-2.16z" fill="#fff"/><path d="M9.116 8.002c1.518 0 2.745.824 2.75 1.84.011 2.642-1.084.368-2.602.368-1.518 0-2.898 1.66-2.898-.368 0-1.016 1.232-1.84 2.75-1.84z" fill="#ffa699"/><g fill="#fff"><circle cx="5.491" cy="6.502" r="2.25"/><circle cx="12.741" cy="6.502" r="2.25"/></g><circle cx="6.117" cy="6.001" r=".999" fill="#333"/><circle cx="13.615" cy="6.001" r=".999" fill="#333"/><ellipse cx="9.241" cy="8.644" rx="1.125" ry=".643" fill="#333"/></svg>