<svg xmlns="http://www.w3.org/2000/svg" viewBox="0 0 92.09 123.69"><defs><style>.cls-1{fill:#d28445;}</style></defs><title>grunt</title><g id="Calque_2" data-name="Calque 2"><g id="Calque_1-2" data-name="Calque 1"><path class="cls-1" d="M81.36,65.08A45.5,45.5,0,0,0,89.19,60c4.16-3.68,3.74-8.94-.59-12.4-.71-.56-1.71-1.16-1.9-1.91-.86-3.39-1.63-6.81.46-10.14A16.46,16.46,0,0,0,89,31.33c1.17-4.11-.79-7.51-4.9-8.72-.7-.21-1.47-.21-2.15-.46-.43-.16-1-.55-1.09-.92-.77-4.11-.25-5.84,3-7.68a29.82,29.82,0,0,1,5-1.88c.65-.23,1.33-.34,2.06-.52C87,5.79,80.26,3.53,73.53,5.2,68.25,6.51,64.45,9.91,61,13.89a2.67,2.67,0,0,1-1.7.93c-1.59,0-1.93-1.15-1.66-2.4.54-2.43,1.24-4.83,1.89-7.29-3-.08-5.3,1.83-7.93,3.67a36,36,0,0,1-.8-4.36A37.59,37.59,0,0,1,51.06,0c-4.63,1.67-8.17,4.31-9.16,9.49h-.6L39.91,3A12.48,12.48,0,0,0,38.26,4.1a13.85,13.85,0,0,0-4.87,9.42c0,.46-.37,1.25-.62,1.27a2.17,2.17,0,0,1-1.47-.61c-.76-.71-1.36-1.59-2.08-2.34-4.34-4.56-9.44-7.53-16-7.13C8.34,5,4.14,6.85,1.32,10.91a63.59,63.59,0,0,1,7,2.73c2.75,1.44,3.39,3.49,3.08,6.47-.17,1.67-1,2-2.4,2.27-5,.78-7.36,4.62-5.89,9.44a8.41,8.41,0,0,0,1.25,2.85c2.28,2.81,1.78,6,1.48,9.16a4.8,4.8,0,0,1-2.06,3.51c-5,3.89-5.15,9.32-.18,13.35a38.92,38.92,0,0,0,6.7,4.18c3.19,1.64,4.46,4.28,4.45,7.66,0,2.77-.13,5.54-.29,8.3-.11,2-.37,3.92-.57,5.88l-.56.15A47.52,47.52,0,0,1,10,82.15a46.23,46.23,0,0,1-2.22-5.33C.36,82.93.16,100.46,12,105.86a7.73,7.73,0,0,1,3.64,3.34,19.39,19.39,0,0,0,14,9.61,4.82,4.82,0,0,1,1.83.74c8.16,5.49,21.06,5.51,29.18,0a4.29,4.29,0,0,1,1.64-.75c6.82-1.08,11.67-4.85,15-10.82a3.16,3.16,0,0,1,1.35-1.37c7-2.9,10.43-8.3,10.89-15.71a17.62,17.62,0,0,0-5.28-14.41,16,16,0,0,1-6.28,10.22c-.18-5.16-.49-10.31-.48-15.47A7,7,0,0,1,81.36,65.08ZM14.17,13.64c3.1,0,7.24,3.49,7,6.41a4.34,4.34,0,0,1-2.6,2.88,2.37,2.37,0,0,1-3.07-1.86c-.16-.84-.28-1.69-.42-2.53C14.75,16.94,14.47,15.34,14.17,13.64Zm7.73,91.28c-1.69-.29-3.35-.44-4.94-.87-6.89-1.89-10.74-6.76-10.86-13.89A43.28,43.28,0,0,1,6.81,84s.26-.08.39-.05,0,.22.07.33c3.48,7.42,10.11,9.43,17.41,10.12l-3.4,6.31ZM21,49.69V45.06c3,2.27,7.19,4.5,9.86,7.58.24.27.49.53.71.81a4,4,0,0,1,.34.6C28.45,56.78,21,55.07,21,49.69ZM40.44,104c-.75,1-1.45,2.13-2.25,3.14-1.85,2.37-4.48,2.52-6.69.41-.71-.67-1.39-1.36-2.09-2h0l-.38-.38c-.81-3.93-.73-4,3.49-4.07,2,0,3.94,0,5.9,0C40.63,101.13,41.07,101.82,40.44,104Zm22.56.79-.4.72h0c-.53.57-1,1.16-1.6,1.72-2.5,2.54-5.24,2.37-7.4-.46-.7-.91-1.33-1.88-2-2.82-.59-2.11-.1-2.83,2.11-2.88s4.55,0,6.83,0C63.63,101.09,64.13,101.87,63,104.77ZM60.06,54l1.1-1.33A36,36,0,0,1,71,45.07V49.7C71,55,63.78,56.8,60.06,54ZM84.48,84.86l.49-1.1c1.54,5,1.67,9.89-1.24,14.32-3.12,4.76-8,6.42-13.49,6.76l.51-4.11-3.29-6.28C74.36,93.66,81,92,84.48,84.86ZM76.75,20.5a2.54,2.54,0,0,1-1.88,2.35c-2,.68-2.71-.76-3.51-1.8a3,3,0,0,1,.06-2.41,7.56,7.56,0,0,1,5.12-4.88,11.67,11.67,0,0,1,1.33-.22C77.46,16.07,77.12,18.28,76.75,20.5Z"/></g></g></svg>