<?xml version="1.0" encoding="utf-8"?>
<!-- Generator: Adobe Illustrator 21.1.0, SVG Export Plug-In . SVG Version: 6.00 Build 0)  -->
<svg version="1.1" id="Calque_1" xmlns="http://www.w3.org/2000/svg" xmlns:xlink="http://www.w3.org/1999/xlink" x="0px" y="0px"
	 viewBox="0 0 224.6 512" style="enable-background:new 0 0 224.6 512;" xml:space="preserve">
<style type="text/css">
	.st0{fill:#E64A19;}
</style>
<g>
	<path class="st0" d="M175.6,183.7c-18.3,13.4-116,12.7-126.6-0.7c2.7-4.4,44.2-3.1,42.2-8.5c-2.8-9.8-3-20.2-10.5-28.1l-26-28.8
		l7.3-5.9c0,0,13.6,13.8,18,17.9c11.6,10.9,20.4,23.2,22.5,39.4c0.7,7,4.2,7.7,9.8,8.5C142.7,179.6,172.4,179,175.6,183.7
		L175.6,183.7z M71.5,331.4c-5.6-1.4-7.7-4.9-7.7-10.6L49,189.4c45.6,12.4,91.4,10.7,126.6,0l-12.7,130.7c-0.7,7-4.9,10.5-11.3,12
		C117.4,337.7,98.1,338.4,71.5,331.4L71.5,331.4z M151,349c-1.4,11.3-2.1,23.2-2.8,35.2c-0.7,4.2-2.1,6.3-5.6,7.7l-25.3,8.4h-13.8
		c0,0-16.4-7-22.7-9.8c-1.4-0.7-2.8-2.8-3.5-4.9c-3-25.3,1-41.3-7.7-50.6v-1.4c29.5,7.1,59.1,7.1,89.3-1.4
		C151.9,342.4,151.3,346.2,151,349L151,349z"/>
</g>
</svg>
