<svg xmlns="http://www.w3.org/2000/svg" viewBox="0 0 224.55 512"><g data-name="Calque 2"><path d="M224.55 127.78C192.12 151.49 18.71 150.24 0 126.53c4.79-7.86 78.47-5.42 74.85-15-5-17.47-5.24-35.92-18.71-49.9L10 10.52 23 0s24.18 24.48 31.9 31.73c20.6 19.36 36.17 41.16 39.91 69.85 1.25 12.48 7.49 13.72 17.47 15 54.06 3.85 106.63 2.85 112.27 11.2zm-184.63 262C29.94 387.26 26.2 381 26.2 371L0 137.76c80.84 21.93 162.18 18.93 224.55 0l-22.46 232c-1.25 12.48-8.73 18.71-20 21.21-60.66 9.91-95.03 11.29-142.17-1.22zm141 31.18c-2.47 20-3.74 41.17-5 62.38-1.25 7.49-3.74 11.23-10 13.72L121 512H96.47s-29.1-12.48-40.33-17.46c-2.5-1.25-5-5-6.24-8.73-5.33-44.92 1.83-73.34-13.72-89.82v-2.5C88.57 406 141 406 194.61 391c-12.1 18.26-13.13 25.12-13.72 29.94z" fill="#e64a19" data-name="Calque 1"/></g></svg>