<svg xmlns="http://www.w3.org/2000/svg" viewBox="0 0 224.55 512"><defs><style>.cls-1{fill:#e64a19;}</style></defs><title>gulp</title><g id="Calque_2" data-name="Calque 2"><g id="Calque_1-2" data-name="Calque 1"><path class="cls-1" d="M224.55,127.78C192.12,151.49,18.71,150.24,0,126.53c4.79-7.86,78.47-5.42,74.85-15-5-17.47-5.24-35.92-18.71-49.9L10,10.52,23,0S47.18,24.48,54.9,31.73C75.5,51.09,91.07,72.89,94.81,101.58c1.25,12.48,7.49,13.72,17.47,15C166.34,120.43,218.91,119.43,224.55,127.78Zm-184.63,262C29.94,387.26,26.2,381,26.2,371L0,137.76c80.84,21.93,162.18,18.93,224.55,0l-22.46,232c-1.25,12.48-8.73,18.71-20,21.21C121.43,400.88,87.06,402.26,39.92,389.75Zm141,31.18c-2.47,20-3.74,41.17-5,62.38-1.25,7.49-3.74,11.23-10,13.72L121,512H96.47s-29.1-12.48-40.33-17.46c-2.5-1.25-5-5-6.24-8.73-5.33-44.92,1.83-73.34-13.72-89.82v-2.5C88.57,406,141,406,194.61,391,182.51,409.26,181.48,416.12,180.89,420.94Z"/></g></g></svg>