<svg xmlns="http://www.w3.org/2000/svg" viewBox="0 0 28 24.11"><defs><style>.cls-1{fill:none}</style></defs><g id="Calque_2" data-name="Calque 2"><g id="Calque_1-2" data-name="Calque 1"><path class="cls-1" d="M11.26 11.35zm-.42 7.44a28.25 28.25 0 011.71-8.06 28.25 28.25 0 00-1.71 8.06c-1.18-.69-2.22.05-3.43.36 1.2-.31 2.25-1.05 3.43-.36z"/><path class="cls-1" d="M10.77 16.11c0-.37.05-.73.08-1.1-.03.39-.06.76-.08 1.1zM9.79 15c.51-5.33 1.76-7.36 3-10.55-1.25 3.23-2.49 5.25-3 10.55zm-2.72 4.88l.39-.88c-.16.36-.29.65-.39.88zm2.79-10.5c-.12.8-.19 1.54-.24 2.21q.08-1.11.24-2.21zm.83 8.55q0-.77.06-1.55c-.03.62-.05 1.18-.06 1.55zm-1.09.02a5.43 5.43 0 011.09.18 2.72 2.72 0 00-1.09-.18zm-1.03-4.11h.23zm1.04-2.15c-.07 1-.08 1.82-.08 2.3q0-1.15.08-2.3z"/><path d="M3 20.63a12.42 12.42 0 012 1.11c11 1.55 18.17 1.5 22.42.59a1 1 0 00.56-.68c-4.34.84-13.75.53-24.98-1.02z" fill="#9f0e22"/><path d="M12.55 10.72a28.25 28.25 0 00-1.71 8.06c-1.18-.69-2.23.05-3.43.36l.08-.2v.07l-.39.86L7 20a14 14 0 015.65-.46A71.55 71.55 0 0112.73 8c-.08.93-.14 1.79-.18 2.63z" fill="#4997d9"/><path d="M7.85 18.1a5.44 5.44 0 011.71-.14 2.72 2.72 0 011.09.18v-.19c0-.37 0-.9.06-1.55v-.28c0-.34 0-.7.08-1.1q.14-1.84.41-3.66v-.07c0-.15 0-.31.06-.46A34.24 34.24 0 0113 4.15l-.2.33c-1.21 3.2-2.46 5.22-3 10.55a3.58 3.58 0 00-.57 0c-1.23.1-1.83.9-3.64 1.67-.64 1.13-1.12 2-1.38 2.46a17.85 17.85 0 013.64-1zm4.91-13.63z" fill="#0974c5"/><path d="M12.64 1.54zm-4.07 12.3h.23a4.87 4.87 0 01.73.13c0-.47 0-1.29.08-2.3v-.1c0-.67.12-1.41.24-2.21v-.04a18.15 18.15 0 012.75-7.74C8.72 6.83 4.22 13.69 2.73 16a14.19 14.19 0 014.42-2 4.87 4.87 0 011.42-.16z" fill="#095fa8"/><path d="M27.9 21.44zm0 0a1.1 1.1 0 00-.08-.43c-3.95.75-13.27-.07-20.56-.85a15.11 15.11 0 015.49-.42A74.4 74.4 0 0112.74 8a71.62 71.62 0 000 11.47A14 14 0 007 20v-.08c.1-.23.23-.52.39-.86v-.07l.38-.83c-.4.86-.73 1.56-.93 2L0 19.36a1.39 1.39 0 00.14.69c1.7.22 4.54.56 5.53.68 10.13 1.16 18.33 1.46 22.23.71zM7.69 24.11a3.09 3.09 0 012.54-.95 78.25 78.25 0 008.08.07A117.22 117.22 0 015.09 22a12.5 12.5 0 012.6 2.11z" fill="#09397f"/><path d="M14.62 15.42l1.33.17q0 2.31.06 4.63c0 .18.47.48.47.51q0-2.54-.06-5.08c1.16.14 2.31.26 3.48.34 0 1.27-.08 2.55-.11 3.83 0 .18.47.49.47.51 0-1.43.07-2.86.12-4.3q3 .18 6 .1H27c-.05 0-.18-.39-.32-.39q-3.16.1-6.31-.09c.15-4.5.37-9 .46-13.49 0-.18-.47-.49-.47-.51-.09 4.66-.32 9.31-.47 14-1.17-.08-2.33-.19-3.49-.32 0-2.66-.06-5.33-.05-8 0-2.27 0-4.53.24-6.79 0-.17-.47-.5-.47-.51-.19 2.23-.23 4.46-.24 6.7 0 2.84 0 5.69.06 8.53-.54-.07-1.08-.12-1.62-.2.02-.06.17.34.3.36zm-3.35-4.14v.07Q11 13.17 10.85 15c0 .37-.06.73-.08 1.1v.28q0 .77-.06 1.55v.19a5.81 5.81 0 00-2.8 0l-.38.83-.08.2c1.2-.31 2.25-1 3.43-.36a28.25 28.25 0 011.71-8.06v-.05c0-.84.1-1.7.18-2.63V8c-.34.67-.83 1.67-1.39 2.83-.07.17-.09.29-.11.45z"/><path d="M9.79 15c.51-5.33 1.76-7.35 3-10.54-1 1.65-2 3.29-2.9 4.86v.06q-.16 1.1-.24 2.21v.1q-.08 1.15-.08 2.3a4.87 4.87 0 00-.73-.13h-.23a4.87 4.87 0 00-1.41.11L6 16l-.4.7c1.78-.77 2.4-1.57 3.62-1.7a3.58 3.58 0 01.57 0z"/></g></g></svg>