<svg xmlns="http://www.w3.org/2000/svg" viewBox="0 0 28 24.11"><defs><style>.cls-1{fill:none;}.cls-2{fill:#9f0e22;}.cls-3{fill:#4997d9;}.cls-4{fill:#0974c5;}.cls-5{fill:#095fa8;}.cls-6{fill:#09397f;}</style></defs><title>harbour</title><g id="Calque_2" data-name="Calque 2"><g id="Calque_1-2" data-name="Calque 1"><path class="cls-1" d="M11.26,11.35v0Z"/><path class="cls-1" d="M10.84,18.79a28.25,28.25,0,0,1,1.71-8.06v0a28.25,28.25,0,0,0-1.71,8.06c-1.18-.69-2.22.05-3.43.36h0C8.61,18.84,9.66,18.1,10.84,18.79Z"/><path class="cls-1" d="M10.77,16.11c0-.37.05-.73.08-1.1C10.82,15.4,10.79,15.77,10.77,16.11Z"/><path class="cls-1" d="M9.79,15h0c.51-5.33,1.76-7.36,3-10.55h0C11.54,7.68,10.3,9.7,9.79,15Z"/><path class="cls-1" d="M7.07,19.88,7.46,19C7.3,19.36,7.17,19.65,7.07,19.88Z"/><path class="cls-1" d="M9.86,9.38c-.12.8-.19,1.54-.24,2.21Q9.7,10.48,9.86,9.38Z"/><path class="cls-1" d="M10.69,17.93q0-.77.06-1.55C10.72,17,10.7,17.56,10.69,17.93Z"/><path class="cls-1" d="M9.6,17.95a5.43,5.43,0,0,1,1.09.18A2.72,2.72,0,0,0,9.6,17.95Z"/><path class="cls-1" d="M8.57,13.84l.23,0Z"/><path class="cls-1" d="M9.61,11.69c-.07,1-.08,1.82-.08,2.3Q9.53,12.84,9.61,11.69Z"/><path class="cls-2" d="M3,20.63a12.42,12.42,0,0,1,2,1.11c11,1.55,18.17,1.5,22.42.59a1,1,0,0,0,.56-.68C23.64,22.49,14.23,22.18,3,20.63Z"/><path class="cls-3" d="M12.55,10.72a28.25,28.25,0,0,0-1.71,8.06c-1.18-.69-2.23.05-3.43.36h0l.08-.2,0,.07-.39.86L7,20a14,14,0,0,1,5.65-.46A71.55,71.55,0,0,1,12.73,8V8c-.08.93-.14,1.79-.18,2.63Z"/><path class="cls-4" d="M7.85,18.1h0a5.44,5.44,0,0,1,1.71-.14,2.72,2.72,0,0,1,1.09.18h0c0-.06,0-.13,0-.19,0-.37,0-.9.06-1.55,0-.09,0-.19,0-.28,0-.34,0-.7.08-1.1q.14-1.84.41-3.66v-.07c0-.15,0-.31.06-.46v0A34.24,34.24,0,0,1,13,4.15l-.2.33c-1.21,3.2-2.46,5.22-3,10.55h0a3.58,3.58,0,0,0-.57,0c-1.23.1-1.83.9-3.64,1.67h0c-.64,1.13-1.12,2-1.38,2.46a17.85,17.85,0,0,1,3.64-1h0Z"/><path class="cls-4" d="M12.76,4.47v0h0v0Z"/><path class="cls-5" d="M12.64,1.54l0,0,0,0Z"/><path class="cls-5" d="M8.57,13.84l.23,0a4.87,4.87,0,0,1,.73.13h0c0-.47,0-1.29.08-2.3v-.1c0-.67.12-1.41.24-2.21V9.32h0a18.15,18.15,0,0,1,2.75-7.74C8.72,6.83,4.22,13.69,2.73,16a14.19,14.19,0,0,1,4.42-2h0A4.87,4.87,0,0,1,8.57,13.84Z"/><polygon class="cls-6" points="27.9 21.44 27.9 21.44 27.9 21.44 27.9 21.44"/><path class="cls-6" d="M27.9,21.44a1.1,1.1,0,0,0-.08-.43c-3.95.75-13.27-.07-20.56-.85a15.11,15.11,0,0,1,5.49-.42A74.4,74.4,0,0,1,12.74,8h0a71.62,71.62,0,0,0,0,11.47h0A14,14,0,0,0,7,20l0-.08c.1-.23.23-.52.39-.86l0-.07v0h0l.38-.83h0c-.4.86-.73,1.56-.93,2L0,19.36a1.39,1.39,0,0,0,.14.69c1.7.22,4.54.56,5.53.68C15.8,21.89,24,22.19,27.9,21.44Z"/><path class="cls-6" d="M7.69,24.11h0l0,0a3.09,3.09,0,0,1,2.54-.95,78.25,78.25,0,0,0,8.08.07A117.22,117.22,0,0,1,5.09,22,12.5,12.5,0,0,1,7.69,24.11Z"/><path d="M14.62,15.42h0l1.33.17q0,2.31.06,4.63c0,.18.47.48.47.51q0-2.54-.06-5.08c1.16.14,2.31.26,3.48.34,0,1.27-.08,2.55-.11,3.83,0,.18.47.49.47.51,0-1.43.07-2.86.12-4.3q3,.18,6,.1H27c-.05,0-.18-.39-.32-.39q-3.16.1-6.31-.09c.15-4.5.37-9,.46-13.49,0-.18-.47-.49-.47-.51h0c-.09,4.66-.32,9.31-.47,14-1.17-.08-2.33-.19-3.49-.32,0-2.66-.06-5.33-.05-8,0-2.27,0-4.53.24-6.79,0-.17-.47-.5-.47-.51h0c-.19,2.23-.23,4.46-.24,6.7,0,2.84,0,5.69.06,8.53-.54-.07-1.08-.12-1.62-.2C14.34,15,14.49,15.4,14.62,15.42Z"/><path d="M11.27,11.28v.07Q11,13.17,10.85,15c0,.37-.06.73-.08,1.1,0,.09,0,.19,0,.28q0,.77-.06,1.55c0,.06,0,.13,0,.19h0a5.81,5.81,0,0,0-2.8,0h0l-.38.83h0v0l-.08.2h0c1.2-.31,2.25-1,3.43-.36a28.25,28.25,0,0,1,1.71-8.06v-.05c0-.84.1-1.7.18-2.63V8c-.34.67-.83,1.67-1.39,2.83v0C11.31,11,11.29,11.12,11.27,11.28Z"/><path d="M9.79,15c.51-5.33,1.76-7.35,3-10.54v0h0c-1,1.65-2,3.29-2.9,4.86h0v.06q-.16,1.1-.24,2.21v.1q-.08,1.15-.08,2.3h0a4.87,4.87,0,0,0-.73-.13l-.23,0a4.87,4.87,0,0,0-1.41.11h0L6,16H6l-.4.7C7.38,15.93,8,15.13,9.22,15a3.58,3.58,0,0,1,.57,0Z"/></g></g></svg>