<svg xmlns="http://www.w3.org/2000/svg" viewBox="0 0 482.2 367.2"><path d="M112.5 15.6h75.8v212.3c0 95.7-45.8 129.1-119.1 129.1-17.9 0-40.9-3-55.8-8l8.5-61.3c12.6 4 25.7 6.1 38.9 6 31.9 0 51.8-14.5 51.8-66.3l-.1-211.8zM254 273.8c19.9 10.5 51.8 20.9 84.2 20.9 34.9 0 53.3-14.5 53.3-36.8 0-20.4-15.9-32.9-56.3-46.8-55.8-19.9-92.7-50.8-92.7-100.1 0-57.4 48.3-100.7 127.1-100.7 38.4 0 65.8 7.5 85.7 16.9L438.4 88c-21.7-10.6-45.6-16.1-69.8-15.9-32.9 0-48.8 15.4-48.8 32.4 0 21.4 18.4 30.9 62.3 47.8 59.3 21.9 86.7 52.8 86.7 100.7 0 56.3-42.9 104.2-135.1 104.2-38.4 0-76.3-10.5-95.2-20.9l15.5-62.5z" fill="#f4bf75"/></svg>