<svg xmlns="http://www.w3.org/2000/svg" viewBox="0 0 25.38 28"><defs><style>.cls-1,.cls-2,.cls-9{fill:none;}.cls-2{stroke:#f0d6b7;}.cls-2,.cls-9{stroke-linecap:round;stroke-linejoin:round;stroke-width:0;}.cls-3{fill:#f0d6b7;}.cls-4{fill:#335061;}.cls-5{fill:#6d6b6d;}.cls-6{fill:#dcd9d8;}.cls-7{fill:#f7e4cd;}.cls-8{fill:#49728b;}.cls-9{stroke:#335061;}.cls-10{fill:#fff;}.cls-11{fill:#d33833;}.cls-12{fill:#ef3d3a;}.cls-13{fill:#231f20;}.cls-14{fill:#81b0c4;}.cls-15{fill:#1d1919;}</style></defs><title>jenkins</title><g id="Calque_2" data-name="Calque 2"><g id="Calque_1-2" data-name="Calque 1"><path class="cls-1" d="M12.91,5.46h0Z"/><path class="cls-1" d="M10.79,8.06a.35.35,0,0,0,.21.13.33.33,0,0,1-.08.11A.33.33,0,0,0,11,8.19a.35.35,0,0,1-.21-.14Z"/><path class="cls-1" d="M11.82,5.92l.05,0Z"/><path class="cls-1" d="M11.25,6.47l.06-.07Z"/><path class="cls-1" d="M12.16,5.72l.08,0Z"/><path class="cls-1" d="M12.52,5.56l.07,0Z"/><path class="cls-1" d="M11.51,6.18l.06,0Z"/><path class="cls-1" d="M14.05,6a.56.56,0,0,1,0,.11A.54.54,0,0,0,14.05,6Z"/><path class="cls-1" d="M14.23,16.86a1.74,1.74,0,0,0-.43-.14,1.72,1.72,0,0,1,.42.15Z"/><path class="cls-1" d="M13.84,5.64l.09.08Z"/><path class="cls-1" d="M10.89,8.29h0Z"/><path class="cls-1" d="M17.81,25s0,0,0,0a.71.71,0,0,1,0,.15A.67.67,0,0,0,17.81,25Z"/><path class="cls-1" d="M5.11,10.35h0Z"/><path class="cls-1" d="M6.46,11l.08.09Z"/><path class="cls-1" d="M11.1,8a3.47,3.47,0,0,1,1-1.25A3.45,3.45,0,0,0,11.1,8Z"/><path class="cls-1" d="M9.88,22.51a15.47,15.47,0,0,0,1.55.16c.29-.61,1.31-.56,2-.4h0c-.67-.15-1.7-.2-2,.4a15.46,15.46,0,0,1-1.55-.16h0a3.18,3.18,0,0,1-2.22-1.17A11.35,11.35,0,0,1,6.21,18h0a11.35,11.35,0,0,0,1.45,3.36A3.18,3.18,0,0,0,9.88,22.51Z"/><path class="cls-1" d="M5.19,12.93h0c.43,0,.52,1,.89,1.18h0C5.71,13.87,5.62,13,5.19,12.93Z"/><path class="cls-1" d="M6.74,11.43l0,.06h0Z"/><path class="cls-1" d="M17.66,24.46a.69.69,0,0,1,.08.16A.7.7,0,0,0,17.66,24.46Z"/><path class="cls-1" d="M17.79,24.7a.71.71,0,0,1,0,.14A.7.7,0,0,0,17.79,24.7Z"/><path class="cls-1" d="M16,27.28,15.78,27h0l.17.23Z"/><path class="cls-1" d="M6.67,15.78c-.62,0-.76.56-1.32.62a1.73,1.73,0,0,1-.72-.12,1.73,1.73,0,0,0,.73.12c.57-.06.71-.62,1.32-.62v0Z"/><path class="cls-1" d="M13.31,5.41a1.15,1.15,0,0,1,.4.14h0a1.15,1.15,0,0,0-.4-.14Z"/><path class="cls-1" d="M2.93,13.19s0-.05,0-.08,0,.06,0,.09a3.85,3.85,0,0,0,1,2.55h0A3.86,3.86,0,0,1,2.93,13.19Z"/><path class="cls-1" d="M10.71,7.9a.55.55,0,0,0-.08-.11c-.24-.24-.36-1.52,1-2.43.75-.51,1.26-.52,1.62-.32-.36-.2-.87-.19-1.62.32-1.34.91-1.21,2.19-1,2.44A.55.55,0,0,1,10.71,7.9Z"/><path class="cls-1" d="M4.29,12.1a1,1,0,0,1,.77,0h0a5.16,5.16,0,0,1,1.26.5c.05.19.1.38.14.57h0c0-.18-.08-.37-.13-.56h0a5.16,5.16,0,0,0-1.25-.49A1,1,0,0,0,4.29,12.1Z"/><path class="cls-1" d="M14,6.29a.54.54,0,0,0,0-.06.55.55,0,0,1-.05.15Z"/><path class="cls-1" d="M5.9,10.6l-.08,0Z"/><path class="cls-1" d="M22.32,9.86c-.16.05-1.09.6-1.26.14.17.46,1.1-.08,1.26-.14l0-.26h0Z"/><path class="cls-1" d="M23.31,10.56a1.23,1.23,0,0,1-.51.51,1.24,1.24,0,0,0,.51-.51,17.15,17.15,0,0,1-1.17-2.29h0A17.14,17.14,0,0,0,23.31,10.56Z"/><path class="cls-1" d="M6.25,10.83l-.09-.07Z"/><path class="cls-1" d="M6.94,11.89h0Z"/><path class="cls-1" d="M22.57,10.34c-.4.25-1.17.09-1.62.29h0c.45-.19,1.22,0,1.62-.29Z"/><path class="cls-1" d="M19.26,19.54h0a1.11,1.11,0,0,0,.33-.25,1.11,1.11,0,0,1-.33.25Z"/><path class="cls-1" d="M19.56,16.88h0a4,4,0,0,0,0,1.06A3.42,3.42,0,0,0,21,17.52a3.42,3.42,0,0,1-1.4.42A4,4,0,0,1,19.56,16.88Z"/><path class="cls-1" d="M14.55,18.1c-.1-.12-.43-.37-.45-.54,0,.17.35.41.45.54a4.69,4.69,0,0,0,1.28,1.43,5.27,5.27,0,0,0,1.71.29,5.27,5.27,0,0,1-1.71-.29A4.69,4.69,0,0,1,14.55,18.1Z"/><path class="cls-1" d="M13.55,18.2h0c-.05-1.06.5-1.29.64-1.33C14.06,16.9,13.5,17.12,13.55,18.2Z"/><path class="cls-1" d="M19.8,18.93h0a1.09,1.09,0,0,1-.09.15A1.09,1.09,0,0,0,19.8,18.93Z"/><path class="cls-1" d="M18.86,9.52A15,15,0,0,0,21.41,13c.21.23.57.46.61.61.11.45-.29,1-.25,1.29a6.59,6.59,0,0,1-4.46,1.4h0a6.59,6.59,0,0,0,4.47-1.4c0-.3.36-.84.25-1.29,0-.16-.39-.38-.61-.61a15,15,0,0,1-2.54-3.49c0-.09-.07-.5-.23-.58C18.79,9,18.82,9.43,18.86,9.52Z"/><polygon class="cls-1" points="14.78 8.73 14.77 8.71 14.77 8.71 14.78 8.73 14.78 8.73"/><path class="cls-1" d="M5.51,10.43h0Z"/><path class="cls-1" d="M13.49,10c.27.54,1.38.49,1.81.21h0C14.87,10.5,13.76,10.54,13.49,10Z"/><path class="cls-1" d="M10,2.24A.28.28,0,0,0,10.21,2h0A.28.28,0,0,1,10,2.24Z"/><path class="cls-1" d="M14.74,16.37h0a10.26,10.26,0,0,0,1.36.37A10.26,10.26,0,0,1,14.74,16.37Z"/><path class="cls-1" d="M16.26,11.22a1.41,1.41,0,0,1-.64.53c-.59.17-1.77.11-2.07-.34.29.46,1.48.52,2.07.34a1.41,1.41,0,0,0,.64-.53.75.75,0,0,0-.06-.7A.75.75,0,0,1,16.26,11.22Z"/><path class="cls-1" d="M7.34,4.94c.43-.11.81-1,1.14-1.46C8.15,4,7.77,4.83,7.34,4.94Z"/><path class="cls-1" d="M15.81,10.12a7,7,0,0,1-1-1.83h0a7,7,0,0,0,1,1.83Z"/><path class="cls-1" d="M17.27,15.07h0c.06.28.14.55.46.64-.31-.09-.4-.36-.46-.64a6.91,6.91,0,0,1,.95-.74.68.68,0,0,0-.15-.41.68.68,0,0,1,.14.4A6.91,6.91,0,0,0,17.27,15.07Z"/><path class="cls-1" d="M7,12.33H7s0-.06,0-.09S7,12.3,7,12.33Z"/><path class="cls-1" d="M19.15,17.46a4.92,4.92,0,0,1,0,.53A4.94,4.94,0,0,0,19.15,17.46Z"/><path class="cls-1" d="M17.17,14.71h0l0-.09h0l0,.1Z"/><path class="cls-1" d="M19.09,16.94h0c0,.14,0,.28.05.43C19.13,17.22,19.11,17.08,19.09,16.94Z"/><path class="cls-1" d="M5,5.32H5A7.39,7.39,0,0,0,6.13,5,7.38,7.38,0,0,1,5,5.32Z"/><path class="cls-1" d="M14,5.8l0,.1Z"/><path class="cls-1" d="M8.87,23s0,0,0,0Z"/><path class="cls-1" d="M7.17,16.85l0-.3Z"/><path class="cls-1" d="M14.43,27.31l.29-.22-.29.22Z"/><path class="cls-1" d="M8.94,22.76h0v0s0,.06,0,.08,0-.07,0-.09a6.74,6.74,0,0,0,2.27.4h0A6.74,6.74,0,0,1,8.94,22.76Z"/><path class="cls-1" d="M13.71,23.92a3.24,3.24,0,0,1,1.22.36.76.76,0,0,1,.07.22.76.76,0,0,0-.07-.22,3.24,3.24,0,0,0-1.22-.36c-.77,0-1.24-.1-1.45.18C12.47,23.82,12.95,23.92,13.71,23.92Z"/><polygon class="cls-1" points="12.34 27.48 12.34 27.48 12.34 27.43 12.34 27.48"/><path class="cls-1" d="M23.63,10.57a14.24,14.24,0,0,1-2.14,8.62,6.26,6.26,0,0,1-1.37,1.68c-1.42,1-3.59,1.91-5.45,1.29a8,8,0,0,1-3.92-3,7.94,7.94,0,0,0,3.92,3c1.86.62,4-.29,5.45-1.29a6.26,6.26,0,0,0,1.36-1.68,14.24,14.24,0,0,0,2.15-8.62,9.57,9.57,0,0,0-.5-3.45,1.85,1.85,0,0,0-.22-.34,1.84,1.84,0,0,1,.22.33A9.57,9.57,0,0,1,23.63,10.57Z"/><path class="cls-1" d="M9,23.2a7.65,7.65,0,0,0,2.1.57h0A7.65,7.65,0,0,1,9,23.2Z"/><path class="cls-1" d="M8,23.28q.74.48,1.51.89-.77-.41-1.51-.89A2.35,2.35,0,0,1,7.81,23l-.31-.36.31.36A2.35,2.35,0,0,0,8,23.28Z"/><path class="cls-1" d="M22.62,6.49l.17.17A2.41,2.41,0,0,0,22.62,6.49Z"/><path class="cls-1" d="M7.24,22.36a2.71,2.71,0,0,0-.6-.58A2.77,2.77,0,0,1,7.24,22.36Z"/><path class="cls-1" d="M10.7,19.93a4.46,4.46,0,0,1-.93-2.09h0A4.47,4.47,0,0,0,10.7,19.93Z"/><path class="cls-1" d="M11.14,24.94h0a12.16,12.16,0,0,0,.48,1.95l.12.39h0l-.12-.39A12.17,12.17,0,0,1,11.14,24.94Z"/><path class="cls-1" d="M5,11.23H5Z"/><path class="cls-1" d="M24.39,24.49h0a2.34,2.34,0,0,0,.05-.61h0A2.34,2.34,0,0,1,24.39,24.49Z"/><path class="cls-1" d="M3.47,11.89l.14-.14Z"/><path class="cls-1" d="M2.94,13.06A2,2,0,0,1,3,12.7,2,2,0,0,0,2.94,13.06Z"/><path class="cls-1" d="M3.22,12.23A2,2,0,0,1,3.35,12,2,2,0,0,0,3.22,12.23Z"/><path class="cls-1" d="M21.64,26.25a5.12,5.12,0,0,0-.13-3.9h0a.93.93,0,0,0-.69-.51,1,1,0,0,0-.51.1h0a1,1,0,0,1,.51-.11.93.93,0,0,1,.69.51,5.12,5.12,0,0,1,.13,3.9c.11.37.46.52.6.85h0C22.1,26.76,21.74,26.62,21.64,26.25Z"/><path class="cls-1" d="M22.14,27.28h1.47l.08,0-.08,0Z"/><path class="cls-1" d="M12.26,27.23l.07.13h0l-.07-.14a6.59,6.59,0,0,1-.54-1.9c0-.09,0-.18,0-.28,0-.83,0-1.91.59-2.05-.62.14-.62,1.22-.59,2.05,0,.1,0,.19,0,.28a6.59,6.59,0,0,0,.54,1.9Z"/><path class="cls-1" d="M4.57,11.27h0Z"/><path class="cls-1" d="M3.79,11.61l.12-.09Z"/><path class="cls-1" d="M15.32,25.32c-.35-.19-.45-.29-.44-.37,0,.08.09.18.44.37a1.31,1.31,0,0,0,1,.07h0A1.31,1.31,0,0,1,15.32,25.32Z"/><path class="cls-1" d="M4.16,11.4l.09,0Z"/><path class="cls-1" d="M15,27.77v-.18h0v.18a.15.15,0,0,0,.15.15h0A.15.15,0,0,1,15,27.77Z"/><path class="cls-1" d="M20.83,22.79c-.75-.44-2.06.83-2.67,1.09l-.06,0h0l.05,0c.61-.27,1.92-1.53,2.66-1.09a1.13,1.13,0,0,1,.35.65h0a7.05,7.05,0,0,1,.2,1.38,3,3,0,0,1-.07.87,1.08,1.08,0,0,1-.17.38h0a1.08,1.08,0,0,0,.17-.38,3,3,0,0,0,.07-.87,7.05,7.05,0,0,0-.2-1.38A1.13,1.13,0,0,0,20.83,22.79Z"/><path class="cls-1" d="M17.21,24.45a1,1,0,0,1-.49.74h0A1,1,0,0,0,17.21,24.45Z"/><path class="cls-1" d="M19.19,27.27h-.77a.33.33,0,0,0-.67,0H16.8a6.33,6.33,0,0,0-.49-.68h0a6.31,6.31,0,0,1,.49.68h2.39Zm-1.44,0a.33.33,0,0,1,.67,0Z"/><path class="cls-1" d="M7.34,11.6c-.06-.23-.15-.48-.2-.68h0C7.2,11.12,7.29,11.37,7.34,11.6Z"/><path class="cls-1" d="M17.61,24.41a.68.68,0,0,0-.15-.13A.68.68,0,0,1,17.61,24.41Z"/><path class="cls-1" d="M7.16,8.84A9.93,9.93,0,0,0,7.37,6.3,10,10,0,0,1,7.16,8.84Z"/><path class="cls-1" d="M17.27,27.2s.3-.73.73-.55.93.45,1.2.59h0c-.28-.14-.88-.45-1.2-.59S17.27,27.2,17.27,27.2Z"/><path class="cls-1" d="M4.13,12.21h0l.16-.11A.58.58,0,0,0,4.13,12.21Z"/><path class="cls-1" d="M17.31,25.56h0Z"/><path class="cls-1" d="M17.54,25.44l-.11.06Z"/><path class="cls-1" d="M17,25.58h0a.7.7,0,0,1-.19-.06A.7.7,0,0,0,17,25.58Z"/><path class="cls-1" d="M4.49,12.66a.4.4,0,0,0-.2,0,.4.4,0,0,1,.19,0,2.29,2.29,0,0,0,.19,2.21v0A2.29,2.29,0,0,1,4.49,12.66Z"/><path class="cls-1" d="M4.29,12.1l-.16.11a1.22,1.22,0,0,0-.37.78h0a1.22,1.22,0,0,1,.37-.78Z"/><path class="cls-1" d="M17.21,24.2h0l.06,0-.06,0a1,1,0,0,0-.58.2h0a1,1,0,0,1,.58-.2Z"/><path class="cls-1" d="M18.85,25.06h0Z"/><path class="cls-1" d="M3,12.63a2,2,0,0,1,.11-.28A2,2,0,0,0,3,12.63Z"/><path class="cls-1" d="M19.5,24a.51.51,0,0,1,.09-.22.51.51,0,0,0-.09.22c-.06.36.12.55-.06.85h0C19.62,24.53,19.44,24.34,19.5,24Z"/><path class="cls-1" d="M19.28,25a.41.41,0,0,0,.09-.08A.4.4,0,0,1,19.28,25Z"/><path class="cls-1" d="M19.1,24.49l-.13,0-.28,0,.28,0,.13,0,.23.09h0Z"/><path class="cls-1" d="M18.68,25.77a.7.7,0,0,1-.11-.54.66.66,0,0,0,.1.53l-.32-.08h0l.32.08h0a12.13,12.13,0,0,0,2.46.3h0A12.14,12.14,0,0,1,18.68,25.77Z"/><path class="cls-1" d="M19.91,2.66h0a8.68,8.68,0,0,1,1.47,1.56,1.55,1.55,0,0,0-1.5,1.5,1.21,1.21,0,0,0,.12.49h0a1.21,1.21,0,0,1-.12-.48,1.55,1.55,0,0,1,1.5-1.5l.68.89c-1-.29-1.8.13-1.83.87h0a1.07,1.07,0,0,0,0,.24h0a1.07,1.07,0,0,1,0-.24c0-.73.86-1.15,1.83-.87l-.68-.89a8.68,8.68,0,0,0-1.48-1.56h0Z"/><path class="cls-1" d="M17.72,25.23a.68.68,0,0,1-.1.13A.68.68,0,0,0,17.72,25.23Z"/><path class="cls-1" d="M3.65,10.7c-.1-1.18-.26-2.83.54-3.72a4.41,4.41,0,0,1,3-1.42h0A4.41,4.41,0,0,0,4.19,7c-.8.89-.64,2.54-.54,3.72Z"/><path class="cls-1" d="M16.2,23.17H16a1.93,1.93,0,0,1-.39-.08L15.42,23c0,.05-.07,0-.08.08h0s.08,0,.08-.07l.19.07a1.93,1.93,0,0,0,.39.08h.41c.75,0,1.56-.35,2.24-.42h0c-.69.06-1.49.37-2.25.42Z"/><path class="cls-1" d="M20.92,26.64a1.71,1.71,0,0,1,.73.64h0A1.71,1.71,0,0,0,20.92,26.64Z"/><path class="cls-1" d="M19.9,2.66a4.11,4.11,0,0,0-.4-.27,4.1,4.1,0,0,1,.4.27Z"/><path class="cls-1" d="M19.09,25l.06,0Z"/><path class="cls-2" d="M4.13,12.21l.16-.11"/><path class="cls-3" d="M6.67,15.78h0a.51.51,0,0,1,.42.47c0,.05,0,.16,0,.3l0,.3a8.81,8.81,0,0,0,2.7,5.65h0a15.46,15.46,0,0,0,1.55.16c.28-.6,1.3-.55,2-.4a6.65,6.65,0,0,1-2.16-1.77,4.5,4.5,0,0,1-1.48-2.66h0c.34.47.66.92,1,1.35a8,8,0,0,0,3.92,3c1.85.62,4-.28,5.45-1.29a6.26,6.26,0,0,0,1.37-1.68,14.24,14.24,0,0,0,2.14-8.62,9.57,9.57,0,0,0-.5-3.45,1.84,1.84,0,0,0-.22-.33l-.12-.13-.17-.17a1.81,1.81,0,0,0-2.36-.26h0a1.07,1.07,0,0,1,0-.24c-.14.13-.23.23-.23.23h0a1.21,1.21,0,0,1-.12-.49,1.55,1.55,0,0,1,1.5-1.5A8.68,8.68,0,0,0,19.9,2.66a10.49,10.49,0,0,0-6-.22,8.06,8.06,0,0,0-6,5.38v0a14.09,14.09,0,0,0-.39,2.26c0,.88.42,1.66.45,2.62-.24.39-1,.44-1.47.42h0c0-.19-.08-.38-.14-.57a5.16,5.16,0,0,0-1.26-.5,1.72,1.72,0,0,1,1,2h0c-.37-.21-.46-1.14-.89-1.18-.61,0-.5,1.22-.5,1.95l0,0v0a2.29,2.29,0,0,1-.19-2.21.4.4,0,0,0-.19,0,.66.66,0,0,0-.4.26h0c-.22,1-.55,1.87.06,2.91a1.74,1.74,0,0,0,1.4.6C5.92,16.35,6.06,15.78,6.67,15.78Zm6.88,2.42h0l-.3-.06s-.32-1.11-.16-1.31a.8.8,0,0,1,.71-.12,1.74,1.74,0,0,1,.43.14h0C14.05,16.91,13.5,17.14,13.55,18.2Zm6.24.73a1.09,1.09,0,0,1-.09.15.88.88,0,0,1-.45.46h0a5.27,5.27,0,0,1-3.43,0,4.69,4.69,0,0,1-1.28-1.43c-.1-.13-.44-.37-.45-.54s.1-.17.44-.17c.72,1.8,3.18,1.59,5.26,1.54h0ZM21,17.52a3.42,3.42,0,0,1-1.41.42,4,4,0,0,1,0-1.06h0a8.54,8.54,0,0,0,3-1.19A3.42,3.42,0,0,1,21,17.52Zm0-6.89c.45-.2,1.22,0,1.62-.29-.09-.25-.2-.48-.29-.73l0,.26c-.16.05-1.09.6-1.26.14a.58.58,0,0,1,0-.26,1.35,1.35,0,0,1,1-1.08,3,3,0,0,1,0-.4h.08a17.15,17.15,0,0,0,1.17,2.29,1.24,1.24,0,0,1-.51.51c-.72.43-1.88.55-1.86-.44h0Zm-3.82,4h0l0,.09c.09-.51.26-1.09.55-1a.7.7,0,0,1,.51.64,6.91,6.91,0,0,0-.95.74c.06.28.14.55.46.64l.06,0c1.11.19,2.39-.68,3.19-1,.49-.83,0-1.14-.49-1.67-.91-1.1-2.13-2.46-2.09-4.1.09-.07.17-.08.22,0s.2.48.23.58A15,15,0,0,0,21.41,13c.21.23.57.46.61.61.11.45-.29,1-.25,1.29a6.59,6.59,0,0,1-4.47,1.4h0A1.32,1.32,0,0,1,17.13,14.61Zm2,2.32h0c0,.14,0,.28.05.43s0,.07,0,.1a4.94,4.94,0,0,1,0,.53c-1.81.09-4-.36-4.43-1.63h0a10.87,10.87,0,0,0,4.35.56ZM14.77,8.71v0a1.11,1.11,0,0,1,0-.44h0a7,7,0,0,0,1,1.83,2.39,2.39,0,0,1,.39.41.75.75,0,0,1,.06.7,1.41,1.41,0,0,1-.64.53c-.59.17-1.78.11-2.07-.34a.53.53,0,0,1,.06-.6c.65,0,1.53.42,2,0-.09-.15-.21-.34-.32-.55-.44.28-1.54.32-1.81-.21a.58.58,0,0,1-.06-.27c0-.85,1.34-1,1.34-1h0ZM11.61,5.36c.75-.51,1.26-.52,1.62-.32a1.27,1.27,0,0,1,.48.51h0l.08,0,0,0,.09.08L14,5.8l0,.1a.55.55,0,0,1,0,.1.52.52,0,0,1,0,.22.54.54,0,0,1,0,.06l0,.09h0a2.2,2.2,0,0,0-1.93.34A3.47,3.47,0,0,0,11.1,8L11,8.19h0a.33.33,0,0,1-.08.11s0,0,0,0h0a1.55,1.55,0,0,1-.09-.23h0a.39.39,0,0,1-.06-.14v0a.55.55,0,0,0-.08-.1C10.39,7.55,10.27,6.27,11.61,5.36Z"/><polygon class="cls-3" points="5.06 12.07 5.07 12.07 5.07 12.07 5.06 12.07"/><path class="cls-3" d="M3.91,15.75l0,0,0,0Z"/><circle class="cls-3" cx="19.9" cy="2.66" transform="translate(6.51 17.62) rotate(-55.78)"/><path class="cls-4" d="M7.81,23,2.54,25.38l.07.3c.08.32.21.89.36,1.6h8.75l-.12-.39a12.16,12.16,0,0,1-.48-1.95q-.8-.35-1.58-.76T8,23.28A2.35,2.35,0,0,1,7.81,23Z"/><path class="cls-5" d="M6.13,5a2.13,2.13,0,0,1,.47-.09,3.81,3.81,0,0,0,.75,0c.43-.11.81-1,1.14-1.46l.14-.18a11.33,11.33,0,0,1,.94-.78A7.35,7.35,0,0,0,6.13,5Z"/><path class="cls-5" d="M3.87,10.58a2,2,0,0,1,1.19-.23h0a2.12,2.12,0,0,1,.36.07h0a2.13,2.13,0,0,1,.31.13l.08,0a2.14,2.14,0,0,1,.25.17l.09.07a2.16,2.16,0,0,1,.21.21l.08.09a2.15,2.15,0,0,1,.2.3l0,.05h0a2.13,2.13,0,0,1,.16.4h0a2.17,2.17,0,0,1,.06.34s0,.06,0,.09c.43,0,.43-.35.33-.73-.06-.23-.15-.48-.2-.68h0a5.6,5.6,0,0,1,0-2.07A10,10,0,0,0,7.37,6.3c0-.08,0-.16,0-.24C3.49,6.64,3.69,9.6,3.87,10.58Z"/><path class="cls-6" d="M9.57,2.52l.16-.17c.1,0,.21-.07.31-.11A.28.28,0,0,0,10.21,2c-.08-.09-.17-.16-.27-.13C8.12,2.37,5.79,3.69,5,5.32A7.38,7.38,0,0,0,6.13,5,7.35,7.35,0,0,1,9.57,2.52Z"/><path class="cls-6" d="M3.65,10.7l.21-.12h0c-.18-1-.39-3.94,3.47-4.52h0a2.8,2.8,0,0,0-.14-.49A4.41,4.41,0,0,0,4.19,7C3.39,7.87,3.56,9.52,3.65,10.7Z"/><path class="cls-7" d="M9.87,22.5h0a8.81,8.81,0,0,1-2.7-5.65l0-.3c0-.15,0-.25,0-.3a.51.51,0,0,0-.42-.47h0v0c.28.63-.53.85-.61,1.31a3.84,3.84,0,0,0,.12.83,11.35,11.35,0,0,0,1.44,3.36A3.18,3.18,0,0,0,9.87,22.5Z"/><path class="cls-7" d="M17.17,14.71h0a2.39,2.39,0,0,1,.1.36,6.91,6.91,0,0,1,.95-.74.68.68,0,0,0-.5-.64c-.29-.08-.46.5-.55,1h0Z"/><path class="cls-7" d="M22.32,9.86l0-.27h0a3.23,3.23,0,0,1-.21-.91h0a1.35,1.35,0,0,0-1,1.08.58.58,0,0,0,0,.26C21.23,10.46,22.16,9.92,22.32,9.86Z"/><path class="cls-7" d="M13.43,9.74a.58.58,0,0,0,.06.27c.27.53,1.37.49,1.81.21h0a4.05,4.05,0,0,1-.53-1.49h0v0h0S13.43,8.89,13.43,9.74Z"/><path class="cls-7" d="M3.89,12.89,3.76,13h0a1.22,1.22,0,0,1,.37-.78h0a.58.58,0,0,1,.16-.11,1,1,0,0,1,.78,0,5.16,5.16,0,0,1,1.25.49c-.19-.66-.52-1.25-1.2-1.33H5a2,2,0,0,0-.38,0H4.57l-.32.09-.09,0-.25.12-.12.09-.18.14-.14.14L3.35,12a2,2,0,0,0-.14.21l-.07.11a2,2,0,0,0-.11.28l0,.08a2,2,0,0,0-.07.35v.06s0,.05,0,.08a3.86,3.86,0,0,0,1,2.56l0,0C3.34,14.76,3.66,13.92,3.89,12.89Z"/><path class="cls-7" d="M13.86,2.44a10.49,10.49,0,0,1,6,.22h0a4.1,4.1,0,0,0-.4-.27l-.07,0c-1.89-1.07-5.09-1.87-7.1-.87-1.62.81-3.81,2.15-4.56,3.84a4.11,4.11,0,0,1,.13,2.51A8.06,8.06,0,0,1,13.86,2.44Z"/><path class="cls-7" d="M22.07,5.12l-.68-.89a1.55,1.55,0,0,0-1.5,1.5,1.21,1.21,0,0,0,.12.48h0s.09-.1.23-.23h0C20.26,5.25,21.1,4.83,22.07,5.12Z"/><path class="cls-7" d="M10.79,8.06h0a1.55,1.55,0,0,0,.09.23h0s0,0,0,0A.33.33,0,0,0,11,8.19.35.35,0,0,1,10.79,8.06Z"/><path class="cls-7" d="M11.61,5.36c-1.34.91-1.22,2.19-1,2.43a.55.55,0,0,1,.08.11v0a1.49,1.49,0,0,1,.11-.76,2.81,2.81,0,0,1,.41-.7l.06-.07a2.83,2.83,0,0,1,.21-.22l.06,0,.25-.2.05,0,.29-.17.08,0,.29-.12.07,0,.32-.09h0l.35,0h0a1.15,1.15,0,0,1,.4.14h0A1.27,1.27,0,0,0,13.23,5C12.87,4.85,12.36,4.86,11.61,5.36Z"/><path class="cls-8" d="M3,27.28c-.15-.72-.28-1.28-.36-1.6l-.07-.3L7.81,23l-.31-.36-.26-.3a2.77,2.77,0,0,0-.6-.58h0A24.08,24.08,0,0,0,1,25.25a20.24,20.24,0,0,1,.81,2Z"/><path class="cls-4" d="M24.39,24.49l-2.88-2.14a5.12,5.12,0,0,1,.13,3.9c.1.37.45.51.6.85h0l-.1.17h1.48l.08,0a20.84,20.84,0,0,0,.55-2.06c0-.18.1-.47.16-.76h0Z"/><path class="cls-9" d="M21.13,26.07h0"/><path class="cls-4" d="M20.82,21.84l-.24-.18h0a1.46,1.46,0,0,0-.27.28,1,1,0,0,1,.51-.1Z"/><path class="cls-8" d="M20.82,21.84a.93.93,0,0,1,.69.51h0l2.88,2.14h0a2.34,2.34,0,0,0,.06-.61c-.07-.54-.8-.93-1.17-1.27-.68-.61-1.11-1.15-1.82-1.72a4.39,4.39,0,0,1-.87.77l.24.18Z"/><path class="cls-10" d="M18,26.65c-.42-.18-.73.55-.73.55a.44.44,0,0,0,0,.08h.47a.33.33,0,0,1,.67,0h.77v0h0C18.92,27.1,18.32,26.79,18,26.65Z"/><path class="cls-6" d="M17.27,27.27h0a.44.44,0,0,1,0-.08s.3-.73.73-.55.92.45,1.2.59c0-.22,0-.44,0-.65-.62,0-1-.56-1.39-.6s-.7.43-1.19.23l-.33.38a6.33,6.33,0,0,1,.49.68Z"/><path class="cls-10" d="M8.89,22.86a.29.29,0,0,0,0,.12s0,0,0,0a.27.27,0,0,0,.08.17l0,0a7.65,7.65,0,0,0,2.11.57h0a1.75,1.75,0,0,0,.11-.59,6.74,6.74,0,0,1-2.27-.4S8.91,22.83,8.89,22.86Z"/><path class="cls-6" d="M11.05,24.06a1.23,1.23,0,0,1,0-.29A7.65,7.65,0,0,1,9,23.2,4.24,4.24,0,0,0,11.05,24.06Z"/><path class="cls-11" d="M20.17,23.5a.89.89,0,0,0-.58.26.51.51,0,0,0-.09.22c-.06.36.12.55-.06.85h0s0,0-.07.07a.41.41,0,0,1-.09.08l-.13,0-.06,0-.22,0h0a.62.62,0,0,0-.21.08.2.2,0,0,0-.07.1.7.7,0,0,0,.11.54,12.14,12.14,0,0,0,2.46.3h0a1.08,1.08,0,0,0,.17-.38,3,3,0,0,0,.07-.87,7.05,7.05,0,0,0-.2-1.38h0A3,3,0,0,0,20.17,23.5Z"/><path class="cls-11" d="M15.32,25.32c-.35-.19-.45-.29-.44-.37s.17-.2.14-.45a.76.76,0,0,0-.07-.22,3.24,3.24,0,0,0-1.22-.36c-.77,0-1.24-.1-1.45.18a1.47,1.47,0,0,0-.12,1c.07.76.13,1.52.2,2.27h0l-.07-.13,0,.11,0,.14v-.11l.26.49h0a4.83,4.83,0,0,0,1.83-.56h0l.29-.22c.53-.37,1-.75,1.54-1.17l0-.53A1.31,1.31,0,0,1,15.32,25.32Z"/><polygon class="cls-11" points="17.21 24.2 17.21 24.2 17.21 24.2 17.21 24.2"/><path class="cls-11" d="M17.27,24.22l-.06,0a1,1,0,0,1-.49,1c0,.09,0,.19.06.31l.05,0a.7.7,0,0,0,.19.06.68.68,0,0,0,.19,0h.09a.69.69,0,0,0,.13-.07l.11-.06.07-.08a.68.68,0,0,0,.1-.13.72.72,0,0,0,0-.12.71.71,0,0,0,0-.15.67.67,0,0,0,0-.13.71.71,0,0,0,0-.14,4.34,4.34,0,0,0-.12-.24l-.05,0a.68.68,0,0,0-.15-.13A.7.7,0,0,0,17.27,24.22Z"/><path class="cls-12" d="M18.57,25.23a.2.2,0,0,1,.07-.1.62.62,0,0,1,.21-.08h0l.22,0,.06,0,.13,0a.4.4,0,0,0,.09-.08s0,0,.07-.07h0c.18-.3,0-.49.06-.85a.51.51,0,0,1,.09-.22.89.89,0,0,1,.58-.26,3,3,0,0,1,1,0h0a1.13,1.13,0,0,0-.35-.65c-.75-.44-2.06.83-2.66,1.09l-.05,0a1.7,1.7,0,0,1,.17.56,1.47,1.47,0,0,1,.41,0l.28,0,.13,0,.24.09h0a4.21,4.21,0,0,0-.76.1.7.7,0,0,0-.2.1,8.59,8.59,0,0,0,0,.9l.32.08A.66.66,0,0,1,18.57,25.23Z"/><path class="cls-12" d="M12.34,27.37v.11h0c.05.18.1.34.25.38Z"/><path class="cls-12" d="M11.7,25c0,.1,0,.19,0,.28a6.59,6.59,0,0,0,.54,1.9l.07.14h0c-.06-.75-.13-1.51-.2-2.27a1.47,1.47,0,0,1,.12-1c.21-.27.68-.18,1.45-.18a3.24,3.24,0,0,1,1.22.36.76.76,0,0,1,.07.22c0,.25-.14.33-.14.45s.09.18.44.37a1.31,1.31,0,0,0,1,.07h0v-.06a3,3,0,0,0-.92-.29L15,25a1.56,1.56,0,0,1,.29-.11,3.28,3.28,0,0,0,.91-.28c0-.08,0-.16,0-.24l-.2,0-.18,0a1.59,1.59,0,0,1-.29-.13c-.18-.1-.33-.22-.53-.32A9.08,9.08,0,0,0,12.59,23a.74.74,0,0,0-.3,0C11.67,23.12,11.67,24.21,11.7,25Z"/><path class="cls-12" d="M17.21,24.45a.94.94,0,0,0,0-.25h0a1,1,0,0,0-.58.2,1.7,1.7,0,0,0,0,.41c0,.08,0,.16,0,.24l0,.13v0A1,1,0,0,0,17.21,24.45Z"/><path class="cls-13" d="M13.31,5.41h0l-.35,0h0l-.32.09-.07,0-.29.12-.08,0-.29.17-.05,0-.25.2-.06,0a2.83,2.83,0,0,0-.21.22l-.06.07a2.81,2.81,0,0,0-.41.7,1.49,1.49,0,0,0-.11.76.39.39,0,0,0,.06.14h0a.35.35,0,0,0,.21.14h0L11.1,8a3.45,3.45,0,0,1,1-1.25A2.2,2.2,0,0,1,14,6.38h0A.55.55,0,0,0,14,6.23a.54.54,0,0,0,0-.11.56.56,0,0,0,0-.11.55.55,0,0,0,0-.1l0-.1-.06-.08-.09-.08,0,0-.08,0h0A1.15,1.15,0,0,0,13.31,5.41Z"/><path class="cls-13" d="M22.8,11.07a1.23,1.23,0,0,0,.51-.51,17.14,17.14,0,0,1-1.17-2.29h-.08a3,3,0,0,0,0,.4h0a3.23,3.23,0,0,0,.21.91h0c.09.24.2.48.29.73h0c-.4.25-1.17.09-1.62.29h0C20.92,11.62,22.09,11.5,22.8,11.07Z"/><path class="cls-13" d="M14.78,8.73a4.05,4.05,0,0,0,.53,1.49h0c.11.21.23.4.32.55-.49.47-1.37.08-2,0a.53.53,0,0,0-.06.6c.29.45,1.48.52,2.07.34a1.41,1.41,0,0,0,.64-.53.75.75,0,0,0-.06-.7,2.39,2.39,0,0,0-.39-.41h0a7,7,0,0,1-1-1.83h0a1.11,1.11,0,0,0,0,.44h0Z"/><path class="cls-13" d="M17.3,16.31a6.59,6.59,0,0,0,4.46-1.4c0-.3.36-.84.25-1.29,0-.16-.39-.38-.61-.61a15,15,0,0,1-2.54-3.49c0-.09-.07-.49-.23-.58s-.13,0-.22,0c0,1.64,1.18,3,2.09,4.1.44.54,1,.84.49,1.67-.8.3-2.08,1.17-3.19,1l-.06,0c-.32-.09-.4-.36-.46-.64h0a2.39,2.39,0,0,0-.1-.36h0l0-.1h0a1.32,1.32,0,0,0,.17,1.7Z"/><path class="cls-13" d="M5.07,12.07h0a1,1,0,0,0-.77,0l-.16.11a1.22,1.22,0,0,0-.37.78h0l.12-.11h0a.66.66,0,0,1,.4-.26.4.4,0,0,1,.2,0,2.29,2.29,0,0,0,.17,2.18l0,0c0-.73-.11-2,.5-1.95h0c.43,0,.53.94.89,1.17h0a1.72,1.72,0,0,0-1-2h0Z"/><path class="cls-13" d="M19.56,16.88a4,4,0,0,0,0,1.06,3.43,3.43,0,0,0,3-2.25,8.54,8.54,0,0,1-3,1.19Z"/><path class="cls-13" d="M14.74,16.37h0c.47,1.27,2.62,1.72,4.43,1.63a4.92,4.92,0,0,0,0-.53s0-.07,0-.1,0-.29-.05-.43h0a10.9,10.9,0,0,1-4.35-.56Z"/><path class="cls-13" d="M14.54,17.39c-.34,0-.45.07-.44.17s.35.41.45.54a4.69,4.69,0,0,0,1.28,1.43,5.27,5.27,0,0,0,3.42,0h0a.88.88,0,0,0,.45-.46,1.09,1.09,0,0,0,.09-.15h0C17.72,19,15.26,19.19,14.54,17.39Z"/><path class="cls-14" d="M20.92,26.64a1.71,1.71,0,0,0-.31-.11,1.43,1.43,0,0,0-.92.12c0,.2,0,.41,0,.63h2A1.71,1.71,0,0,0,20.92,26.64Z"/><path class="cls-3" d="M16.21,23.17H16a1.93,1.93,0,0,1-.39-.08L15.43,23c0,.05-.06,0-.08.07l.24.18.24.14a2.22,2.22,0,0,0,.48.19h0a3.05,3.05,0,0,0,.82.09h.33c.41-.3.78-.65,1.21-.93-.68.06-1.48.37-2.24.42Z"/><path class="cls-14" d="M15.78,27l-.35.23H16Z"/><path class="cls-13" d="M23.83,21.57c-.28-.27-1.59-1.27-1.67-1.64s.53-1.18.73-1.59a11.66,11.66,0,0,0,.62-1.79c1-3.63,1.14-8.61-.34-11.59a12.54,12.54,0,0,0-3.1-3.43C17.77-.21,13.51-.4,10.74.62a13.48,13.48,0,0,0-2.2.94C6.72,2.63,4.79,3.34,4.25,5.49c-1.33.6-1.73,2.3-1.66,4.27A6.22,6.22,0,0,1,2.74,11c0,.18-.29.42-.34.54A5.3,5.3,0,0,0,3,16.11,3.22,3.22,0,0,0,5.16,17.5a4.57,4.57,0,0,0,.45,1.67c.17.37.8,1,.57,1.52a7,7,0,0,1-1.49,1c-1.16.7-2,1.12-3.07,1.89-.69.5-1.77.56-1.6,1.71a17.86,17.86,0,0,0,.81,2.51L.91,28H12.34v-.26a.15.15,0,0,0-.15-.15h0a.15.15,0,0,1,.15.15V28H23.76v-.22h0V28h.37c.26-.81.51-1.64.77-2.49a6.21,6.21,0,0,0,.48-2.19C25.3,22.71,24.34,22.06,23.83,21.57ZM5,5.32c.75-1.63,3.08-3,4.9-3.47.1,0,.19,0,.27.13h0a.28.28,0,0,1-.18.26c-.1,0-.22.07-.31.11l-.16.17a11.33,11.33,0,0,0-.94.78l-.14.18C8.15,4,7.77,4.83,7.34,4.94a3.81,3.81,0,0,1-.75,0A2.13,2.13,0,0,0,6.13,5,7.39,7.39,0,0,1,5,5.32ZM4.19,7a4.41,4.41,0,0,1,3-1.42h0a2.8,2.8,0,0,1,.14.49h0c0,.08,0,.16,0,.24a9.93,9.93,0,0,1-.21,2.54,5.6,5.6,0,0,0,0,2.07h0c0,.21.14.45.2.68.1.38.1.71-.33.73H7s0-.06,0-.09a2.17,2.17,0,0,0-.06-.34h0a2.13,2.13,0,0,0-.16-.4l0-.06a2.15,2.15,0,0,0-.2-.3L6.46,11a2.16,2.16,0,0,0-.21-.21l-.09-.07a2.14,2.14,0,0,0-.25-.17l-.08,0a2.13,2.13,0,0,0-.31-.13h0a2.12,2.12,0,0,0-.36-.07h0a2,2,0,0,0-1.19.23h0l-.21.12h0C3.55,9.52,3.39,7.86,4.19,7Zm2,11h0a3.84,3.84,0,0,1-.12-.83c.09-.47.89-.68.61-1.31v0c-.62,0-.76.56-1.32.62a1.78,1.78,0,0,1-1.42-.61l0,0a3.85,3.85,0,0,1-1-2.55s0-.06,0-.09v-.06A2,2,0,0,1,3,12.7l0-.08a2,2,0,0,1,.11-.28l.07-.11A2,2,0,0,1,3.35,12l.12-.13.14-.14.18-.14.12-.09.25-.12.09,0,.32-.09h.06a2,2,0,0,1,.38,0h.12c.68.07,1,.67,1.2,1.33h0c.05.18.1.37.13.56h0c.51,0,1.23,0,1.47-.42,0-1-.48-1.73-.45-2.62a14.09,14.09,0,0,1,.39-2.26v0a4.11,4.11,0,0,0-.13-2.51c.75-1.7,2.94-3,4.56-3.84,2-1,5.21-.2,7.1.87l.07,0a4.11,4.11,0,0,1,.4.27h0a8.68,8.68,0,0,1,1.48,1.56l.68.89c-1-.29-1.8.13-1.83.87a1.07,1.07,0,0,0,0,.24h0a1.81,1.81,0,0,1,2.36.26,2.41,2.41,0,0,1,.17.17l.12.13a1.85,1.85,0,0,1,.22.34,9.57,9.57,0,0,1,.5,3.45,14.24,14.24,0,0,1-2.15,8.62,6.26,6.26,0,0,1-1.36,1.68c-1.42,1-3.59,1.91-5.45,1.29a7.94,7.94,0,0,1-3.92-3c-.33-.43-.65-.88-1-1.35h0a4.47,4.47,0,0,0,1.47,2.65,6.65,6.65,0,0,0,2.16,1.77h0c-.67-.16-1.7-.21-2,.4a15.47,15.47,0,0,1-1.55-.16,3.18,3.18,0,0,1-2.22-1.17A11.35,11.35,0,0,1,6.21,18ZM15.78,27h0l.18.23h-.53Zm1.88-2.59a.55.55,0,0,1,.14.38.67.67,0,0,1,0,.13s0,0,0,0a.67.67,0,0,1,0,.13.72.72,0,0,1,0,.12.68.68,0,0,1-.1.13l-.07.08-.11.06a.69.69,0,0,1-.13.07h-.09a.68.68,0,0,1-.19,0h0a.7.7,0,0,1-.18-.06l-.05,0c0-.12,0-.22-.06-.31h0v0l0-.13c0-.08,0-.16,0-.24a1.7,1.7,0,0,1,0-.41h0a1,1,0,0,1,.58-.2l.06,0a.7.7,0,0,1,.19.07.68.68,0,0,1,.15.13Zm-1.35,2.14h0l.33-.38c.49.21.81-.27,1.19-.23s.78.64,1.39.6c0,.22,0,.44,0,.65h0v0H16.8A6.31,6.31,0,0,0,16.31,26.59Zm2.34-3.84c-.43.28-.79.63-1.21.93h-.33a3.05,3.05,0,0,1-.82-.09h0a2.22,2.22,0,0,1-.48-.19l-.24-.14-.24-.18h0s.08,0,.08-.08l.19.07a1.93,1.93,0,0,0,.39.08h.41c.76,0,1.57-.36,2.25-.42Zm1,4.53h0c0-.22,0-.43,0-.63a1.43,1.43,0,0,1,.92-.12,1.72,1.72,0,0,1,1,.75Zm1.64-1.59a1.08,1.08,0,0,1-.17.38h0a12.13,12.13,0,0,1-2.46-.3h0l-.32-.08h0a8.59,8.59,0,0,1,0-.9.7.7,0,0,1,.2-.1,4.21,4.21,0,0,1,.76-.1h0l-.23-.09-.13,0-.28,0a1.47,1.47,0,0,0-.41,0,1.7,1.7,0,0,0-.17-.56h0l.06,0c.61-.27,1.92-1.53,2.67-1.09a1.13,1.13,0,0,1,.35.65,7.05,7.05,0,0,1,.2,1.38A3,3,0,0,1,21.31,25.69ZM1.81,27.28h0a20.24,20.24,0,0,0-.81-2,24.08,24.08,0,0,1,5.61-3.48h0a2.71,2.71,0,0,1,.6.58l.26.3.31.36a2.35,2.35,0,0,0,.24.26q.74.48,1.51.89t1.58.76h0a12.17,12.17,0,0,0,.48,1.95l.12.39Zm9.39-4.11a1.75,1.75,0,0,1-.11.59h0a1.23,1.23,0,0,0,0,.29A4.24,4.24,0,0,1,9,23.2H9l0,0A.27.27,0,0,1,8.87,23v0a.29.29,0,0,1,0-.12s0-.06,0-.08v0h0a6.74,6.74,0,0,0,2.27.4Zm.51,2.14c0-.09,0-.18,0-.28,0-.83,0-1.91.59-2.05a.74.74,0,0,1,.3,0,9.08,9.08,0,0,1,2.41.88c.19.11.35.23.53.32a1.59,1.59,0,0,0,.29.13l.18,0,.2,0c0,.08,0,.16,0,.24a3.28,3.28,0,0,1-.91.28A1.56,1.56,0,0,0,15,25l.37,0a3,3,0,0,1,.92.29v.06h0l0,.53c-.49.42-1,.8-1.54,1.17l-.29.22h0a4.83,4.83,0,0,1-1.83.56h0c-.15,0-.2-.2-.25-.38h0l0-.14,0-.11v0A6.59,6.59,0,0,1,11.71,25.31Zm3.4,2.61a.15.15,0,0,1-.15-.15v-.18h0v.18a.15.15,0,0,0,.15.15Zm9.28-3.43h0c-.05.28-.12.58-.16.76a20.84,20.84,0,0,1-.55,2.06l-.08,0H22.14l.1-.17h0c-.14-.33-.49-.48-.6-.85a5.12,5.12,0,0,0-.13-3.9.93.93,0,0,0-.69-.51,1,1,0,0,0-.51.11h0a1.46,1.46,0,0,1,.27-.28h0a4.39,4.39,0,0,0,.87-.77c.71.57,1.14,1.11,1.82,1.72.37.33,1.1.73,1.17,1.27h0A2.34,2.34,0,0,1,24.4,24.49Z"/><path class="cls-7" d="M14.19,16.87h0a1.72,1.72,0,0,0-.42-.15.8.8,0,0,0-.71.12c-.15.2.16,1.31.16,1.31l.3.06h0C13.5,17.12,14.06,16.9,14.19,16.87Z"/><path class="cls-15" d="M18.09,27a.33.33,0,0,0-.33.32h.67A.33.33,0,0,0,18.09,27Z"/></g></g></svg>