<svg xmlns="http://www.w3.org/2000/svg" xmlns:xlink="http://www.w3.org/1999/xlink" viewBox="0 0 28 28"><defs><linearGradient id="a" x1="114.33" y1="-931.53" x2="146.06" y2="-899.44" gradientTransform="matrix(.89 0 0 -.89 -95.28 -796.53)" gradientUnits="userSpaceOnUse"><stop offset="0" stop-color="#0296d8"/><stop offset="1" stop-color="#8371d9"/></linearGradient><linearGradient id="c" x1="94.74" y1="-912.16" x2="126.48" y2="-880.07" xlink:href="#a"/><linearGradient id="b" x1="105.61" y1="-922.14" x2="138.08" y2="-892.66" gradientTransform="matrix(.89 0 0 -.89 -95.28 -796.53)" gradientUnits="userSpaceOnUse"><stop offset="0" stop-color="#cb55c0"/><stop offset="1" stop-color="#f28e0e"/></linearGradient><linearGradient id="d" x1="102.61" y1="-919.95" x2="134.35" y2="-887.86" xlink:href="#a"/><linearGradient id="e" x1="102.54" y1="-918.76" x2="135.01" y2="-889.28" xlink:href="#b"/></defs><g data-name="Calque 2"><g data-name="Calque 1"><path fill="url(#a)" d="M21.05 20.95l-6.94-7-.01.01.03.03L.12 28H28v-.05l-6.95-7z"/><path fill="url(#c)" d="M0 0v14.32L14.32 0H0z"/><path fill="url(#b)" d="M14.1 13.95h.01l6.94-7L27.94 0l-6.89 6.93-6.95 7.02z"/><path fill="url(#d)" d="M14.1 13.96l.01-.01h-.01l6.95-7.02L27.94 0H14.32L0 14.32V28h.12l14.01-14.01-.03-.03z"/><path fill="url(#e)" d="M14.1 13.96l.01-.01h-.01l6.95-7.02L27.94 0H14.32L0 14.32V28h.12l14.01-14.01-.03-.03z"/></g></g></svg>