<svg xmlns="http://www.w3.org/2000/svg" xmlns:xlink="http://www.w3.org/1999/xlink" viewBox="0 0 28 28"><defs><style>.cls-1{fill:url(#Dégradé_sans_nom);}.cls-2{fill:url(#Dégradé_sans_nom-2);}.cls-3{fill:url(#Dégradé_sans_nom_2);}.cls-4{fill:url(#Dégradé_sans_nom-3);}.cls-5{fill:url(#Dégradé_sans_nom_2-2);}</style><linearGradient id="Dégradé_sans_nom" x1="114.33" y1="-931.53" x2="146.06" y2="-899.44" gradientTransform="matrix(0.89, 0, 0, -0.89, -95.28, -796.53)" gradientUnits="userSpaceOnUse"><stop offset="0" stop-color="#0296d8"/><stop offset="1" stop-color="#8371d9"/></linearGradient><linearGradient id="Dégradé_sans_nom-2" x1="94.74" y1="-912.16" x2="126.48" y2="-880.07" xlink:href="#Dégradé_sans_nom"/><linearGradient id="Dégradé_sans_nom_2" x1="105.61" y1="-922.14" x2="138.08" y2="-892.66" gradientTransform="matrix(0.89, 0, 0, -0.89, -95.28, -796.53)" gradientUnits="userSpaceOnUse"><stop offset="0" stop-color="#cb55c0"/><stop offset="1" stop-color="#f28e0e"/></linearGradient><linearGradient id="Dégradé_sans_nom-3" x1="102.61" y1="-919.95" x2="134.35" y2="-887.86" xlink:href="#Dégradé_sans_nom"/><linearGradient id="Dégradé_sans_nom_2-2" x1="102.54" y1="-918.76" x2="135.01" y2="-889.28" xlink:href="#Dégradé_sans_nom_2"/></defs><title>kotlin</title><g id="Calque_2" data-name="Calque 2"><g id="Calque_1-2" data-name="Calque 1"><polygon class="cls-1" points="21.05 20.95 14.11 13.95 14.1 13.96 14.13 13.99 0.12 28 28 28 28 27.95 21.05 20.95"/><polygon class="cls-2" points="0 0 0 14.32 14.32 0 0 0"/><polygon class="cls-3" points="14.1 13.95 14.11 13.95 21.05 6.95 27.94 0 21.05 6.93 14.1 13.95"/><polygon class="cls-4" points="14.1 13.96 14.11 13.95 14.1 13.95 21.05 6.93 27.94 0 14.32 0 0 14.32 0 28 0.12 28 14.13 13.99 14.1 13.96"/><polygon class="cls-5" points="14.1 13.96 14.11 13.95 14.1 13.95 21.05 6.93 27.94 0 14.32 0 0 14.32 0 28 0.12 28 14.13 13.99 14.1 13.96"/></g></g></svg>