<svg xmlns="http://www.w3.org/2000/svg" viewBox="0 0 126 59.41"><defs><style>.cls-1{fill:#0277bd;}</style></defs><title>less</title><g id="Calque_2" data-name="Calque 2"><g id="Calque_1-2" data-name="Calque 1"><path class="cls-1" d="M121.3,24.34a11.62,11.62,0,0,1-1-4.28c-.15-3.56,0-7.14-.18-10.7-.14-3.19-1.28-6.06-4.34-7.71C113.12.21,110,.06,107,0V5.72a6,6,0,0,1,1,.08c4,.2,5.38,1.48,5.43,5.47,0,3,0,5.95.06,8.92.06,3.6.6,7,3.89,9.32.06,0,.05.18.08.35a7.65,7.65,0,0,0-3.39,4.82,34.53,34.53,0,0,0-.54,5.15c-.1,3.12,0,6.24-.09,9.36-.07,2.44-1.23,3.59-3.6,4.13-.89.21-1.84.28-2.84.41v5.68c2-.12,3-.2,4.39-.35,5.16-.56,8.06-3.24,8.65-8.24.19-1.57.17-3.17.2-4.75.07-3,0-6,.3-8.9S123,32.49,126,32.66v-6A4.17,4.17,0,0,1,121.3,24.34Zm-94,12.13c0-11.55-.31-23.1-.31-34.65V0c-3,0-6.23,0-9.39,0a29.09,29.09,0,0,0-3.69.3C9,1,6.69,3.28,5.83,8.14a26.78,26.78,0,0,0-.22,4.29c0,2.73,0,5.45,0,8.18C5.54,24,3.93,26.7.43,26.9c-.12,0,.57.15-.43.24v5.3c4,.63,5.27,2.24,5.54,6,0,.59.05,1.19.06,1.78,0,3.32,0,6.64.15,10,.14,3.09.83,5.86,3.75,7.48,2.73,1.52,6.5,1.64,8.5,1.72V53.68s-.21-.09-.41-.1c-4.34-.26-5.32-1.44-5.34-5.79,0-2.87.11-5.75.06-8.62-.06-3.61-.59-7-3.86-9.32-.05,0,0-.18,0-.38a8,8,0,0,0,3.69-6.09,40.84,40.84,0,0,0,.26-4.3c.05-3,0-5.95.08-8.92a4,4,0,0,1,3.09-4A33,33,0,0,1,21,5.73V7.78c0,10.31-.37,20.62-.31,30.93,0,3.53.41,7,4.19,8.54a46.19,46.19,0,0,0,6.63,1.64c.4-2.31.52-4.23.85-6.13C28,41.51,27.31,40.86,27.31,36.47ZM54,16.58A14.7,14.7,0,0,0,34.32,23.5a20.51,20.51,0,0,0-.22,16.87A12.1,12.1,0,0,0,40.58,47c5.9,2.62,11.88,2,17.83.14a1.31,1.31,0,0,0,.69-1c-.2-1.66-.54-3.31-.84-5-1.42.36-2.6.72-3.81.95a16.81,16.81,0,0,1-9.51-.64,7.52,7.52,0,0,1-4.62-7.73H61.19a25.53,25.53,0,0,0-1.12-10.54A11.39,11.39,0,0,0,54,16.58Zm0,12.13H40.23a7.5,7.5,0,0,1,7.54-7.51C51.52,21.27,54.11,24.7,53.94,28.7ZM110.05,41c.49-5.05-1-7.9-5.53-10.09-1.6-.78-3.29-1.36-4.92-2.08A32.44,32.44,0,0,1,96,27,2.94,2.94,0,0,1,94.61,24a2.62,2.62,0,0,1,2.17-2.36,15.92,15.92,0,0,1,4.39-.42c2,.17,4.06.69,6.16,1.08l1.33-5.82c-2.85-.43-5.51-1-8.19-1.21a15.81,15.81,0,0,0-8.63,1.67C86.06,19.89,86,29,91.27,32c1.59.9,3.28,1.6,4.93,2.38s3.54,1.55,5.2,2.5a3,3,0,0,1,1.38,3.47,2.67,2.67,0,0,1-2.58,2.11,26.61,26.61,0,0,1-5.61.13,66.53,66.53,0,0,1-6.66-1.45L86.77,47a27.4,27.4,0,0,0,15.94,1.15c4.46-1,7-3.6,7.34-7.13ZM81.64,31.53c-2-1-4.07-1.8-6.09-2.72a21.55,21.55,0,0,1-3.69-1.87,2.89,2.89,0,0,1,.75-5.26,12.23,12.23,0,0,1,4.52-.48,61.26,61.26,0,0,1,6.16,1.06l1.26-5.55c-1.08-.29-2.05-.61-3.05-.82-4-.84-8-1.16-11.87.22-3.36,1.18-5.69,3.39-6.15,7.11-.52,4.15.86,7.43,4.7,9.4,1.54.79,3.18,1.36,4.75,2.1a41.35,41.35,0,0,1,4.61,2.34,2.87,2.87,0,0,1,1.24,3.25,2.7,2.7,0,0,1-2.53,2.17,26,26,0,0,1-5.61.15,66.66,66.66,0,0,1-6.71-1.46c-.34,1.61-.74,3.24-1,4.89a1.41,1.41,0,0,0,.68,1.16,26.25,26.25,0,0,0,16.34.52c3.27-1,5.56-3.05,6-6.62C86.48,37.07,85.51,33.58,81.64,31.53Z"/></g></g></svg>