<svg xmlns="http://www.w3.org/2000/svg" viewBox="0 0 27.98 28"><defs><style>.cls-1{fill:#0277bd;}</style></defs><title>livescript</title><g id="Calque_2" data-name="Calque 2"><g id="Calque_1-2" data-name="Calque 1"><polygon class="cls-1" points="3.49 0.01 6.97 0 6.97 19.75 8.75 17.99 8.75 1.75 10.49 1.75 10.49 16.24 12.24 14.49 12.24 1.75 13.99 1.75 13.99 12.73 15.72 10.96 15.72 1.75 17.45 1.75 17.45 9.22 19.23 7.46 19.23 1.75 20.96 1.75 20.96 5.72 22.73 3.98 22.73 1.75 24.47 1.75 24.47 3.48 26.2 3.48 26.2 5.27 23.9 5.27 22.17 6.99 26.2 6.99 26.2 8.72 20.43 8.72 18.69 10.5 26.2 10.5 26.2 12.23 16.95 12.23 15.19 14.01 26.2 14.01 26.2 15.74 13.44 15.74 11.7 17.5 26.2 17.5 26.2 19.25 9.97 19.25 8.23 20.98 27.97 20.98 27.98 24.49 6.97 24.49 6.97 28 3.49 28 3.49 24.49 0 24.49 0 20.98 3.49 20.98 3.49 0 3.49 0.01"/></g></g></svg>