<svg xmlns="http://www.w3.org/2000/svg" viewBox="0 0 63 57"><defs><style>.cls-1{fill:#e29f33;}.cls-2{fill:#edab37;}.cls-3{fill:#f6bb42;}.cls-4{fill:#656d78;}.cls-5{fill:#ffce54;}.cls-6{fill:#ccd1d9;}.cls-7{fill:#fff;}.cls-8{fill:#e6e9ed;}.cls-9{fill:#545c66;}</style></defs><title>log</title><g id="Calque_2" data-name="Calque 2"><g id="Calque_1-2" data-name="Calque 1"><polygon class="cls-1" points="23 2 56 2 56 5 56 6 19 6 17 6 7 6 7 5 7 2 10 2 10 0 20 0 23 2"/><polygon class="cls-2" points="17 6 56 6 56 8 56 9 20 9 18 7 17 6"/><polygon class="cls-3" points="20 9 56 9 59 9 59 12 59 13 4 13 4 12 4 9 7 9 7 6 17 6 18 7 20 9"/><path class="cls-4" d="M63,19V55a2,2,0,0,1-2,2H2a2,2,0,0,1-2-2V19a2,2,0,0,1,2-2H61A2,2,0,0,1,63,19ZM43.5,39.5v-3a1.5,1.5,0,0,0-3,0V38h-18V36.5a1.5,1.5,0,0,0-3,0v3A1.5,1.5,0,0,0,21,41H42A1.5,1.5,0,0,0,43.5,39.5Z"/><polygon class="cls-5" points="59 16 59 17 4 17 4 16 4 13 59 13 59 16"/><path class="cls-6" d="M43.5,36.5v3A1.5,1.5,0,0,1,42,41H21a1.5,1.5,0,0,1-1.5-1.5v-3a1.5,1.5,0,0,1,3,0V38h18V36.5a1.5,1.5,0,0,1,3,0Z"/><rect class="cls-7" x="7" y="11" width="49" height="2"/><rect class="cls-8" x="10" y="4" width="43" height="2"/><path class="cls-9" d="M3,52.5a.5.5,0,0,1-.5-.5V22a.5.5,0,0,1,1,0V52A.5.5,0,0,1,3,52.5Zm57,0a.5.5,0,0,1-.5-.5V22a.5.5,0,1,1,1,0V52A.5.5,0,0,1,60,52.5Z"/></g></g></svg>