<svg viewBox="0 0 256 256" xmlns="http://www.w3.org/2000/svg"><path d="M225.85 128.024c0-54.024-43.846-97.87-97.87-97.87-54.023 0-97.869 43.846-97.869 97.87 0 54.023 43.846 97.869 97.87 97.869 54.023 0 97.869-43.846 97.869-97.87" fill="#0277bd"/><path d="M197.195 87.475c0-15.823-12.842-28.666-28.665-28.666-15.823 0-28.666 12.843-28.666 28.666s12.843 28.665 28.666 28.665 28.665-12.842 28.665-28.665" fill="#FFF"/><path d="M254.515 30.154c0-15.823-12.842-28.665-28.665-28.665-15.823 0-28.665 12.842-28.665 28.665 0 15.824 12.842 28.666 28.665 28.666 15.823 0 28.665-12.842 28.665-28.666" fill="#0277bd"/></svg>