<svg xmlns="http://www.w3.org/2000/svg" viewBox="0 0 32 19.7"><defs><style>.cls-1{fill:#42a5f5;}</style></defs><title>markdown</title><g id="Calque_2" data-name="Calque 2"><g id="Calque_1-2" data-name="Calque 1"><path class="cls-1" d="M29.69,19.7H2.31A2.31,2.31,0,0,1,0,17.39V2.31A2.31,2.31,0,0,1,2.31,0H29.69A2.31,2.31,0,0,1,32,2.31V17.39a2.3,2.3,0,0,1-2.31,2.31Zm-22-4.62v-6l3.08,3.85,3.07-3.85v6h3.08V4.62H13.84L10.77,8.47,7.69,4.62H4.61V15.08ZM28.31,9.85H25.23V4.62H22.15V9.85H19.08l4.61,5.39Z"/></g></g></svg>