<svg xmlns="http://www.w3.org/2000/svg" viewBox="0 0 309.58 512"><defs><style>.cls-1{fill:#8d6748;}</style></defs><title>mocha</title><g id="Calque_2" data-name="Calque 2"><g id="Calque_1-2" data-name="Calque 1"><path class="cls-1" d="M183.07,153.3c79.67-58.65-17.79-112,0-153.3C109.75,74.22,185.51,95.3,183.07,153.3Zm-59.53,4.47c54.06-40.56-16.16-78.53,0-102.7C75.42,107.16,122.77,112.25,123.53,157.77Zm186,40.19a14.91,14.91,0,0,0-14.88-14.88H14.88A14.91,14.91,0,0,0,0,198c0,50.6,7.44,224.74,81.86,309.58A13.51,13.51,0,0,0,92.28,512h125a13.51,13.51,0,0,0,10.42-4.47C302.14,424.19,309.58,250,309.58,198ZM199.44,468.84H111.63a13.51,13.51,0,0,1-10.42-4.47c-50.6-59.53-56.56-178.6-58-220.28A14.91,14.91,0,0,1,58,229.21H254.51a14.91,14.91,0,0,1,14.88,14.88c0,41.67-7.44,159.26-58,220.28C206.88,467.35,203.91,468.84,199.44,468.84Zm46.14-138.42c-6,40.19-17.86,86.33-43.16,116.09Q198,451,193.49,451H119.07c-3,0-7.44-1.49-8.93-4.47-17.86-22.33-29.77-52.09-37.21-83.35C150.14,373.15,229.54,365.47,245.58,330.42Z"/></g></g></svg>