<svg xmlns="http://www.w3.org/2000/svg" viewBox="0 0 309.58 512"><g data-name="Calque 2"><path d="M183.07 153.3c79.67-58.65-17.79-112 0-153.3-73.32 74.22 2.44 95.3 0 153.3zm-59.53 4.47c54.06-40.56-16.16-78.53 0-102.7-48.12 52.09-.77 57.18-.01 102.7zm186 40.19a14.91 14.91 0 00-14.88-14.88H14.88A14.91 14.91 0 000 198c0 50.6 7.44 224.74 81.86 309.58A13.51 13.51 0 0092.28 512h125a13.51 13.51 0 0010.42-4.47C302.14 424.19 309.58 250 309.58 198zm-110.1 270.88h-87.81a13.51 13.51 0 01-10.42-4.47c-50.6-59.53-56.56-178.6-58-220.28A14.91 14.91 0 0158 229.21h196.51a14.91 14.91 0 0114.88 14.88c0 41.67-7.44 159.26-58 220.28-4.51 2.98-7.48 4.47-11.95 4.47zm46.14-138.42c-6 40.19-17.86 86.33-43.16 116.09Q198 451 193.49 451h-74.42c-3 0-7.44-1.49-8.93-4.47-17.86-22.33-29.77-52.09-37.21-83.35 77.21 9.97 156.61 2.29 172.65-32.76z" fill="#8d6748" data-name="Calque 1"/></g></svg>