<svg xmlns="http://www.w3.org/2000/svg" viewBox="0 0 24.52 28"><defs><style>.cls-1{fill:#019639;}</style></defs><title>nginx</title><g id="Calque_2" data-name="Calque 2"><g id="Calque_1-2" data-name="Calque 1"><path class="cls-1" d="M24.1,6.77,13.24.53a10.41,10.41,0,0,0-1-.53h-.07c-.34.16-.65.35-1,.53L.39,6.78A.69.69,0,0,0,0,7.45V20.61a.7.7,0,0,0,.4.67L12,27.91a.59.59,0,0,0,.66,0l11.55-6.64a.81.81,0,0,0,.36-.51c0-4.39,0-8.78,0-13.16A.79.79,0,0,0,24.1,6.77ZM19.23,19.52A1.56,1.56,0,0,1,18,20.89a2.83,2.83,0,0,1-2.6-.78q-3.6-4.28-7.18-8.57c0,2.62,0,5.24,0,7.86a1.56,1.56,0,0,1-.68,1.29,1.65,1.65,0,0,1-2.06-.21A1.51,1.51,0,0,1,5,19.4V8.54A1.58,1.58,0,0,1,6.43,7,2.82,2.82,0,0,1,9.08,8.09c2.34,2.78,4.65,5.57,7,8.33,0-2.66,0-5.32,0-8a1.58,1.58,0,0,1,3.15,0Q19.24,14,19.23,19.52Z"/></g></g></svg>