<svg xmlns="http://www.w3.org/2000/svg" viewBox="0 0 24.52 28"><g data-name="Calque 2"><path d="M24.1 6.77L13.24.53a10.41 10.41 0 00-1-.53h-.07c-.34.16-.65.35-1 .53L.39 6.78a.69.69 0 00-.39.67v13.16a.7.7 0 00.4.67L12 27.91a.59.59 0 00.66 0l11.55-6.64a.81.81 0 00.36-.51V7.6a.79.79 0 00-.47-.83zm-4.87 12.75A1.56 1.56 0 0118 20.89a2.83 2.83 0 01-2.6-.78q-3.6-4.28-7.18-8.57v7.86a1.56 1.56 0 01-.68 1.29 1.65 1.65 0 01-2.06-.21A1.51 1.51 0 015 19.4V8.54A1.58 1.58 0 016.43 7a2.82 2.82 0 012.65 1.09c2.34 2.78 4.65 5.57 7 8.33v-8a1.58 1.58 0 013.15 0q.01 5.58 0 11.1z" fill="#019639" data-name="Calque 1"/></g></svg>