<svg xmlns="http://www.w3.org/2000/svg" viewBox="0 0 448.89 489.85"><defs><style>.cls-1{fill:#aa1bb6;fill-rule:evenodd;}</style></defs><path class="cls-1" d="M441.52,225.16l0,.23q-20.25,118-156.65,149.2c22.49,15.76,48.75,20,79.15,12.89Q278.84,419.05,213.61,390c7.66,27.11,25.62,46.67,54.15,59q-106.09-22.79-139-146.89c-11.2,14.78-10.35,39.42,2.49,74.33q-57.43-69.54-21.27-146.09Q147.94,146.23,248,163q135.84,149,174.88,86.93,17-53.17-35.08-130.67c-25-35.26-54.36-60-87.94-73.8C293,25.89,280.74,12.23,263.57,5.07c-12-5.57-23-6.66-32.7-2.72q-2.35,1-4.7,2c-15.41,6.6-41,17.56-69.53,6.74Q125-1,112.21,26.47,99.63,54.6,95.34,57q-6.51,5.07-27.6,10.52T41.32,84.3q-9.89,24-7.16,38.75c-3.16,12.2-8.25,20.43-15.25,24.51-1.53.89-3.08,1.77-4.64,2.62-7.34,4-11,6.07-12.85,14.71l-.15.7C-.81,175.32-1.5,178.54,8.52,211q-9.81,72.2,23.8,138.88c0-.05,31.33,78.25,117.58,119.07q137,56.67,244-40.17-63.37,12.78-93.16,1.88,113-8.24,148.12-110.12-47,36.28-72.59,42.08,43.74-27.87,60-64.11t5.24-73.33Zm-115-99.89c-6.88,8.88-16,29.56,2.44,41.19s10.24-2.93,3.82-11.66-6.26-29.53-6.26-29.53Z"/></svg>