<svg xmlns="http://www.w3.org/2000/svg" xmlns:xlink="http://www.w3.org/1999/xlink" width="535.15" height="464.15" viewBox="0 0 501.704 435.14"><defs><linearGradient id="a"><stop offset="0" stop-color="#699ad7"/><stop offset=".243" stop-color="#7eb1dd"/><stop offset="1" stop-color="#7ebae4"/></linearGradient><linearGradient id="b"><stop offset="0" stop-color="#415e9a"/><stop offset=".232" stop-color="#4a6baf"/><stop offset="1" stop-color="#5277c3"/></linearGradient><linearGradient xlink:href="#a" id="c" gradientUnits="userSpaceOnUse" gradientTransform="translate(70.65 -1055.151)" x1="200.597" y1="351.411" x2="290.087" y2="506.188"/><linearGradient xlink:href="#b" id="e" gradientUnits="userSpaceOnUse" gradientTransform="translate(864.696 -1491.34)" x1="-584.199" y1="782.336" x2="-496.297" y2="937.714"/></defs><g color="#000" fill-rule="evenodd"><path style="isolation:auto;mix-blend-mode:normal;solid-color:#000;solid-opacity:1" d="M153.065 222.938l122.197 211.675-56.157.527-32.624-56.869-32.856 56.565-27.903-.01-14.29-24.69 46.81-80.49-33.23-57.826z" overflow="visible" fill="#5277c3"/><path style="isolation:auto;mix-blend-mode:normal;solid-color:#000;solid-opacity:1" d="M197.17 135.747L74.954 347.41l-28.535-48.37 32.939-56.687-65.416-.172L0 218.01l14.236-24.72 93.112.293 33.464-57.69zm9.377 169.2l244.414.012-27.622 48.897-65.562-.181 32.559 56.737-13.961 24.158-28.528.032-46.301-80.784-66.693-.135zm142.257-92.745L226.608.527 282.765 0l32.623 56.87L348.245.303l27.902.01 14.291 24.69-46.81 80.49 33.229 57.826z" overflow="visible" fill="#7ebae4"/><path d="M153.065 222.938l122.197 211.675-56.157.527-32.624-56.869-32.856 56.565-27.903-.01-14.29-24.69 46.81-80.49-33.23-57.826zm141.933-93.28l-244.415-.012 27.623-48.897 65.562.182-32.56-56.737L125.17.035l28.527-.031 46.301 80.784 66.693.135zm9.535 169.69L426.751 87.685l28.534 48.37-32.938 56.688 65.415.171 13.942 24.17-14.237 24.721-93.112-.294-33.463 57.69z" style="isolation:auto;mix-blend-mode:normal;solid-color:#000;solid-opacity:1" overflow="visible" fill="#5277c3"/></g><g transform="translate(-156.339 933.19)"><path id="d" d="M309.549-710.388l122.197 211.675-56.157.527-32.624-56.87-32.856 56.566-27.903-.011-14.29-24.69 46.81-80.49-33.23-57.826z" opacity="1" fill="url(#c)" fill-opacity="1" fill-rule="evenodd" stroke="none" stroke-width="3" stroke-linecap="butt" stroke-linejoin="round" stroke-miterlimit="4" stroke-dasharray="none" stroke-opacity="1"/><use height="100%" width="100%" transform="rotate(60 407.112 -715.787)" xlink:href="#d"/><use height="100%" width="100%" transform="rotate(-60 407.312 -715.7)" xlink:href="#d"/><use height="100%" width="100%" transform="rotate(180 407.419 -715.756)" xlink:href="#d"/><path style="isolation:auto;mix-blend-mode:normal;solid-color:#000;solid-opacity:1" d="M309.549-710.388l122.197 211.675-56.157.527-32.624-56.87-32.856 56.566-27.903-.011-14.29-24.69 46.81-80.49-33.23-57.826z" id="f" color="#000" clip-rule="nonzero" display="inline" overflow="visible" visibility="visible" opacity="1" color-interpolation="sRGB" color-interpolation-filters="linearRGB" fill="url(#e)" fill-opacity="1" fill-rule="evenodd" stroke="none" stroke-width="3" stroke-linecap="butt" stroke-linejoin="round" stroke-miterlimit="4" stroke-dasharray="none" stroke-dashoffset="0" stroke-opacity="1" color-rendering="auto" image-rendering="auto" shape-rendering="auto" text-rendering="auto"/><use height="100%" width="100%" transform="rotate(120 407.34 -716.084)" xlink:href="#f"/><use height="100%" width="100%" transform="rotate(-120 407.288 -715.87)" xlink:href="#f"/></g></svg>