<svg xmlns="http://www.w3.org/2000/svg" viewBox="0 0 24.83 28"><defs><style>.cls-1{fill:#96ae60;}</style></defs><title>node</title><g id="Calque_2" data-name="Calque 2"><g id="Calque_1-2" data-name="Calque 1"><path class="cls-1" d="M12.42,28a2.15,2.15,0,0,1-1.08-.29l-3.42-2c-.51-.29-.26-.39-.09-.45a6.83,6.83,0,0,0,1.55-.7.26.26,0,0,1,.26,0l2.63,1.56a.34.34,0,0,0,.32,0L22.84,20.2a.32.32,0,0,0,.16-.28V8.07a.33.33,0,0,0-.16-.28L12.57,1.87a.32.32,0,0,0-.32,0L2,7.79a.33.33,0,0,0-.16.28V19.92a.32.32,0,0,0,.16.27l2.81,1.62c1.52.76,2.46-.14,2.46-1V9.08a.3.3,0,0,1,.3-.3h1.3a.3.3,0,0,1,.3.3h0V20.78c0,2-1.11,3.2-3,3.2a4.39,4.39,0,0,1-2.36-.64l-2.7-1.55A2.17,2.17,0,0,1,0,19.92V8.07A2.16,2.16,0,0,1,1.08,6.2L11.34.28a2.25,2.25,0,0,1,2.16,0L23.75,6.2a2.17,2.17,0,0,1,1.08,1.87V19.92a2.17,2.17,0,0,1-1.08,1.87L13.49,27.71A2.15,2.15,0,0,1,12.42,28Z"/><path class="cls-1" d="M10.47,16a.3.3,0,0,1,.3-.3H12.1a.3.3,0,0,1,.3.25c.2,1.35.8,2,3.51,2,2.16,0,3.08-.49,3.08-1.64,0-.66-.26-1.15-3.62-1.48-2.81-.28-4.54-.9-4.54-3.14,0-2.07,1.75-3.31,4.67-3.31,3.29,0,4.91,1.14,5.12,3.59a.3.3,0,0,1-.28.32H19a.3.3,0,0,1-.29-.23c-.32-1.42-1.1-1.87-3.2-1.87-2.36,0-2.63.82-2.63,1.44s.32,1,3.51,1.39S21,14,21,16.22s-1.86,3.52-5.11,3.52C11.41,19.74,10.47,17.68,10.47,16Z"/></g></g></svg>