<svg viewBox="0 0 20.28 24" xmlns="http://www.w3.org/2000/svg"><path d="m2 2a2 2 0 0 0 -2 2v18a2 2 0 0 0 2 2h14a2 2 0 0 0 2-2v-18a2 2 0 0 0 -2-2z" fill="#bdc3c7"/><g fill="#95a5a6"><path d="m3 0a1 1 0 0 0 -1 1v3a1 1 0 0 0 1 1 1 1 0 0 0 1-1v-3a1 1 0 0 0 -1-1zm4 0a1 1 0 0 0 -1 1v3a1 1 0 0 0 2 0v-3a1 1 0 0 0 -1-1zm4 0a1 1 0 0 0 -1 1v3a1 1 0 0 0 2 0v-3a1 1 0 0 0 -1-1zm4 0a1 1 0 0 0 -1 1v3a1 1 0 0 0 2 0v-3a1 1 0 0 0 -1-1z"/><path d="m3 15h12v1h-12z"/><path d="m3 12h12v1h-12z"/><path d="m3 9h12v1h-12z"/><path d="m3 18h4v1h-4z"/></g><path d="m2 4a1 1 0 0 0 1 1 1 1 0 0 0 1-1zm4 0a1 1 0 0 0 2 0zm4 0a1 1 0 0 0 2 0zm4 0a1 1 0 0 0 2 0z" fill="#7f8c8d"/><path d="m0 21v1a2 2 0 0 0 2 2h14a2 2 0 0 0 2-2v-1a2 2 0 0 1 -2 2h-14a2 2 0 0 1 -2-2z" fill="#95a5a6"/><path d="m16.16 7-8 8-.49.49-.67.67v2.84h2.79l.71-.71.49-.49 8-8z" fill="#ecf0f1"/><path d="m17.57 8.38-10.57 10.62h2.79l.71-.71.49-.49 8-8z" fill="#bdc3c7"/><path d="m7.48 10.98h11v4h-11z" fill="#e67e22" transform="matrix(.70710678 -.70710678 .70710678 .70710678 -5.38 12.98)"/><path d="m19.69 6.26a2 2 0 0 0 -2.83 0l-.7.74 2.84 2.79.71-.71a2 2 0 0 0 -.02-2.82z" fill="#7f8c8d"/><path d="m7 17v2h2l-1-1z" fill="#34495e"/><path d="m8 18-1 1h2z" fill="#2c3e50"/><path d="m19.69 6.26a2 2 0 0 0 -2.83 0l-.7.74 1.41 1.41z" fill="#95a5a6"/><path d="m8.18 12.68h11v2h-11z" fill="#d35400" transform="matrix(.70710678 -.70710678 .70710678 .70710678 -5.67 13.68)"/></svg>