<svg xmlns="http://www.w3.org/2000/svg" viewBox="0 0 20.28 24"><defs><style>.cls-1{fill:#bdc3c7;}.cls-2{fill:#95a5a6;}.cls-3{fill:#7f8c8d;}.cls-4{fill:#ecf0f1;}.cls-5{fill:#e67e22;}.cls-6{fill:#34495e;}.cls-7{fill:#2c3e50;}.cls-8{fill:#d35400;}</style></defs><title>notepad</title><g id="Calque_2" data-name="Calque 2"><g id="Calque_1-2" data-name="Calque 1"><path class="cls-1" d="M2,2A2,2,0,0,0,0,4V22a2,2,0,0,0,2,2H16a2,2,0,0,0,2-2V4a2,2,0,0,0-2-2H2Z"/><path class="cls-2" d="M3,0A1,1,0,0,0,2,1V4A1,1,0,0,0,3,5,1,1,0,0,0,4,4V1A1,1,0,0,0,3,0ZM7,0A1,1,0,0,0,6,1V4A1,1,0,0,0,8,4V1A1,1,0,0,0,7,0Zm4,0a1,1,0,0,0-1,1V4a1,1,0,0,0,2,0V1A1,1,0,0,0,11,0Zm4,0a1,1,0,0,0-1,1V4a1,1,0,0,0,2,0V1A1,1,0,0,0,15,0Z"/><rect class="cls-2" x="3" y="15" width="12" height="1"/><rect class="cls-2" x="3" y="12" width="12" height="1"/><rect class="cls-2" x="3" y="9" width="12" height="1"/><rect class="cls-2" x="3" y="18" width="4" height="1"/><path class="cls-3" d="M2,4A1,1,0,0,0,3,5,1,1,0,0,0,4,4ZM6,4A1,1,0,0,0,8,4Zm4,0a1,1,0,0,0,2,0Zm4,0a1,1,0,0,0,2,0Z"/><path class="cls-2" d="M0,21v1a2,2,0,0,0,2,2H16a2,2,0,0,0,2-2V21a2,2,0,0,1-2,2H2A2,2,0,0,1,0,21Z"/><path class="cls-4" d="M16.16,7l-8,8-.49.49L7,16.16V19H9.79l.71-.71.49-.49,8-8Z"/><path class="cls-1" d="M17.57,8.38,7,19H9.79l.71-.71.49-.49,8-8Z"/><rect class="cls-5" x="7.48" y="10.98" width="11" height="4" transform="translate(-5.38 12.98) rotate(-45)"/><path class="cls-3" d="M19.69,6.26a2,2,0,0,0-2.83,0L16.16,7,19,9.79l.71-.71A2,2,0,0,0,19.69,6.26Z"/><path class="cls-6" d="M7,17v2h2L8,18Z"/><path class="cls-7" d="M8,18,7,19h2Z"/><path class="cls-2" d="M19.69,6.26a2,2,0,0,0-2.83,0L16.16,7l1.41,1.41Z"/><rect class="cls-8" x="8.18" y="12.68" width="11" height="2" transform="translate(-5.67 13.68) rotate(-45)"/></g></g></svg>
