<svg xmlns="http://www.w3.org/2000/svg" viewBox="0 0 512 512"><g data-name="Calque 2"><path d="M486.91 256.81L377.42 361.75l109.49 104.94zm-11.09-10.63h-219l109.51 104.94zm0-15L366.34 126.2l-109.5 104.94zM347.4 123.08h-219L237.91 228zM486.91 10.63L377.42 115.57l109.49 104.94zM347.4 108L237.91 3.11 128.42 108zM219 0H0l109.49 104.94zM25.09 255.2l109.48-104.95L25.09 45.31zm120.58-94.31L36.18 265.83h219zm-109.49 120l109.48 104.92 109.49-104.95zm-11.09 10.6v209.88l109.48-104.93zm358.49 97.43L274.09 284 164.6 388.92zm-219 15l109.51 104.97L383.57 404zM293 512h219L402.51 407.07z" fill="#765f89" data-name="Calque 1"/></g></svg>