<svg xmlns="http://www.w3.org/2000/svg" viewBox="0 0 512 512"><defs><style>.cls-1{fill:#765f89;}</style></defs><title>nsis</title><g id="Calque_2" data-name="Calque 2"><g id="Calque_1-2" data-name="Calque 1"><path class="cls-1" d="M486.91,256.81,377.42,361.75,486.91,466.69Zm-11.09-10.63h-219L366.33,351.12Zm0-15L366.34,126.2,256.84,231.14ZM347.4,123.08h-219L237.91,228ZM486.91,10.63,377.42,115.57,486.91,220.51ZM347.4,108,237.91,3.11,128.42,108ZM219,0H0L109.49,104.94ZM25.09,255.2,134.57,150.25,25.09,45.31Zm120.58-94.31L36.18,265.83h219Zm-109.49,120L145.66,385.81,255.15,280.86ZM25.09,291.49V501.37L134.57,396.44Zm358.49,97.43L274.09,284,164.6,388.92Zm-219,15L274.09,508.89,383.57,404ZM293,512H512L402.51,407.07Z"/></g></g></svg>