<svg xmlns="http://www.w3.org/2000/svg" viewBox="0 0 28 28"><defs><style>.cls-1{fill:#0277bd;}</style></defs><title>nuget</title><g id="Calque_2" data-name="Calque 2"><g id="Calque_1-2" data-name="Calque 1"><path class="cls-1" d="M21.38,5.33H12.31a6.72,6.72,0,0,0-6.62,6.8V21.2A6.72,6.72,0,0,0,12.31,28h9.07A6.72,6.72,0,0,0,28,21.2V12.13A6.72,6.72,0,0,0,21.38,5.33Zm-10,9.37a3,3,0,0,1-3-3s0,0,0,0a3,3,0,0,1,2.95-3h0a3,3,0,0,1,.07,6Zm13.91,6.11A4.69,4.69,0,1,1,20.64,16a4.69,4.69,0,0,1,4.69,4.78Z"/><path class="cls-1" d="M0,2.44A2.41,2.41,0,1,0,2.41,0,2.41,2.41,0,0,0,0,2.44"/></g></g></svg>