<svg xmlns="http://www.w3.org/2000/svg" viewBox="0 0 20.77 20.26"><defs><style>.cls-1{fill:#019639;}</style></defs><title>nunjucks</title><g id="Calque_2" data-name="Calque 2"><g id="Calque_1-2" data-name="Calque 1"><path class="cls-1" d="M0,0H3.45L6,8.28C6,5.52,6,2.76,6,0h3.5V20.25H6L3.48,11.44v8.81H0Q0,10.13,0,0Z"/><path class="cls-1" d="M17.26,4.8h3.51V18a2.14,2.14,0,0,1-.34,1.21,2.22,2.22,0,0,1-1.25.93,4.06,4.06,0,0,1-1.08.08H13.34a2.08,2.08,0,0,1-1.19-.37,2.19,2.19,0,0,1-.86-1.22,4.19,4.19,0,0,1-.08-1.1V13.88l3.51-.81v3.67h2.53Z"/></g></g></svg>