<svg xmlns="http://www.w3.org/2000/svg" viewBox="0 0 335.25 180.79"><path fill="#76b900" d="M145.47,0c-1.27,0-2.55,0-3.84.06-2.14.08-4.28.28-6.41.44h0C62.7,6.34,0,67.75,0,67.75S35.49,170.49,135.22,179.91c4.79.46,9.74.88,14.81.88,52.61,0,145.4-26.95,185.22-60.28-5.84-5.93-34.31-19.44-41.25-25-41.87,36.15-85.17,66.69-145,66.69a109.79,109.79,0,0,1-13.81-.88C62,152.11,37,71.41,37,71.41s32.73-48.34,98.19-53.34c2.11-.15,4.24-.21,6.41-.28.92,0,1.83-.06,2.75-.06,57.71-.18,95.47,50.9,95.47,50.9s-42,58.41-87,58.41a55.22,55.22,0,0,1-17.6-2.93C104,113.63,94,77.36,94,77.36s18.1-21.66,41.25-18.88,27.85,13,41.72,36.16l30.78-26.16S185.25,39,147.28,39a114.76,114.76,0,0,0-12.06.72C91.11,44.5,64.63,73.86,64.63,73.86s15.29,57.55,70.59,67.41a94.32,94.32,0,0,0,16.57,1.47c64.26,0,125.94-75,125.94-75S225.73-.5,145.48,0"/></svg>
