<svg xmlns="http://www.w3.org/2000/svg" viewBox="0 0 28 24.4"><defs><style>.cls-1{fill:#fff;}.cls-2{fill:#d28445;}</style></defs><title>ocaml</title><g id="Calque_2" data-name="Calque 2"><g id="Calque_1-2" data-name="Calque 1"><path class="cls-1" d="M14.57,21.45a4.28,4.28,0,0,0,0-.71c-.06-.2-.2-.22-.3-.37a3.51,3.51,0,0,1-.53-1.48c0-.45-.2-.89-.22-1.34,0-.22,0-.45,0-.67a2,2,0,0,0,0-.32,1.13,1.13,0,0,0,0-.2l.06-.14a2.72,2.72,0,0,1,.65,0l.77,0a8,8,0,0,0,1.54-.06,3.72,3.72,0,0,0,1.95-.85,5,5,0,0,0,1.54-2c.18-.39.18-1.08.55-1.4s1.18-.34,1.69-.57a1.19,1.19,0,0,1,.81-.14c.22,0,.63.31.73-.06-.08,0-.1-.14-.14-.18.41,0,0-1-.16-1.2a2.22,2.22,0,0,0-1.14-.55A3.51,3.51,0,0,0,20.71,9c-.89.18-.83-.34-1.34-.34s-1.73,0-1.93.63a1.54,1.54,0,0,1-.33.51c-.14.18,0,.35,0,.57s-.18,1-.28,1.26c-.18.45-.39,1-.79,1a3.15,3.15,0,0,1-1.44-.08l-.94-.33c-1-.43-1.2-.91-1.2-.91a3,3,0,0,1-.51-.87c-.12-.41-.31-.77-.39-1s-.3-.59-.45-1a2.67,2.67,0,0,0-.71-1.06c-.31-.28-.61-.73-1.26-.59a1.64,1.64,0,0,0-.87.31c-.22.18-.3.57-.49.89s-.31.71-.51,1.16a1.93,1.93,0,0,1-.34.65c-.12.08-.26.2-.41.14a.92.92,0,0,1-.31-.2,5.33,5.33,0,0,1-.71-1.12,11.1,11.1,0,0,0-.79-1.24,1,1,0,0,0-1-.55c-1,0-1.1.57-1.56,1.42a5.57,5.57,0,0,1-.67,1.4C1.22,9.93.51,11,0,11.19H0v7.62a2.85,2.85,0,0,1,.1-.28c.2-.41.65-.81.91-1.22a3.5,3.5,0,0,0,.37-.71,3.74,3.74,0,0,1,.24-.71.79.79,0,0,1,.57-.33c.35-.06.65.49,1.08.71.2.08,1.06.39,1.32.45.43.1.91.2,1.34.28.24,0,.45.08.71.1a7.3,7.3,0,0,1,1.08.1,2.28,2.28,0,0,0-.81,1.22c-.16.43-.28.92-.47,1.34s-.67.67-.61,1.22a2.67,2.67,0,0,1,0,.69,4,4,0,0,1-.22.69c-.1.32-.22,1.36-.35,1.67l.91-.12h0a10.69,10.69,0,0,0,.21-1.33,3.74,3.74,0,0,1,.73-1.28c.34-.37.31-.85.51-1.3a12.49,12.49,0,0,1,.77-1.3c.49-.81.81-1.81,1.85-2a3.3,3.3,0,0,1,1,.71,4.45,4.45,0,0,1,.89,1.1,12.85,12.85,0,0,1,.89,2.68,1.23,1.23,0,0,0,.39.71,5.46,5.46,0,0,1,.43.73c.08.18.2.57.3.79a6.27,6.27,0,0,1,.32.83l.85,0h0v0A9.75,9.75,0,0,1,14.57,21.45Z"/><path class="cls-2" d="M14.22,23.44c-.1-.2-.22-.61-.3-.79a5.46,5.46,0,0,0-.43-.73,1.12,1.12,0,0,1-.39-.71,12.49,12.49,0,0,0-.89-2.68,4.45,4.45,0,0,0-.89-1.1,3.3,3.3,0,0,0-1-.71c-1,.2-1.36,1.22-1.85,2a12.49,12.49,0,0,0-.77,1.3c-.2.43-.18.92-.51,1.3a3.44,3.44,0,0,0-.73,1.28c0,.1-.12,1.08-.22,1.32h0l1.54-.1c1.44.1,1,.65,3.25.53l3.52-.12h0A6.27,6.27,0,0,0,14.22,23.44Z"/><path class="cls-2" d="M24.46,0H3.54A3.52,3.52,0,0,0,0,3.52H0v7.68H0C.53,11,1.24,9.95,1.48,9.69a5.91,5.91,0,0,0,.67-1.4c.45-.83.53-1.42,1.56-1.42a1,1,0,0,1,1,.55,9.55,9.55,0,0,1,.79,1.24,4.85,4.85,0,0,0,.71,1.12,2,2,0,0,0,.31.2c.16.06.3-.06.41-.14a1.93,1.93,0,0,0,.33-.65c.2-.45.39-1,.51-1.16s.28-.71.49-.89a1.59,1.59,0,0,1,.87-.31c.65-.14.94.31,1.26.59a3.29,3.29,0,0,1,.71,1.06c.16.39.35.77.45,1a9,9,0,0,1,.39,1,3.71,3.71,0,0,0,.51.87s.18.47,1.2.91a8.75,8.75,0,0,0,.95.33,3.15,3.15,0,0,0,1.44.08c.39,0,.61-.57.79-1,.1-.28.22-1,.28-1.26s-.1-.37,0-.57.26-.24.33-.51c.2-.61,1.3-.63,1.93-.63s.45.51,1.34.34a3.24,3.24,0,0,1,1.54.22,2.22,2.22,0,0,1,1.14.55c.16.2.57,1.16.16,1.2,0,0,.08.14.14.18-.1.37-.49.1-.73.06a1.19,1.19,0,0,0-.81.14c-.51.22-1.24.2-1.69.57s-.37,1-.55,1.4a5.17,5.17,0,0,1-1.54,2,3.9,3.9,0,0,1-1.95.85,8,8,0,0,1-1.54.06c-.26,0-.51,0-.77,0s-.67,0-.65,0l-.06.14a.7.7,0,0,0,0,.2c0,.12,0,.22,0,.32s0,.45,0,.67c0,.45.2.87.22,1.34a3.26,3.26,0,0,0,.53,1.48c.1.16.24.18.3.37a4.16,4.16,0,0,1,0,.71,9.68,9.68,0,0,0,.83,2.76v0h0c.51-.08,1-.28,1.71-.37,1.24-.18,3-.1,4.06-.2,2.8-.26,4.31,1.14,6.81.57V3.53A3.55,3.55,0,0,0,24.46,0Z"/><path class="cls-2" d="M6.48,19.77c.2-.43.31-.91.47-1.34a2.28,2.28,0,0,1,.81-1.22,7.3,7.3,0,0,0-1.08-.1c-.24,0-.47-.06-.71-.1-.43-.08-.93-.18-1.34-.28-.26-.06-1.14-.37-1.32-.45-.45-.2-.75-.77-1.08-.71a.79.79,0,0,0-.57.33,3.74,3.74,0,0,0-.24.71c-.1.24-.26.47-.37.71a12.29,12.29,0,0,0-.92,1.2c0,.1-.06.2-.1.3v4.74a5.4,5.4,0,0,1,.73.16,8.77,8.77,0,0,0,4.37.35l.18,0h0c.14-.32.26-1.36.35-1.67a5.49,5.49,0,0,0,.22-.69,2.67,2.67,0,0,0,0-.69C5.81,20.44,6.26,20.25,6.48,19.77Z"/></g></g></svg>