<svg viewBox="0 0 256 292" xmlns="http://www.w3.org/2000/svg"><path d="M203.574 139.856l-17.749-35.754 5.659 23.922 12.09 11.832z" fill="#73B08F"/><path d="M182.745 91.572l13.7 57.875-44.057-46.557-64.205-59.934L71.796 0l110.949 91.572z" fill="#C5E4D3"/><path d="M155.917 104.324l-57.694-27.66-31.496-33.836-4.12-22.29 93.31 83.786z" fill="#76C39B"/><path d="M200.05 151.985L145.588 138.1 40.848 77.85 0 21.79l157.108 83.304 42.943 46.89z"/><path d="M143.09 136.501v1.609l-7.034 13.138-36.736-12.066-68.263-51.211L4.482 49.897 34.965 68.13l4.69 7.239 103.436 61.132z" fill="#73B08F"/><path d="M44.121 98.01l-5.081-.591-17.786-6.496 36.418 33.366 9.599 7.382 38.112 12.697L44.12 98.009z" stroke="#000" stroke-width="1.122"/><path d="M193.433 149.497l-.772 29.57-2.83-4.833-16.462-1.138-38.069-21.893 8.746-15.354 49.387 13.648z" fill="#76C39B"/><path d="M38.498 116.924l47.387 36.213 49.219 16.383 37.962 3.448-37.7-21.842-96.868-34.202z" fill="#C5E4D3"/><path d="M61.477 145.772L94.4 164.035l38.327 3.858-46.3-14.404-7.46-4.63-17.491-3.087z" fill="#76C39B"/><path d="M134.642 167.152l-53.874-4.7 27.753 10.652 18.23 2.506 7.89-8.458z" fill="#73B08F"/><path d="M122.439 175.457l-4.63.683-21.607 3.071 10.546-7.167 15.69 3.413zm34.507 4.668l-1.055 1.87-78.854 45.691-15.56 20.575 5.538-22.178 17.142-23.513 49.054-33.133 23.735 10.688z" fill="#76C39B"/><path d="M70.737 202.619l-13.89 18.263v-7.974l13.89-10.29z"/><path d="M185.202 183.327L132.47 219.08l-4.373-7.46-18.263 38.584 4.115 5.66 3.087 35.753-22.121-40.898 18.006-44.243 43.985-27.266 28.295 4.116z" fill="#C5E4D3"/><path d="M112.922 205.705l-35.24 19.035-1.03 26.237 10.804 35.24V268.21l25.466-62.506z"/><path d="M69.193 256.121l.515 1.801 4.63 19.549-6.174-3.858 1.03-17.492zm64.191-39.551l-4.727-5.833-19.742 37.39 31.42 41.102-7.785-18.297.834-54.361z" fill="#73B08F"/><path d="M137.1 214.338l-4.115 2.158-.257 44.787 7.717 16.188 14.404-5.396-.514-10.792-15.691-15.379-1.543-31.566z" fill="#76C39B"/><path d="M208.13 182.778l-23.923 6.688-25.98 22.121-14.147-.514 40.899-27.523 23.15-.772z"/><path d="M198.297 185.733L190.8 171.94l-67.469-5.282 30.254 12.618 44.712 6.456zm-39.332 24.997l3.344 7.887 7.202 5.167h1.286l-.514 8.43-22.122 9.246-7.46-17.132-2.057-10.062 6.688-5.439 13.633 1.904z" fill="#73B08F"/><path d="M170.797 255.092l-13.376-5.916-5.144 10.547 1.8 2.572-.257 11.318 9.775 11.06-1.544-20.835 2.315-1.029 7.717 7.46-3.601-8.489-8.231-4.372 1.8-3.087 8.746 3.858v-3.087zm3.343-43.985l-5.144 12.347 1.03 10.546 10.546 13.119-1.287-21.093 1.544-1.029 8.23 7.203-3.343-7.974-9.26-4.888 1.543-2.572 9.518 4.116-.258-3.601-13.118-6.174z"/><path d="M221.727 156.576l-28.551-6.688v26.751l3.343 5.916 25.208.257 23.922 8.232-.771-3.344-14.662-8.489-29.324-11.575 16.72-.257-16.205-7.46 20.32-3.343z" fill="#C5E4D3"/><path d="M255.03 181.03l-10.803-17.492-24.694-7.46-19.549 3.602 15.434 7.716-14.405.515 27.009 11.575 15.433 7.46 11.575-5.917z" fill="#73B08F"/><path d="M240.952 201.847l4.116-6.173-3.087-7.974 12.861-7.203.257 14.662-7.716 6.945-6.431-.257z"/><path d="M251.265 178.836l-8.828-4.12-4.709 4.12" stroke="#000" stroke-width=".3"/></svg>