<svg xmlns="http://www.w3.org/2000/svg" viewBox="0 0 80.65 139"><defs><style>.cls-1{fill:#7fb241;}.cls-2{fill:#719c40;}</style></defs><path class="cls-1" d="M21,116.4c-6.85-28.49,8.2-55.1,24.65-70.63C28.18,78.2,24.84,102.26,35.93,139l6.44-2.4a91.1,91.1,0,0,1-4.74-20.35c23.13-6.62,39-20.26,42.8-44.75C83.06,38,61.28,18.56,37.88,0,46.43,27.42,5.34,50.48,9,87a149.4,149.4,0,0,0,3.73,22"/><path class="cls-2" d="M10.77,86.78C13.35,50.47,49,27.5,37.88,0,41.8,23.09,10.43,34.79,2.3,62.37-2.12,78.77-.93,94.55,12.68,109A75.59,75.59,0,0,1,10.77,86.78Z"/></svg>
