<svg xmlns="http://www.w3.org/2000/svg" viewBox="0 0 423.91 512"><defs><style>.cls-1{fill:#0277bd;}</style></defs><title>prisma</title><g id="Calque_2" data-name="Calque 2"><g id="Calque_1-2" data-name="Calque 1"><path class="cls-1" d="M381.39,405.89,151.72,473.81a9.63,9.63,0,0,1-12.27-11.07l82-392.93c1.53-7.35,11.69-8.51,14.9-1.71l151.92,322.6a11,11,0,0,1-6.92,15.19Zm39.39-16L244.88,16.33c-11.59-21.69-39-20.9-49.75-2.75L4.35,322.57a28.9,28.9,0,0,0,.34,31L97.94,498c9.62,11.46,18.51,16.87,33.69,12.38l270.69-80.06C420.35,425,429,407.54,420.77,389.86Z"/></g></g></svg>