<svg xmlns="http://www.w3.org/2000/svg" viewBox="0 0 1024 1024"><style>.st0{display:none}.st4{display:inline;opacity:.1;fill:red;stroke:#fff;stroke-miterlimit:10}</style><g id="Dark"><path fill="#14161a" d="M0 0h1024v1024H0z" id="Background"/><path d="M691.29 698.7l-66.58-62.17H332.33l66.58 62.17zM398.91 480.75l-66.58 62.17h292.38l66.58-62.17zm292.36-93.63l-66.56-62.19H332.35l66.56 62.19zm-389.71 61.54l-43.98-43.99L94.49 567.73c-5.86 5.85-9.09 13.68-9.08 21.99 0 8.31 3.22 16.12 9.08 21.97l163.08 163.08 43.98-43.97-141.08-141.07 141.09-141.07zm627.57-36.71L766.1 248.85l-43.97 43.99 141.01 141.09-141 141.09 43.97 43.97 163.02-163.04c5.88-5.9 9.12-13.72 9.12-22.03-.03-8.32-3.25-16.11-9.12-21.97z" fill="#fff" id="Logo_Kopie"/></g><g id="LIght" class="st0"><path d="M691.29 698.7l-66.58-62.17H332.33l66.58 62.17zM398.91 480.75l-66.58 62.17h292.38l66.58-62.17zm292.36-93.63l-66.56-62.19H332.35l66.56 62.19zm-389.71 61.54l-43.98-43.99L94.49 567.73c-5.86 5.85-9.09 13.68-9.08 21.99 0 8.31 3.22 16.12 9.08 21.97l163.08 163.08 43.98-43.97-141.08-141.07 141.09-141.07zm627.57-36.71L766.1 248.85l-43.97 43.99 141.01 141.09-141 141.09 43.97 43.97 163.02-163.04c5.88-5.9 9.12-13.72 9.12-22.03-.03-8.32-3.25-16.11-9.12-21.97z" id="Logo" display="inline"/></g><g id="Grid" class="st0"><path class="st4" d="M-.34-1h170.72v1024H-.34zm170.72 0H341.1v1024H170.38zm170.73 0h170.72v1024H341.11z"/><path class="st4" d="M511.83-1h170.72v1024H511.83zm170.72 0h170.72v1024H682.55zm170.73 0H1024v1024H853.28z"/><path transform="rotate(90 511.83 84.192)" class="st4" d="M426.47-427.81h170.72v1024H426.47z"/><path transform="rotate(90 511.83 254.915)" class="st4" d="M426.47-257.09h170.72v1024H426.47z"/><path transform="rotate(90 511.83 425.638)" class="st4" d="M426.47-86.36h170.72v1024H426.47z"/><path transform="rotate(90 511.83 596.362)" class="st4" d="M426.47 84.36h170.72v1024H426.47z"/><path transform="rotate(90 511.83 767.085)" class="st4" d="M426.47 255.09h170.72v1024H426.47z"/><path transform="rotate(90 511.83 937.808)" class="st4" d="M426.47 425.81h170.72v1024H426.47z"/><path class="st4" d="M938.64 0H1024v1024h-85.36z"/></g></svg>