<svg xmlns="http://www.w3.org/2000/svg" viewBox="0 0 28 28"><defs><style>.cls-1{fill:#e64a19;}.cls-2{fill:#fff;}</style></defs><title>reason</title><g id="Calque_2" data-name="Calque 2"><g id="Calque_1-2" data-name="Calque 1"><polyline class="cls-1" points="0 0 28 0 28 28 0 28 0 0"/><path class="cls-2" d="M7.05,15.53h5.07a5,5,0,0,1,3,1,3.29,3.29,0,0,1,1.13,2.27,4.12,4.12,0,0,1-.78,3,3.6,3.6,0,0,1-1.14.91l2.25,3.55H13.5l-1.6-3H9.75v3H7.05V15.53m2.69,2.13v3.44h2a2.18,2.18,0,0,0,1.47-.45,1.81,1.81,0,0,0,.48-1.54,1.47,1.47,0,0,0-.7-1.18,2.77,2.77,0,0,0-1.44-.27Zm8.38-2.13h8.35v2.13H20.82V19.8h5.11v2.12H20.82V24.1h5.82v2.14H18.13Z"/></g></g></svg>