<svg xmlns="http://www.w3.org/2000/svg" viewBox="0 0 28 28"><g data-name="Calque 2"><g data-name="Calque 1"><path fill="#e64a19" d="M0 0h28v28H0V0"/><path d="M7.05 15.53h5.07a5 5 0 013 1 3.29 3.29 0 011.13 2.27 4.12 4.12 0 01-.78 3 3.6 3.6 0 01-1.14.91l2.25 3.55H13.5l-1.6-3H9.75v3h-2.7V15.53m2.69 2.13v3.44h2a2.18 2.18 0 001.47-.45 1.81 1.81 0 00.48-1.54 1.47 1.47 0 00-.7-1.18 2.77 2.77 0 00-1.44-.27zm8.38-2.13h8.35v2.13h-5.65v2.14h5.11v2.12h-5.11v2.18h5.82v2.14h-8.51z" fill="#fff"/></g></g></svg>