<svg xmlns="http://www.w3.org/2000/svg" viewBox="0 0 23.87 32"><defs><style>.cls-1{fill:#e64a19;}</style></defs><title>rollup</title><g id="Calque_2" data-name="Calque 2"><g id="Calque_1-2" data-name="Calque 1"><path class="cls-1" d="M.49,0A.49.49,0,0,0,0,.5v26a79.63,79.63,0,0,1,4.18-8.71c7.6-14,8.6-15.38,12.56-15.38A7.22,7.22,0,0,1,22.27,5,10.61,10.61,0,0,0,13.4,0Zm17,3.39a3.69,3.69,0,0,0-3.6,2c-1.29,3,2.17,6.35,3.68,6.09,1.92-.34-.34-4.75-.34-4.75,2.94,5.54,2.26,3.84-3.06,8.93S3.4,31.49,2.6,31.94L2.5,32H23.34a.5.5,0,0,0,.44-.71L18.33,20.49a.49.49,0,0,1,.19-.65,10.63,10.63,0,0,0,4-14.44,7.29,7.29,0,0,0-5-2Z"/></g></g></svg>