<svg xmlns="http://www.w3.org/2000/svg" viewBox="0 0 23.87 32"><g data-name="Calque 2"><path d="M.49 0A.49.49 0 000 .5v26a79.63 79.63 0 014.18-8.71c7.6-14 8.6-15.38 12.56-15.38A7.22 7.22 0 0122.27 5a10.61 10.61 0 00-8.87-5zm17 3.39a3.69 3.69 0 00-3.6 2c-1.29 3 2.17 6.35 3.68 6.09 1.92-.34-.34-4.75-.34-4.75 2.94 5.54 2.26 3.84-3.06 8.93S3.4 31.49 2.6 31.94l-.1.06h20.84a.5.5 0 00.44-.71l-5.45-10.8a.49.49 0 01.19-.65 10.63 10.63 0 004-14.44 7.29 7.29 0 00-5-2z" fill="#e64a19" data-name="Calque 1"/></g></svg>