<svg xmlns="http://www.w3.org/2000/svg" viewBox="0 0 43.4 43.4"><g data-name="Calque 2"><path d="M21.7 0a21.7 21.7 0 0121.7 21.7 21.7 21.7 0 01-21.7 21.7A21.7 21.7 0 010 21.7 21.7 21.7 0 0121.7 0z" fill="#0277bd"/><path d="M26.77 33.09l-4.87-9.54q-.45.06-.93.09H18.8l-1.22-.12v7.85l3.49 1.11v.63h-9.13v-.63l2.84-1.11V12.05l-2.84-1.11v-.63h8.7a12.54 12.54 0 013.57.46 7.63 7.63 0 012.63 1.28 5.48 5.48 0 011.64 2 5.89 5.89 0 01.52 2.59 6.53 6.53 0 01-1.08 3.71 6.66 6.66 0 01-3.17 2.46l4.5 8.77 2.27.88v.63h-4.75m-5.69-21.16h-3.46v9.93l1.19.12h1.11q6 0 6-5.13a5.06 5.06 0 00-1.24-3.72 4.83 4.83 0 00-3.57-1.24" fill="#ecf0f1"/></g></svg>