<svg xmlns="http://www.w3.org/2000/svg" viewBox="0 0 43.4 43.4"><defs><style>.cls-1{fill:#0277bd;}.cls-2{fill:#ecf0f1;}</style></defs><title>rstudio</title><g id="Calque_2" data-name="Calque 2"><g id="svg2"><g id="layer1"><path id="rect4118" class="cls-1" d="M21.7,0h0A21.7,21.7,0,0,1,43.4,21.7h0A21.7,21.7,0,0,1,21.7,43.4h0A21.7,21.7,0,0,1,0,21.7H0A21.7,21.7,0,0,1,21.7,0Z"/><g id="text3772"><path id="path3777" class="cls-2" d="M26.77,33.09,21.9,23.55q-.45.06-.93.09c-.31,0-.63,0-1,0s-.77,0-1.17,0l-1.22-.12v7.85l3.49,1.11v.63H11.94v-.63l2.84-1.11V12.05l-2.84-1.11v-.63h8.7a12.54,12.54,0,0,1,3.57.46,7.63,7.63,0,0,1,2.63,1.28,5.48,5.48,0,0,1,1.64,2A5.89,5.89,0,0,1,29,16.64a6.53,6.53,0,0,1-1.08,3.71,6.66,6.66,0,0,1-3.17,2.46l4.5,8.77,2.27.88v.63H26.77M21.08,11.93H17.62v9.93l1.19.12,1.11,0q6,0,6-5.13a5.06,5.06,0,0,0-1.24-3.72,4.83,4.83,0,0,0-3.57-1.24"/></g></g></g></g></svg>