<svg xmlns="http://www.w3.org/2000/svg" viewBox="0 0 442.96 512"><defs><style>.cls-1{fill:#0277bd;}.cls-2{fill:#42a5f5;}</style></defs><title>sequelize</title><g id="Calque_2" data-name="Calque 2"><g id="Calque_1-2" data-name="Calque 1"><polygon class="cls-1" points="157.1 392.93 213.22 423.6 213.22 350.41 157.1 318.83 157.1 392.93"/><polygon class="cls-2" points="141.56 128.27 85.89 161.21 148.9 197.48 204.19 165.23 141.56 128.27"/><polygon class="cls-1" points="157.1 294.7 213.22 325.37 213.22 260.23 157.1 227.93 157.1 294.7"/><polygon class="cls-1" points="74.96 247.81 137.59 282.04 137.59 216.69 74.96 180.64 74.96 247.81"/><polygon class="cls-1" points="74.96 346.04 137.59 380.27 137.59 308.39 74.96 271.94 74.96 346.04"/><polygon class="cls-2" points="223.71 175.15 167.69 208.3 224.7 241.12 280.25 208.53 223.71 175.15"/><polygon class="cls-1" points="304.69 284.76 368 247.3 368 182.9 304.69 220.04 304.69 284.76"/><polygon class="cls-2" points="295.62 199.51 357.09 163.45 300.37 129.98 238.76 166.43 295.62 199.51"/><path class="cls-2" d="M221.73,0,0,128V384L222.24,512,443,384.5v-257ZM394.89,356.85,222.3,459,49.08,358.47V156.63L221.65,55.09l173.25,98.84Z"/><polygon class="cls-2" points="156.62 119.54 219.26 155.99 280.86 120.05 218.23 83.09 156.62 119.54"/><polygon class="cls-1" points="304.69 383.08 368 345.53 368 272.17 304.69 310.98 304.69 383.08"/><polygon class="cls-1" points="235.22 325.68 291.34 292.48 291.34 227.87 235.22 260.79 235.22 325.68"/><polygon class="cls-1" points="235.22 423.91 291.34 390.71 291.34 319.35 235.22 350.62 235.22 423.91"/></g></g></svg>