<svg xmlns="http://www.w3.org/2000/svg" viewBox="0 0 442.96 512"><defs><style>.cls-1{fill:#0277bd}.cls-2{fill:#42a5f5}</style></defs><g id="Calque_2" data-name="Calque 2"><g id="Calque_1-2" data-name="Calque 1"><path class="cls-1" d="M157.1 392.93l56.12 30.67v-73.19l-56.12-31.58v74.1z"/><path class="cls-2" d="M141.56 128.27l-55.67 32.94 63.01 36.27 55.29-32.25-62.63-36.96z"/><path class="cls-1" d="M157.1 294.7l56.12 30.67v-65.14l-56.12-32.3v66.77zm-82.14-46.89l62.63 34.23v-65.35l-62.63-36.05v67.17zm0 98.23l62.63 34.23v-71.88l-62.63-36.45v74.1z"/><path class="cls-2" d="M223.71 175.15l-56.02 33.15 57.01 32.82 55.55-32.59-56.54-33.38z"/><path class="cls-1" d="M304.69 284.76L368 247.3v-64.4l-63.31 37.14v64.72z"/><path class="cls-2" d="M295.62 199.51l61.47-36.06-56.72-33.47-61.61 36.45 56.86 33.08z"/><path class="cls-2" d="M221.73 0L0 128v256l222.24 128L443 384.5v-257zm173.16 356.85L222.3 459 49.08 358.47V156.63L221.65 55.09l173.25 98.84z"/><path class="cls-2" d="M156.62 119.54l62.64 36.45 61.6-35.94-62.63-36.96-61.61 36.45z"/><path class="cls-1" d="M304.69 383.08L368 345.53v-73.36l-63.31 38.81v72.1zm-69.47-57.4l56.12-33.2v-64.61l-56.12 32.92v64.89zm0 98.23l56.12-33.2v-71.36l-56.12 31.27v73.29z"/></g></g></svg>