<svg xmlns="http://www.w3.org/2000/svg" viewBox="0 0 112.19 117.98"><defs><style>.cls-1{fill:#82c5a9;}</style></defs><title>settings</title><g id="Calque_2" data-name="Calque 2"><g id="Layer_1" data-name="Layer 1"><path class="cls-1" d="M109.58,73.94,99.15,66.2c0-.16,0-.32.07-.48l0-.19q.15-1,.26-2V63.4q.11-1.06.16-2.11s0-.06,0-.09q.05-1,.05-2.09s0-.07,0-.11,0-.08,0-.12,0-.31,0-.46,0-.06,0-.08c0-.3,0-.61,0-.91s0-.37,0-.56c0-.37,0-.74-.06-1.12,0,0,0-.08,0-.12s0-.22,0-.33,0-.39-.06-.59v-.2c0-.1,0-.2,0-.3s0-.25,0-.37,0-.13,0-.19l0-.21c-.06-.51-.13-1-.22-1.51,0,0,0-.09,0-.13L109.6,44a5.18,5.18,0,0,0,1.9-7.07L102.86,22a5.18,5.18,0,0,0-7.07-1.9L83.85,25.3l-.2-.16-.09-.08-.47-.37-.51-.4L82.15,24l-.2-.15-.35-.26-.19-.14-.49-.34L80.8,23l-.21-.15-.72-.48-.08-.05c-.4-.26-.79-.51-1.2-.75l-.31-.18c-.87-.51-1.75-1-2.66-1.45l-.05,0Q73.8,19,72,18.33l-.1,0-.47-.19L69.89,5.18A5.18,5.18,0,0,0,64.72,0H47.46a5.18,5.18,0,0,0-5.18,5.18L40.79,18.1l-.21.08-.24.1c-.48.18-.95.38-1.42.58l-.25.11-1.26.57-.13.06-.17.08-.46.23-1,.54-.75.4-.47.27,0,0-.09,0-.15.09q-.85.49-1.67,1l-.19.12-.19.12-.05,0q-.71.47-1.39,1l-.19.14q-.77.56-1.52,1.15l-.26.21-.33.26L16.4,20.14A5.18,5.18,0,0,0,9.33,22L.7,37a5.18,5.18,0,0,0,1.89,7.08L13,51.8c0,.13,0,.25-.06.38l-.06.43c-.09.59-.16,1.19-.23,1.78l0,.35c-.05.53-.1,1.06-.13,1.59v.12s0,.09,0,.13,0,.24,0,.35q0,.91,0,1.81c0,.08,0,.17,0,.25s0,.18,0,.28,0,.14,0,.2,0,.15,0,.22c0,.25,0,.5,0,.74s0,.64,0,1,0,.54,0,.81v.11c0,.13,0,.27,0,.4s0,.34,0,.51c0,.39.07.77.12,1.15v0q.1.85.24,1.7s0,.07,0,.1L2.59,73.94A5.18,5.18,0,0,0,.7,81L9.33,96a5.18,5.18,0,0,0,7.07,1.9L28.32,92.7l.25.19,0,0h0l.39.31.62.48L30,94l.48.36.05,0,.23.16.56.39,0,0,.22.15c.65.45,1.32.88,2,1.29l.36.21q1.28.76,2.61,1.43l.09,0a43.8,43.8,0,0,0,4.15,1.81l1.49,12.9A5.18,5.18,0,0,0,47.45,118H64.71a5.18,5.18,0,0,0,5.18-5.18l1.49-12.91.22-.08.21-.09q.72-.28,1.43-.58l.28-.12,1.26-.57.12-.06h0l.13-.06.49-.24,1-.53.77-.41.39-.22.13-.08.07,0,.11-.07q.88-.51,1.74-1.07l.13-.08.27-.17c.48-.32,1-.65,1.43-1l.14-.1c.53-.39,1.06-.78,1.57-1.19L83.5,93l.35-.28,11.92,5.16a5.18,5.18,0,0,0,7.07-1.9L111.48,81A5.18,5.18,0,0,0,109.58,73.94ZM56.09,77a18,18,0,1,1,18-18A18,18,0,0,1,56.09,77Z"/></g></g></svg>