<svg xmlns="http://www.w3.org/2000/svg" viewBox="0 0 22.66 28"><defs><style>.cls-1{fill:#fff;}.cls-2{fill:#ff4785;}</style></defs><title>storybook</title><g id="Calque_2" data-name="Calque 2"><g id="Calque_1-2" data-name="Calque 1"><path class="cls-1" d="M16.74,3.45,16.87.27,19.59.1l.12,3.23a.22.22,0,0,1,0,.14.21.21,0,0,1-.3,0h0l-1-.82-1.24.93a.21.21,0,0,1-.3,0h0A.21.21,0,0,1,16.74,3.45Z"/><path class="cls-2" d="M16.87.27l-.13,3.17a.21.21,0,0,0,0,.14.21.21,0,0,0,.3,0h0l1.24-.93,1,.82a.21.21,0,0,0,.3,0h0a.22.22,0,0,0,0-.14L19.59.1,21.15,0a1.42,1.42,0,0,1,1.51,1.32h0s0,.06,0,.09V26.6A1.41,1.41,0,0,1,21.25,28h-.07L2.23,27.16A1.41,1.41,0,0,1,.88,25.8L0,2.69A1.41,1.41,0,0,1,1.33,1.24l15.54-1Z"/><path class="cls-1" d="M13.25,10.56c0,.55,3.72.28,4.22-.1,0-3.73-2-5.69-5.71-5.69S6,6.76,6,9.74c0,5.2,7.08,5.3,7.08,8.14a1.13,1.13,0,0,1-1.26,1.27c-1.13,0-1.57-.57-1.52-2.51,0-.42-4.3-.55-4.43,0-.33,4.7,2.62,6.06,6,6.06s5.84-1.73,5.84-4.87c0-5.57-7.18-5.42-7.18-8.19A1.18,1.18,0,0,1,11.6,8.37h.26C12.39,8.38,13.33,8.47,13.25,10.56Z"/></g></g></svg>