<svg xmlns="http://www.w3.org/2000/svg" viewBox="0 0 22.66 28"><defs><style>.cls-1{fill:#fff}</style></defs><g id="Calque_2" data-name="Calque 2"><g id="Calque_1-2" data-name="Calque 1"><path class="cls-1" d="M16.74 3.45l.13-3.18L19.59.1l.12 3.23a.22.22 0 010 .14.21.21 0 01-.3 0l-1-.82-1.24.93a.21.21 0 01-.3 0 .21.21 0 01-.13-.13z"/><path d="M16.87.27l-.13 3.17a.21.21 0 000 .14.21.21 0 00.3 0l1.24-.93 1 .82a.21.21 0 00.3 0 .22.22 0 000-.14L19.59.1l1.56-.1a1.42 1.42 0 011.51 1.32V26.6a1.41 1.41 0 01-1.41 1.4h-.07l-18.95-.84A1.41 1.41 0 01.88 25.8L0 2.69a1.41 1.41 0 011.33-1.45l15.54-1z" fill="#ff4785"/><path class="cls-1" d="M13.25 10.56c0 .55 3.72.28 4.22-.1 0-3.73-2-5.69-5.71-5.69S6 6.76 6 9.74c0 5.2 7.08 5.3 7.08 8.14a1.13 1.13 0 01-1.26 1.27c-1.13 0-1.57-.57-1.52-2.51 0-.42-4.3-.55-4.43 0-.33 4.7 2.62 6.06 6 6.06s5.84-1.73 5.84-4.87c0-5.57-7.18-5.42-7.18-8.19a1.18 1.18 0 011.07-1.27h.26c.53.01 1.47.1 1.39 2.19z"/></g></g></svg>