<svg xmlns="http://www.w3.org/2000/svg" viewBox="0 0 375.35 512"><defs><style>.cls-1{fill:#96ae60;}</style></defs><title>stylus</title><g id="Calque_2" data-name="Calque 2"><g id="Calque_1-2" data-name="Calque 1"><path class="cls-1" d="M306.51,119.69l-10.37-7.21c51.83-59-10.37-101.86-39.66-57.69C229,96.25,266.4,147.63,288.93,214.33c35.61,105.46,30.2,162.25-15.77,217.24C157.33,569.48-59.46,516.75,15.36,373.88,41,324.75,85.67,289.6,161.83,298.16c7.21,9-.45,12.62-5.86,15.32-61.75,30.65-97.35,153.69-43.72,151,25.69-.9,64-26.59,83.83-70.31,23-50.93-5.41-114.93-25.69-175.32C123.07,76.42,230.34-46.62,352.93,17.38,399.35,41.72,368.7,126.9,306.51,119.69Z"/></g></g></svg>