<svg xmlns="http://www.w3.org/2000/svg" viewBox="0 0 338.18 302.6"><g data-name="Calque 2"><path d="M333.12 301.42c-20-38.93-57.23-29.27-76.31-19.47-1.72 1-3.48 2-5.25 3l-.42.25c-39.5 21-92.53 22.54-145.85-.38A234.64 234.64 0 010 194.45a230.63 230.63 0 0039.17 23.37c56.36 26.4 113 24.49 153 0-57-43.85-104.6-101-141.09-147.22A197.09 197.09 0 0132.3 44.7C76 84.7 145 134.92 169.78 148.82 117.21 93.33 70.89 24.88 73.06 27.08c82.79 83.42 159.18 130.59 159.18 130.59 2.88 1.58 5 2.85 6.73 4a127.43 127.43 0 004.16-12.47c13.22-48.33-1.66-103.58-35.31-149.2C284.61 46.08 330 133.67 311.4 207.75c-.44 1.73-1 3.4-1.44 5.09 38.52 47.4 28 98.17 23.13 88.59z" fill="#e64a19" data-name="Calque 1"/></g></svg>