<svg viewBox="0 0 1877 1877" xmlns="http://www.w3.org/2000/svg">
  <g fill="#C86DD7">
    <path id="Path" d="M0 0C36.3 0 72.6 0 110 0C110.33 165.33 110.66 330.66 111 501C142.02 501 173.04 501 205 501C216.201 484.907 216.201 484.907 226 468C226.66 468 227.32 468 228 468C228.228 467.335 228.456 466.67 228.691 465.984C230.386 462.12 232.613 458.762 234.938 455.25C235.945 453.711 236.953 452.172 237.961 450.633C238.472 449.855 238.984 449.076 239.511 448.274C240.864 446.208 242.205 444.134 243.539 442.055C249.645 432.54 255.902 423.128 262.184 413.729C269.078 403.411 275.913 393.058 282.538 382.564C287.613 374.539 292.878 366.647 298.166 358.761C302.661 352.054 307.098 345.318 311.414 338.493C313.742 334.834 316.146 331.227 318.563 327.625C319.592 326.085 320.622 324.544 321.652 323.004C322.19 322.201 322.727 321.398 323.281 320.571C326.401 315.905 329.512 311.233 332.625 306.563C333.805 304.793 334.984 303.023 336.164 301.254C336.664 300.504 337.163 299.755 337.678 298.983C338.785 297.322 339.893 295.661 341 294C343.491 293.705 345.733 293.609 348.226 293.639C349.355 293.635 349.355 293.635 350.508 293.631C353.045 293.626 355.581 293.643 358.118 293.659C359.931 293.66 361.744 293.66 363.557 293.658C368.491 293.657 373.424 293.675 378.358 293.696C383.509 293.715 388.661 293.716 393.813 293.72C403.573 293.729 413.334 293.754 423.094 293.784C436.28 293.824 449.466 293.84 462.652 293.857C483.435 293.886 504.217 293.945 525 294C525 261.33 525 228.66 525 195C418.41 195 311.82 195 202 195C202 159.03 202 123.06 202 86C584.8 86 967.6 86 1362 86C1362 121.97 1362 157.94 1362 195C1255.74 195 1149.48 195 1040 195C1040.33 227.34 1040.66 259.68 1041 293C1060.55 292.899 1060.55 292.899 1080.5 292.797C1088.75 292.781 1097 292.768 1105.26 292.77C1118.36 292.771 1131.46 292.759 1144.56 292.667C1154.1 292.601 1163.65 292.576 1173.19 292.602C1178.24 292.614 1183.29 292.605 1188.34 292.546C1193.1 292.491 1197.86 292.492 1202.62 292.536C1204.36 292.543 1206.1 292.529 1207.84 292.492C1220.97 292.235 1220.97 292.235 1225.97 296.582C1228.29 299.626 1230.17 302.641 1232 306C1233.14 307.777 1234.28 309.549 1235.44 311.313C1235.99 312.201 1236.54 313.089 1237.11 314.004C1239.39 317.625 1241.75 321.19 1244.13 324.75C1244.53 325.364 1244.94 325.978 1245.36 326.611C1247.42 329.697 1249.52 332.744 1251.69 335.754C1253.58 338.415 1255.2 341.076 1256.78 343.926C1259.63 348.757 1262.87 353.351 1266 358C1267.02 359.541 1268.04 361.083 1269.06 362.625C1271.04 365.609 1273.1 368.529 1275.19 371.438C1278.46 376.076 1281.39 380.887 1284.31 385.75C1287.68 391.343 1291.15 396.789 1295 402.063C1298.8 407.261 1302.42 412.547 1305.94 417.938C1306.4 418.636 1306.86 419.334 1307.33 420.053C1309.39 423.232 1311.21 426.302 1312.63 429.816C1313.89 432.747 1314.69 433.96 1317 436C1321.49 441.919 1325.46 448.214 1329.45 454.474C1332.25 458.853 1335.11 463.185 1338 467.5C1341.94 473.384 1345.8 479.318 1349.6 485.293C1353.01 490.565 1356.52 495.776 1360 501C1407.03 501.495 1407.03 501.495 1455 502C1455 336.34 1455 170.68 1455 0C1490.97 0 1526.94 0 1564 0C1564 201.63 1564 403.26 1564 611C1477.21 611 1390.42 611 1301 611C1295.87 604.59 1291.28 598.61 1287.06 591.688C1283.62 586.134 1280.14 580.654 1276.38 575.313C1272.66 570.025 1269.21 564.613 1265.82 559.112C1262.38 553.539 1258.76 548.093 1255.05 542.696C1252 538.213 1252 538.213 1252 536C1251.34 536 1250.68 536 1250 536C1248.86 534.254 1247.82 532.45 1246.81 530.625C1243.98 525.62 1240.95 520.909 1237.58 516.254C1235.93 513.897 1234.46 511.477 1233 509C1228.82 502.302 1224.49 495.714 1220.09 489.156C1217.9 485.855 1215.76 482.526 1213.63 479.188C1210.51 474.318 1207.34 469.489 1204.13 464.688C1200.53 459.325 1197 453.927 1193.5 448.5C1190.04 443.137 1186.55 437.8 1183 432.5C1179.31 426.988 1175.67 421.444 1172.06 415.875C1171.6 415.164 1171.14 414.453 1170.67 413.721C1170.01 412.71 1170.01 412.71 1169.35 411.68C1168.78 410.794 1168.78 410.794 1168.19 409.89C1167 408 1167 408 1166 405.422C1164.31 402.892 1164.31 402.892 1162.2 402.534C1159.72 402.349 1157.28 402.331 1154.79 402.361C1153.84 402.352 1152.89 402.344 1151.9 402.335C1148.69 402.313 1145.48 402.327 1142.27 402.341C1139.97 402.332 1137.68 402.321 1135.38 402.309C1129.14 402.281 1122.89 402.283 1116.65 402.291C1110.12 402.294 1103.6 402.269 1097.08 402.247C1086.13 402.214 1075.18 402.198 1064.23 402.196C1052.94 402.193 1041.66 402.18 1030.38 402.153C1029.68 402.151 1028.98 402.149 1028.26 402.148C1022.15 402.133 1016.04 402.117 1009.93 402.102C983.62 402.036 957.31 402.022 931 402C931 333.69 931 265.38 931 195C900.31 195 869.62 195 838 195C838 546.45 838 897.9 838 1260C801.7 1260 765.4 1260 728 1260C728 908.55 728 557.1 728 195C696.98 195 665.96 195 634 195C634 263.31 634 331.62 634 402C608.892 401.917 608.892 401.917 583.277 401.832C572.691 401.821 562.104 401.814 551.518 401.818C545.957 401.821 540.397 401.822 534.836 401.823C534.139 401.823 533.442 401.823 532.724 401.823C521.476 401.824 510.228 401.786 498.979 401.733C487.434 401.68 475.889 401.67 464.343 401.696C457.859 401.71 451.375 401.704 444.891 401.652C438.788 401.604 432.687 401.607 426.583 401.649C424.343 401.656 422.103 401.644 419.863 401.611C408.27 400.938 408.27 400.938 398.171 405.402C396.342 408.23 395.146 410.845 394 414C393.206 415.316 392.383 416.616 391.508 417.879C391.121 418.477 390.735 419.075 390.337 419.691C389.937 420.309 389.537 420.926 389.125 421.563C388.679 422.252 388.232 422.942 387.772 423.653C384.779 428.272 381.772 432.882 378.758 437.488C378.387 438.055 378.016 438.622 377.634 439.206C375.791 442.021 373.947 444.836 372.102 447.651C368.207 453.597 364.352 459.564 360.565 465.58C359.001 467.998 357.365 470.347 355.688 472.688C352.167 477.653 348.971 482.794 345.767 487.967C341.42 494.97 336.838 501.806 332.219 508.633C327.063 516.301 322.107 524.087 317.187 531.908C313.832 537.216 310.36 542.408 306.735 547.535C303.842 551.646 301.042 555.82 298.25 560C297.647 560.902 297.045 561.804 296.424 562.734C292.014 569.376 287.814 576.123 283.699 582.95C280.355 588.479 276.764 593.744 273 599C270.36 602.96 267.72 606.92 265 611C177.55 611 90.1 611 0 611C0 409.37 0 207.74 0 0C0 0 0 0 0 0Z" transform="translate(156 50)" />
    <path id="Path" d="M0 0C36.3 0 72.6 0 110 0C110 107.25 110 214.5 110 325C243.98 325 377.96 325 516 325C516 467.89 516 610.78 516 758C480.03 758 444.06 758 407 758C407 651.08 407 544.16 407 434C273.02 434 139.04 434 1 434C0.669983 290.78 0.340027 147.56 0 0C0 0 0 0 0 0Z" transform="translate(680 1079)" />
    <path id="Path" d="M0.0133057 0C36.3134 0 72.6133 0 110.013 0C110.013 252.12 110.013 504.24 110.013 764C74.0433 764 38.0732 764 1.01331 764C0.896851 695.52 0.896851 695.52 0.86084 674.233C0.859497 673.474 0.858276 672.715 0.856934 671.933C0.813354 646.202 0.770264 620.472 0.727295 594.741C0.72583 593.896 0.724487 593.051 0.723022 592.181C0.692383 573.787 0.661743 555.394 0.631104 537C0.616089 527.97 0.601074 518.94 0.58606 509.911C0.584595 509.012 0.583008 508.114 0.581543 507.189C0.533691 478.457 0.485107 449.725 0.436035 420.994C0.385254 391.286 0.335449 361.579 0.286621 331.871C0.279541 327.605 0.272461 323.338 0.265503 319.071C0.264038 318.232 0.262695 317.393 0.26123 316.528C0.240967 304.209 0.219971 291.889 0.198486 279.57C0.165894 260.844 0.134644 242.118 0.105103 223.392C0.103882 222.641 0.102783 221.891 0.101563 221.117C0.00952148 162.662 -0.00671387 104.207 0.0020752 45.7516C0.00219727 45.0278 0.00231934 44.3039 0.00244141 43.5581C0.00476074 29.0387 0.00927734 14.5193 0.0133057 0C0.0133057 0 0.0133057 0 0.0133057 0Z" transform="translate(1085.987 546)" />
    <path id="Path" d="M204 0.12439C221.964 0.10376 239.929 0.0831299 258.438 0.0618896C264.119 0.0528564 269.8 0.0437012 275.654 0.0343018C282.568 0.0297852 282.568 0.0297852 285.801 0.0289307C288.068 0.0274658 290.336 0.0239258 292.603 0.0187988C296.029 0.0115967 299.455 0.010498 302.881 0.0108643C303.898 0.00732422 304.916 0.00366211 305.964 0C307.339 0.0020752 307.339 0.0020752 308.742 0.00415039C309.545 0.0032959 310.347 0.00231934 311.175 0.00134277C313 0.12439 313 0.12439 314 1.12439C314.099 3.10474 314.126 5.08862 314.127 7.07129C314.13 8.36707 314.133 9.66284 314.135 10.9979C314.134 12.4496 314.132 13.9012 314.129 15.3529C314.131 16.8732 314.133 18.3936 314.135 19.9138C314.139 24.077 314.137 28.2404 314.134 32.4036C314.132 36.8214 314.134 41.2394 314.136 45.6572C314.138 53.1465 314.135 60.6357 314.13 68.1249C314.125 76.597 314.127 85.0692 314.132 93.5414C314.137 100.914 314.137 108.286 314.135 115.659C314.133 120.014 314.133 124.37 314.136 128.725C314.155 162.87 313.525 196.975 313 231.124C210.04 231.124 107.08 231.124 1 231.124C0.669983 155.224 0.340027 79.3245 0 1.12439C36.3 1.12439 72.6 1.12439 110 1.12439C110 41.3844 110 81.6444 110 123.124C141.02 123.124 172.04 123.124 204 123.124C204 82.5344 204 41.9445 204 0.12439C204 0.12439 204 0.12439 204 0.12439Z" transform="translate(680 1605.876)" />
    <path id="Path" d="M0 0C36.3 0 72.6 0 110 0C110 147.18 110 294.36 110 446C74.03 446 38.06 446 1 446C0.669983 298.82 0.340027 151.64 0 0C0 0 0 0 0 0Z" transform="translate(680 546)" />
  </g>
</svg>