<svg xmlns="http://www.w3.org/2000/svg" viewBox="0 0 22.29 28"><defs><style>.cls-1{fill:#fbc02d}</style></defs><g id="Calque_2" data-name="Calque 2"><g id="Calque_1-2" data-name="Calque 1"><path class="cls-1" d="M21.86 22.21L15.14 8.76V2h1V0h-10v2h1v6.76L.42 22.21A4 4 0 004 28h14.3a4 4 0 003.57-5.79zM20 25a2 2 0 01-1.7 1H4a2 2 0 01-1.78-2.89L3.76 20l1-2 .44-.89.25-.49L9 9.45A1 1 0 009.14 9V2h4v7a1 1 0 00.11.45l3.58 7.17.69 1.38 1 2 1.55 3.11A2 2 0 0120 25z"/><path class="cls-1" d="M15.31 16.3a2.23 2.23 0 11-3.92-1.84h-3.5L3.64 23s-.94 1.88 1 1.93h13.07c1.93 0 1-1.93 1-1.93z"/><circle class="cls-1" cx="13.18" cy="15.77" r="1.49"/></g></g></svg>