<svg xmlns="http://www.w3.org/2000/svg" viewBox="0 0 22.29 28"><defs><style>.cls-1{fill:#fbc02d;}</style></defs><title>testjs</title><g id="Calque_2" data-name="Calque 2"><g id="Calque_1-2" data-name="Calque 1"><path class="cls-1" d="M21.86,22.21,15.14,8.76V2h1V0h-10V2h1V8.76L.42,22.21A4,4,0,0,0,4,28h14.3a4,4,0,0,0,3.57-5.79ZM20,25a2,2,0,0,1-1.7,1H4a2,2,0,0,1-1.78-2.89L3.76,20h0l1-2h0l.44-.89.25-.49L9,9.45A1,1,0,0,0,9.14,9V2h4V9a1,1,0,0,0,.11.45l3.58,7.17h0L17.52,18h0l1,2h0l1.55,3.11A2,2,0,0,1,20,25Z"/><path class="cls-1" d="M15.31,16.3a2.23,2.23,0,1,1-3.92-1.84H7.89L3.64,23s-.94,1.88,1,1.93c1.56,0,4.86,0,6.07,0,1.45,0,5.41,0,7,0,1.93,0,1-1.93,1-1.93Z"/><circle class="cls-1" cx="13.18" cy="15.77" r="1.49"/></g></g></svg>