<svg xmlns="http://www.w3.org/2000/svg" viewBox="0 0 28 13.06"><defs><style>.cls-1{fill:#42a5f5;}</style></defs><title>tex</title><g id="Calque_2" data-name="Calque 2"><g id="Calque_1-2" data-name="Calque 1"><path class="cls-1" d="M26.64,9.13,23,4.12,25.45.91c.14-.18.2-.21.67-.26a5.26,5.26,0,0,1,.84,0h.37V0C27,0,25.86,0,25.46,0s-1.68,0-2,0V.61a4.1,4.1,0,0,1,1.29.17L22.65,3.57l-2.12-3H21.7V0c-.51,0-1.85,0-2.43,0S17.38,0,17,0V.61h1.38L21.54,5l-2.85,3.8c-.13.17-.17.21-.67.26a7.45,7.45,0,0,1-.82,0h-.38v.61l.41,0c-.32,1.78-1,2.72-3.21,2.72H11.79V8.34h.84c1.36,0,1.5.58,1.5,1.66h.6V6.07h-.6c0,1.06-.14,1.66-1.5,1.66h-.84V4H14c2.17,0,2.64.92,2.85,2.76h.6L17,3.39H9.91L9.65.29H.28L0,3.65H.6C.72,2.1.84.9,2.88.9H4V9.3H1.89v.61L5,9.88l3.08,0V9.3H5.91V.9H7C9,.9,9.18,2,9.31,3.39h-.9V4H9.92v8.45H8.41v.61h8.88l.54-3.35h.86c.44,0,1.66,0,2,0V9.13A4.1,4.1,0,0,1,19.41,9l2.53-3.38,2.56,3.55H23.31v.62c.46,0,1.88,0,2.41,0s1.92,0,2.27,0V9.13Z"/></g></g></svg>