<svg xmlns="http://www.w3.org/2000/svg" xmlns:xlink="http://www.w3.org/1999/xlink" viewBox="0 0 96 95.5"><defs><style>.cls-1{fill:#52218a;}.cls-2{fill:#6c33af;}.cls-3{fill:#854cc7;}.cls-4{fill:#b179f1;}.cls-5{opacity:0.25;}.cls-6{fill:url(#Dégradé_sans_nom);}</style><linearGradient id="Dégradé_sans_nom" x1="48" y1="694.25" x2="48" y2="789.75" gradientTransform="translate(0 -694.25)" gradientUnits="userSpaceOnUse"><stop offset="0" stop-color="#fff"/><stop offset="1" stop-color="#fff" stop-opacity="0"/></linearGradient></defs><title>visualstudio</title><g id="Calque_2" data-name="Calque 2"><g id="Calque_1-2" data-name="Calque 1"><path class="cls-1" d="M13.87,75.15a4,4,0,0,1-4.14.65L2.46,72.75A4,4,0,0,1,0,69.08V26.42a4,4,0,0,1,2.46-3.67l7.27-3a4,4,0,0,1,4.14.65l1.63,1.35a2.21,2.21,0,0,0-3.5,1.8V72a2.21,2.21,0,0,0,3.5,1.8Z"/><path class="cls-2" d="M2.46,72.75A4,4,0,0,1,0,69.08v-.33A2.31,2.31,0,0,0,4,70.3L66,1.75A6,6,0,0,1,72.82.59L92.6,10.11A6,6,0,0,1,96,15.52v.23a3.79,3.79,0,0,0-6.19-2.93L15.5,73.75l-1.63,1.4a4,4,0,0,1-4.14.65Z"/><path class="cls-3" d="M2.46,22.75A4,4,0,0,0,0,26.42v.33A2.31,2.31,0,0,1,4,25.2L66,93.75a6,6,0,0,0,6.82,1.16L92.6,85.39A6,6,0,0,0,96,80v-.23a3.79,3.79,0,0,1-6.19,2.93L15.5,21.75l-1.63-1.4a4,4,0,0,0-4.14-.6Z"/><path class="cls-4" d="M72.82,94.91A6,6,0,0,1,66,93.75a3.52,3.52,0,0,0,6-2.49v-87a3.52,3.52,0,0,0-6-2.51A6,6,0,0,1,72.82.59L92.6,10.1A6,6,0,0,1,96,15.51V80a6,6,0,0,1-3.4,5.41Z"/><g class="cls-5"><path class="cls-6" d="M68.89,95.35a6,6,0,0,0,3.93-.44L92.6,85.4A6,6,0,0,0,96,80V15.51a6,6,0,0,0-3.4-5.41L72.82.59A6,6,0,0,0,66,1.75L34.12,37,15.5,21.75l-1.63-1.4a4,4,0,0,0-3.61-.83,2.55,2.55,0,0,0-.53.18l-7.27,3A4,4,0,0,0,0,26.12V69.38a4,4,0,0,0,2.46,3.37l7.27,3a2.55,2.55,0,0,0,.53.18,4,4,0,0,0,3.61-.83l1.63-1.35L34.12,58.49,66,93.75A6,6,0,0,0,68.89,95.35ZM72,27.43,47.21,47.75,72,68.07ZM12,34,24.41,47.75,12,61.48Z"/></g></g></g></svg>