<svg xmlns="http://www.w3.org/2000/svg" viewBox="0 0 2202 2369" width="2202" height="2369">
	<style>
		tspan { white-space:pre }
		.shp0 { fill: #3398c2 } 
	</style>
	<path id="Layer" class="shp0" d="M1456.38 1813.02C1456.38 1852.79 1447.25 1891.59 1442.2 1930.38C1437.96 1964.45 1441.38 1968.36 1475.94 1962.33C1553.69 1948.97 1623.95 1916.2 1691.76 1877.73C1764.29 1836.33 1833.41 1789.22 1911 1758.25C1970.98 1734.13 2032.27 1718.15 2097.47 1718.15C2154.04 1718.15 2193.32 1748.8 2200.17 1797.21C2206.69 1842.03 2182.07 1884.9 2137.08 1894.36C2008.47 1921.58 1897.47 1984.99 1789.23 2055.41C1644.16 2149.13 1486.21 2216.78 1321.74 2268.62C1315.7 2270.41 1307.88 2271.71 1303.97 2275.46C1265.17 2316.54 1213.83 2323.39 1161.99 2330.23C1016.59 2349.3 870.21 2357.78 723.51 2366.42C681.29 2369.03 638.91 2370.33 596.69 2362.18C529.37 2348.82 500.84 2323.71 490.58 2268.45C481.45 2218.74 504.76 2171.79 554.47 2139.35C559.69 2135.93 565.23 2132.51 573.54 2127.29C546.81 2110.83 524.81 2091.43 508.02 2067.31C499.87 2056.06 495.47 2063.07 492.86 2072.52C484.71 2103.66 476.39 2135.12 468.24 2166.25C462.7 2186.95 455.69 2207.33 447.05 2227.05C421.95 2284.43 376.31 2312.14 315.83 2317.68C254.06 2323.22 195.86 2309.53 140.61 2282.31C102.62 2263.73 91.38 2235.69 103.93 2194.61C110.45 2172.61 123 2153.54 138 2130.23C85.84 2140.66 62.85 2110.34 44.76 2073.66C4.17 1993.3 -9.69 1908.38 6.78 1820.35C20.14 1750.43 61.22 1693.54 110.45 1644.31C139.3 1615.46 147.94 1587.75 147.13 1547.16C140.61 1312.76 229.12 1120.25 411.36 971.43C427.33 958.06 443.3 944.21 460.09 932.14C470.53 924.81 471.67 920.08 463.19 909.32C416.08 850.15 379.41 785.93 362.62 711.27C343.55 627.16 372.07 554.14 414.45 484.21C420.48 474.75 429.94 470.03 440.37 466.11C493.51 447.04 538.34 418.19 578.92 377.6C670.37 286.16 783.49 244.26 912.92 249.81C929.38 250.62 936.72 245.89 941.77 230.41C961.17 173.85 985.29 119.4 1017.73 69.03C1029.79 49.96 1043.16 32.36 1060.44 18.18C1092.39 -8.23 1119.61 -4.32 1141.13 30.73C1180.9 94.14 1211.54 162.44 1242.52 230.57C1250.34 247.85 1256.37 253.88 1274.46 242.15C1295.65 228.78 1319.29 219.32 1343.09 211.01C1362.16 204.49 1373.24 208.89 1381.56 228.78C1405.68 286.97 1418.72 347.93 1426.06 410.53C1428.18 427.81 1432.09 444.6 1429.97 461.88C1428.67 499.37 1430.46 537.02 1430.79 575C1430.79 591.79 1424.75 608.74 1429.97 625.86C1426.06 728.55 1398.84 825.7 1359.23 919.75C1322.06 1007.78 1268.11 1085.86 1214.15 1164.1C1192.96 1194.25 1193.45 1194.74 1221 1219.36C1355.64 1340.63 1429.97 1493.04 1454.91 1670.88C1455.73 1677.73 1455.4 1685.06 1455.4 1692.4C1449.86 1708.86 1455.89 1724.83 1456.21 1740.81C1457.68 1765.1 1452.14 1789.38 1456.38 1813.02L1456.38 1813.02Z" />
</svg>