<svg xmlns="http://www.w3.org/2000/svg" viewBox="0 0 430.38 516.38"><defs><style>.cls-1{fill:#f4bf75}</style></defs><g id="Calque_2" data-name="Calque 2"><g id="Capa_1" data-name="Capa 1"><path class="cls-1" d="M339.77 0h-90.61v19.13h-22.65v19.12h22.65v19.13h-22.65V76.5h22.65v19.13h-22.65v19.13h22.65v19.13h-22.65V153h22.65v19.13h-22.65v19.13h22.65v19.13h-22.65v19.11h22.65v19.13h-22.65v38.25c24.92 3.83 45.3 23 45.3 47.81 0 26.77-24.92 47.81-56.63 47.81s-56.63-21-56.63-47.81c0-23 20.39-42.08 45.3-47.81v-19.13h-22.64v-19.12h22.65V229.5h-22.65v-19.12h22.65v-19.13h-22.65v-19.12h22.65V153h-22.65v-19.12h22.65v-19.13h-22.65V95.63h22.65V76.5h-22.65V57.38h22.65V38.25h-22.65V19.13h22.65V0H90.61C40.77 0 0 34.42 0 76.5v363.38c0 42.08 40.77 76.5 90.61 76.5h249.16c49.83 0 90.61-34.42 90.61-76.5V76.5c0-42.08-40.78-76.5-90.61-76.5z"/><path class="cls-1" d="M181.21 334.69c0 15.3 15.86 28.69 34 28.69s34-13.39 34-28.69S233.31 306 215.19 306s-33.98 13.39-33.98 28.69z"/></g></g></svg>