<svg xmlns="http://www.w3.org/2000/svg" viewBox="0 0 430.38 516.38"><defs><style>.cls-1{fill:#f4bf75;}</style></defs><title>zip</title><g id="Calque_2" data-name="Calque 2"><g id="Capa_1" data-name="Capa 1"><path class="cls-1" d="M339.77,0H249.16V19.13H226.51V38.25h22.65V57.38H226.51V76.5h22.65V95.63H226.51v19.13h22.65v19.13H226.51V153h22.65v19.13H226.51v19.13h22.65v19.13H226.51V229.5h22.65v19.13H226.51v38.25c24.92,3.83,45.3,23,45.3,47.81,0,26.77-24.92,47.81-56.63,47.81s-56.63-21-56.63-47.81c0-23,20.39-42.08,45.3-47.81V267.75H181.21V248.63h22.65V229.5H181.21V210.38h22.65V191.25H181.21V172.13h22.65V153H181.21V133.88h22.65V114.75H181.21V95.63h22.65V76.5H181.21V57.38h22.65V38.25H181.21V19.13h22.65V0H90.61C40.77,0,0,34.42,0,76.5V439.88c0,42.08,40.77,76.5,90.61,76.5H339.77c49.83,0,90.61-34.42,90.61-76.5V76.5C430.38,34.42,389.6,0,339.77,0Z"/><path class="cls-1" d="M181.21,334.69c0,15.3,15.86,28.69,34,28.69s34-13.39,34-28.69S233.31,306,215.19,306,181.21,319.39,181.21,334.69Z"/></g></g></svg>